<svg width="77" height="77" viewBox="0 0 101 101" fill="none" xmlns="http://www.w3.org/2000/svg">
<g clip-path="url(#clip0)">
<path d="M70.4597 14.0099L70.7419 14.7934L71.0242 14.0099C71.6704 12.2166 73.0953 10.7916 74.8884 10.1455L75.6717 9.86328L74.8884 9.58105C73.0953 8.93491 71.6702 7.50996 71.0242 5.71668L70.742 4.93309L70.4597 5.71668C69.8138 7.50996 68.3887 8.93491 66.5956 9.58105L65.8123 9.86328L66.5956 10.1455C68.3887 10.7917 69.8138 12.2166 70.4597 14.0099ZM73.993 3.55078C73.993 5.23936 75.3661 6.6125 77.0547 6.6125C78.8469 6.6125 80.3055 8.07111 80.3055 9.86328C80.3055 11.6555 78.8469 13.1141 77.0547 13.1141C75.3661 13.1141 73.993 14.4872 73.993 16.1758C73.993 17.968 72.5344 19.4266 70.7422 19.4266C68.95 19.4266 67.4914 17.968 67.4914 16.1758C67.4914 14.4872 66.1183 13.1141 64.4297 13.1141C62.6375 13.1141 61.1789 11.6555 61.1789 9.86328C61.1789 8.07111 62.6375 6.6125 64.4297 6.6125C66.1183 6.6125 67.4914 5.23936 67.4914 3.55078C67.4914 1.75861 68.95 0.3 70.7422 0.3C72.5344 0.3 73.993 1.75861 73.993 3.55078Z" fill="#393939" stroke="#F1F1F1" stroke-width="0.6"/>
<path d="M82.5293 30.9816L82.8115 31.765L83.0938 30.9816C83.7399 29.1883 85.1648 27.7633 86.958 27.1172L87.7412 26.835L86.958 26.5527C85.1648 25.9066 83.7397 24.4816 83.0938 22.6884L82.8115 21.9048L82.5293 22.6884C81.8833 24.4816 80.4582 25.9066 78.6651 26.5527L77.8818 26.835L78.6651 27.1172C80.4582 27.7633 81.8833 29.1883 82.5293 30.9816ZM86.0623 20.5225C86.0623 22.211 87.4354 23.5842 89.124 23.5842C90.9162 23.5842 92.3748 25.0428 92.3748 26.835C92.3748 28.6271 90.9162 30.0857 89.124 30.0857C87.4354 30.0857 86.0623 31.4589 86.0623 33.1475C86.0623 34.9396 84.6039 36.3982 82.8115 36.3982C81.0193 36.3982 79.5607 34.9396 79.5607 33.1475C79.5607 31.4589 78.1876 30.0857 76.499 30.0857C74.7068 30.0857 73.2482 28.6271 73.2482 26.835C73.2482 25.0428 74.7068 23.5842 76.499 23.5842C78.1876 23.5842 79.5607 22.211 79.5607 20.5225C79.5607 18.7303 81.0193 17.2717 82.8115 17.2717C84.6037 17.2717 86.0623 18.7303 86.0623 20.5225Z" fill="#393939" stroke="#F1F1F1" stroke-width="0.6"/>
<path d="M48.6906 25.9662L48.6907 25.9662C49.6004 26.1268 50.2076 26.9943 50.047 27.9043C49.8865 28.8137 49.0186 29.4207 48.1091 29.2605C48.1091 29.2605 48.109 29.2605 48.109 29.2605L41.2914 28.0566L41.1003 28.0228L40.9912 28.1833L38.5143 31.8254L38.5142 31.8255C35.3255 36.5182 30.5395 39.8663 25.0375 41.253L25.0368 41.2532C24.8996 41.2881 24.7622 41.3045 24.6269 41.3045C23.8785 41.3045 23.1976 40.7986 23.0065 40.0403L23.0065 40.0402C22.7807 39.1445 23.3238 38.2353 24.2197 38.0095L24.2197 38.0095C28.9257 36.8231 33.0198 33.9591 35.7475 29.9449L38.9424 25.2471L38.9424 25.2471C39.3127 24.7025 39.9678 24.426 40.6164 24.5404C40.6164 24.5404 40.6164 24.5404 40.6164 24.5404L48.6906 25.9662ZM40.6685 24.2449C39.9037 24.11 39.131 24.4361 38.6943 25.0784L40.6685 24.2449Z" fill="#393939" stroke="#F1F1F1" stroke-width="0.6"/>
<path d="M60.4833 91.4129L60.4833 91.4129L60.4849 91.4122C60.5843 91.3708 60.6898 91.3389 60.7979 91.3169C61.0129 91.2736 61.2347 91.2735 61.4497 91.3168C61.5558 91.3387 61.6617 91.3707 61.764 91.4125C61.8641 91.4543 61.961 91.5061 62.0509 91.566C62.1433 91.6282 62.2288 91.6987 62.3056 91.7755C62.3824 91.8523 62.4528 91.9377 62.515 92.0301C62.5749 92.1201 62.6267 92.2169 62.6685 92.3171C62.7103 92.4193 62.7423 92.5251 62.7642 92.6311C62.7856 92.7383 62.7957 92.8486 62.7957 92.958C62.7957 93.0682 62.7855 93.1784 62.7642 93.2829L62.7642 93.283C62.7428 93.3884 62.7095 93.4942 62.667 93.596L62.6669 93.596L62.6662 93.5978C62.6236 93.7018 62.5736 93.798 62.515 93.8859C62.4528 93.9783 62.3824 94.0637 62.3056 94.1405C62.2285 94.2176 62.1438 94.2872 62.0536 94.3463L62.0536 94.3463L62.0518 94.3475C61.9613 94.4076 61.8641 94.4597 61.764 94.5015C61.6621 94.5432 61.5562 94.575 61.4497 94.5973C61.34 94.6191 61.2299 94.6305 61.123 94.6305C61.0158 94.6305 60.9058 94.6191 60.7984 94.5973C60.6897 94.575 60.5841 94.5432 60.4849 94.5018L60.4849 94.5018L60.4833 94.5012C60.3819 94.4596 60.2849 94.4077 60.1943 94.3475L60.1943 94.3475L60.1925 94.3463C60.1023 94.2872 60.0175 94.2176 59.9405 94.1405C59.8635 94.0635 59.7939 93.9788 59.7348 93.8885L59.7348 93.8885L59.7334 93.8864C59.6732 93.7962 59.6215 93.6994 59.5799 93.5978L59.5799 93.5978L59.5792 93.5962C59.5377 93.4967 59.5058 93.3911 59.4838 93.283C59.462 93.1752 59.4504 93.065 59.4504 92.958C59.4504 92.8516 59.4619 92.7412 59.4838 92.6311C59.5058 92.5251 59.5377 92.4193 59.5795 92.3171C59.6214 92.2167 59.6733 92.1197 59.7334 92.0296L59.7334 92.0296L59.7348 92.0275C59.7939 91.9372 59.8635 91.8525 59.9405 91.7755C60.0173 91.6987 60.1028 91.6282 60.1952 91.566C60.2852 91.506 60.3819 91.4544 60.4833 91.4129Z" fill="#393939" stroke="#F1F1F1" stroke-width="0.6"/>
<path d="M73.9427 70.5825L74.234 70.654L73.9427 70.5825C73.5887 72.0246 73.6628 73.1887 74.3175 73.924L74.5415 73.7245C75.5959 74.9081 78.3391 74.9883 79.5022 74.8414L79.5392 75.1391C79.5394 75.1391 79.5396 75.139 79.5398 75.139C80.016 75.0799 80.4955 75.227 80.8553 75.5442C81.2154 75.8616 81.4216 76.3186 81.4216 76.7987C81.4216 78.2309 81.0123 79.9456 79.6377 81.6903C78.2599 83.4392 75.8989 85.2346 71.9681 86.7966L71.7789 86.8718V87.0754V99.0273C71.7789 99.951 71.03 100.7 70.1062 100.7H19.9408C19.017 100.7 18.2681 99.951 18.2681 99.0273V87.0754V86.8718L18.0789 86.7966C14.148 85.2347 11.787 83.4393 10.4091 81.6905C9.03451 79.9458 8.6252 78.231 8.6252 76.7988C8.6252 76.3188 8.8316 75.8618 9.19158 75.5443L8.99337 75.3196L9.19158 75.5443C9.55145 75.2269 10.0302 75.08 10.5077 75.1393L10.5088 75.1394C10.9951 75.198 11.9816 75.235 12.9945 75.0953C13.9912 74.9579 15.0964 74.6389 15.7334 73.9194C16.3844 73.1842 16.4571 72.0219 16.1038 70.5823C15.4472 67.9076 15.0964 64.5233 14.9102 61.7873C14.8173 60.4215 14.7656 59.2213 14.7372 58.3578C14.723 57.9261 14.7147 57.5787 14.7098 57.3369C14.7074 57.2161 14.7059 57.1216 14.705 57.0563L14.704 56.9806L14.7038 56.96L14.7037 56.9546L14.7037 56.9529C14.7037 45.776 16.3637 37.2482 19.7527 30.8544C24.6672 21.5829 33.1655 16.8713 45.0795 16.8713C56.9934 16.8713 65.4919 21.5829 70.4061 30.8544C73.7951 37.2482 75.4551 45.776 75.4551 56.9529C75.4551 57.8366 75.134 65.7305 73.9427 70.5825ZM68.1336 97.3547H68.4403L68.4335 97.048C68.4335 97.0491 68.4334 96.8603 68.4334 96.5169L68.4332 95.1155L68.4331 90.8733L68.4332 86.6311L68.4334 85.2298C68.4334 84.8863 68.4335 84.6976 68.4335 84.6988H68.4336V84.692C68.4336 82.4864 66.6397 80.6927 64.4342 80.6927H51.3733H51.1418L51.0831 80.9167C50.3786 83.6046 47.9281 85.5932 45.0235 85.5932C42.1189 85.5932 39.6684 83.6046 38.9639 80.9167L38.9052 80.6927H38.6737H25.6128C23.4074 80.6927 21.6134 82.4864 21.6134 84.692L21.6135 84.6988C21.6135 84.6976 21.6136 84.7917 21.6136 84.969L21.6138 85.6827L21.6139 87.8382L21.6138 89.9937L21.6136 90.7074C21.6136 90.8106 21.6136 90.8857 21.6135 90.9302C21.6135 90.962 21.6135 90.9782 21.6135 90.9778L21.6067 91.2844H21.9134H52.9333C53.8571 91.2844 54.6059 92.0334 54.6059 92.9571C54.6059 93.8809 53.8571 94.6297 52.9333 94.6297H21.9134H21.6134V94.9297V97.0547V97.3547H21.9134H68.1336ZM28.5424 48.8909L28.3298 48.9556V49.1779V55.376C28.3298 62.9982 33.4779 69.6473 40.8498 71.5441C41.5889 71.7342 42.1056 72.4006 42.1056 73.164V79.33C42.1056 80.9392 43.4142 82.2479 45.0235 82.2479C46.6326 82.2479 47.9414 80.9393 47.9414 79.33V73.164C47.9414 72.4006 48.4581 71.7342 49.1972 71.5441C56.569 69.6473 61.7173 62.9982 61.7175 55.376C61.7175 46.52 55.3871 38.9739 46.666 37.434L46.6139 37.7294L46.666 37.434L45.1197 37.161L44.9348 37.1283L44.8246 37.2803C40.8003 42.8295 35.0895 46.8982 28.5424 48.8909ZM71.5699 82.9495L71.6559 83.302L71.986 83.1512C74.0947 82.1877 76.4096 80.7861 77.4762 78.9357L77.7109 78.5285L77.2427 78.4871C75.4565 78.3289 73.2625 77.7691 71.8198 76.1497C70.8744 75.0885 69.8758 73.1182 70.6939 69.785C71.7433 65.5119 72.11 58.2032 72.11 56.9531C72.11 46.3881 70.595 38.3538 67.4506 32.4213C65.278 28.3225 62.3564 25.2657 58.6323 23.2365C54.9106 21.2086 50.4059 20.2168 45.0797 20.2168C39.7536 20.2168 35.2488 21.2086 31.5271 23.2365C27.8029 25.2657 24.8812 28.3225 22.7087 32.4213L22.9535 32.5511L22.7087 32.4213C19.5644 38.3536 18.0492 46.3881 18.0492 56.9531C18.0492 57.0261 18.1447 64.8635 19.3528 69.785C20.1711 73.1184 19.1724 75.0885 18.227 76.1497C16.7843 77.7691 14.5905 78.3289 12.8043 78.4871L12.3362 78.5285L12.5708 78.9357C13.6372 80.7863 15.9523 82.1881 18.0609 83.1515L18.3909 83.3022L18.477 82.9497C19.2613 79.738 22.1639 77.3476 25.6128 77.3476H38.4603H38.7603V77.0476V74.6333V74.4183L38.5568 74.3492C30.4936 71.6105 24.9844 64.0144 24.9844 55.3762V47.6797C24.9844 46.9134 25.5051 46.2451 26.2482 46.0579L26.2483 46.0579C32.9284 44.374 38.7403 40.3085 42.6123 34.6104L42.6123 34.6103L42.7861 34.3546C42.7861 34.3546 42.7861 34.3545 42.7861 34.3545C43.1564 33.8098 43.8119 33.5334 44.4604 33.6475L47.2476 34.1397C57.5706 35.9624 65.0626 44.8933 65.0626 55.376C65.0626 64.0142 59.5535 71.6103 51.4902 74.349L51.2867 74.4181V74.6331V77.0474V77.3474H51.5867H64.4341C67.883 77.3474 70.7856 79.7378 71.5699 82.9495Z" fill="#393939" stroke="#F1F1F1" stroke-width="0.6"/>
<path d="M38.6361 52.3252L38.636 52.3253C38.1575 52.8037 37.5198 53.0679 36.8431 53.0679C36.1664 53.0679 35.5287 52.8039 35.05 52.3253L35.05 52.3253C34.3971 51.6722 33.338 51.6721 32.6846 52.3251C32.6846 52.3251 32.6845 52.3251 32.6845 52.3251M38.6361 52.3252L32.4722 54.9027C31.7019 54.1324 31.7019 52.8835 32.4724 52.1129L32.6845 52.3251M38.6361 52.3252C39.2891 51.6719 40.3482 51.6717 41.0016 52.3251C41.6547 52.9783 41.6549 54.0372 41.0018 54.6905C39.8902 55.8019 38.4144 56.4134 36.8429 56.4134C35.2713 56.4134 33.7956 55.8019 32.6844 54.6906L32.6844 54.6906C32.0313 54.0374 32.0312 52.9785 32.6845 52.3251M38.6361 52.3252L32.6845 52.3251" fill="#393939" stroke="#F1F1F1" stroke-width="0.6"/>
<path d="M51.4114 52.3251L51.4113 52.3251C50.7584 51.672 49.6993 51.6719 49.0459 52.3249C49.0459 52.3249 49.0459 52.3249 49.0459 52.3249M51.4114 52.3251L49.0459 52.3249M51.4114 52.3251C51.89 52.8037 52.5275 53.0677 53.2044 53.0677C53.8811 53.0677 54.5188 52.8035 54.9974 52.3249L51.4114 52.3251ZM49.0459 52.3249C48.3925 52.9783 48.3926 54.0372 49.0457 54.6903L49.0457 54.6904C50.1569 55.8017 51.6327 56.4132 53.2042 56.4132C54.7755 56.4132 56.2515 55.8017 57.3629 54.6905M49.0459 52.3249L57.3629 54.6905M57.3629 54.6905C58.0162 54.037 58.016 52.9781 57.3629 52.3249C56.7097 51.6719 55.6506 51.6719 54.9974 52.3249L57.3629 54.6905Z" fill="#393939" stroke="#F1F1F1" stroke-width="0.6"/>
<path d="M46.8167 63.5944C45.828 64.5833 44.2195 64.5833 43.2306 63.5944L46.8167 63.5944ZM46.8167 63.5944C47.4698 62.9415 48.5289 62.9414 49.1823 63.5944M46.8167 63.5944L49.1823 63.5944M49.1823 63.5944C49.1823 63.5944 49.1823 63.5944 49.1824 63.5945M49.1823 63.5944L49.1824 63.5945M49.1824 63.5945C49.8355 64.2476 49.8355 65.3067 49.1823 65.9601C48.0359 67.1064 46.5305 67.6796 45.0236 67.6796C43.517 67.6796 42.0115 67.1063 40.8651 65.9601C40.8651 65.9601 40.8651 65.9601 40.8651 65.9601L49.1824 63.5945ZM40.8651 63.5944C40.8651 63.5944 40.8652 63.5944 40.8652 63.5944C41.5183 62.9414 42.5775 62.9415 43.2306 63.5944L40.8651 63.5944Z" fill="#393939" stroke="#F1F1F1" stroke-width="0.6"/>
</g>
<defs>
<clipPath id="clip0">
<rect width="101" height="101" fill="#393939"/>
</clipPath>
</defs>
</svg>
