<svg width="77" height="77" viewBox="0 0 101 101" fill="none" xmlns="http://www.w3.org/2000/svg">
<path d="M44.3977 66.9652C44.7075 67.2127 45.0795 67.3339 45.4498 67.3339C45.9144 67.3339 46.3773 67.142 46.7089 66.7683L73.6423 36.4683C74.2601 35.7747 74.1978 34.7092 73.5026 34.0931C72.8057 33.4736 71.7435 33.5376 71.1257 34.2328L45.2545 63.3376L29.6686 50.8692C28.9447 50.2884 27.8825 50.4096 27.3035 51.1318C26.7227 51.859 26.8406 52.9178 27.5661 53.4986L44.3977 66.9652Z" fill="white"/>
<path d="M0 0V101H101V0H0ZM97.6333 97.6333H3.36667V3.36667H97.6333V97.6333Z" fill="white"/>
</svg>
