<svg width="101" height="101" viewBox="0 0 101 101" fill="none" xmlns="http://www.w3.org/2000/svg">
<g clip-path="url(#clip0)">
<path d="M15.3081 4.57495L15.3082 4.57493C15.9546 3.97758 16.7943 3.68577 17.6692 3.75467L17.6692 3.75468C19.2831 3.88199 20.5337 5.2998 20.5337 6.96906V25.4166C20.5337 26.076 20.8998 26.6808 21.4837 26.9868C21.4837 26.9868 21.4837 26.9868 21.4837 26.9868L21.3909 27.1639L15.3081 4.57495ZM15.3081 4.57495C14.6598 5.17425 14.301 5.9869 14.301 6.86116V25.4166C14.301 26.076 13.9351 26.6808 13.351 26.9868L13.4438 27.1639C14.0938 26.8235 14.501 26.1504 14.501 25.4166V6.86116C14.501 6.04349 14.8359 5.28382 15.4439 4.72182C16.0495 4.16217 16.8344 3.88955 17.6535 3.95406L15.3081 4.57495ZM27.2906 42.7029L27.2906 42.7029C30.3553 45.4914 32.1125 49.4494 32.1127 53.5616V99.0272C32.1127 100.006 31.3191 100.8 30.34 100.8H4.49487C3.51583 100.8 2.72222 100.006 2.72222 99.0272V53.5616C2.72222 49.4498 4.47944 45.4914 7.54407 42.7029L7.54414 42.7029C7.72921 42.5343 7.65721 42.2955 7.57072 42.1809C5.94839 40.0301 5.09118 37.4677 5.09118 34.7689C5.09118 30.5739 7.19913 26.7239 10.6649 24.4574L10.7555 24.3982V24.29V6.86116C10.7555 5.01465 11.5376 3.23203 12.9018 1.97126C14.2632 0.713031 16.1035 0.0750178 17.948 0.220355C21.3823 0.491432 24.079 3.45392 24.079 6.96926V24.29V24.3982L24.1696 24.4574C27.6354 26.7239 29.7433 30.5739 29.7433 34.7689C29.7433 37.4677 28.8861 40.0301 27.2638 42.1809L27.2637 42.181C27.1772 42.2958 27.1056 42.5344 27.2906 42.7029ZM27.4252 42.555C27.3501 42.4865 27.3674 42.3757 27.4235 42.3013C29.072 40.1158 29.9433 37.5111 29.9433 34.7689C29.9433 30.506 27.801 26.5932 24.279 24.29L27.4252 42.555ZM6.26733 97.0546V97.2546H6.46733H28.167H28.367H28.3672V97.0546H28.567V53.5614C28.567 50.4443 27.2315 47.4425 24.9042 45.325C24.6048 45.0526 24.3591 44.7433 24.1634 44.4108L24.1054 44.3123H23.991H10.8431H10.7287L10.6707 44.4108C10.475 44.7433 10.2293 45.0526 9.92988 45.325L10.0645 45.4729L9.92987 45.325C7.60257 47.4427 6.26733 50.4443 6.26733 53.5616V97.0546Z" fill="url(#paint0_linear)" stroke="#F1F1F1" stroke-width="0.4"/>
<path d="M12.6114 63.658V63.858H12.8114H23.996C24.975 63.858 25.7686 64.6516 25.7686 65.6308V91.7478C25.7686 92.7268 24.975 93.5204 23.996 93.5204H10.8387C9.8597 93.5204 9.06609 92.7268 9.06609 91.7478V57.4893C9.06609 56.5102 9.8597 55.7166 10.8387 55.7166C11.8178 55.7166 12.6114 56.5102 12.6114 57.4893V63.658ZM22.0233 89.9751H22.2233V89.7751V67.6035V67.4035H22.0233H12.8114H12.6114V67.6035V89.7751V89.9751H12.8114H22.0233Z" fill="url(#paint1_linear)" stroke="#F1F1F1" stroke-width="0.4"/>
<path d="M9.85584 52.1545L9.85584 52.1545C9.9514 52.2182 10.0542 52.2732 10.1606 52.3176C10.2694 52.3621 10.3794 52.3958 10.4926 52.4188C10.609 52.4421 10.7239 52.4543 10.8397 52.4543C10.9538 52.4543 11.0707 52.442 11.1846 52.4189C11.2988 52.3957 11.4106 52.3619 11.5164 52.3178C11.6226 52.2735 11.7259 52.2184 11.8243 52.1541C11.9204 52.0899 12.0124 52.0155 12.093 51.9349C12.4224 51.6054 12.6124 51.1474 12.6124 50.6817C12.6124 50.2139 12.4223 49.7558 12.093 49.4264C12.0137 49.3472 11.922 49.2744 11.8233 49.2066C11.7251 49.1425 11.6222 49.0876 11.5164 49.0435L9.85584 52.1545ZM9.85584 52.1545L9.85429 52.1535M9.85584 52.1545L9.85429 52.1535M9.85429 52.1535C9.75813 52.0907 9.66791 52.0166 9.58382 51.9342C9.25515 51.6052 9.06707 51.1475 9.06707 50.6817C9.06707 50.2141 9.25492 49.7583 9.58393 49.427C9.66697 49.3459 9.75755 49.273 9.85619 49.2066C9.95165 49.143 10.0544 49.0881 10.1606 49.0438C10.2694 48.9992 10.3795 48.9655 10.4928 48.9425L9.85429 52.1535Z" fill="url(#paint2_linear)" stroke="#F1F1F1" stroke-width="0.4"/>
<path d="M50.7519 3.75487C49.8766 3.68576 49.0372 3.97759 48.3908 4.57493L48.3908 4.57495C47.7425 5.17425 47.3836 5.9869 47.3836 6.86116V25.4166C47.3836 26.076 47.0177 26.6808 46.4337 26.9868L46.5265 27.1639M50.7519 3.75487L50.7361 3.95414L50.7519 3.75487C50.7519 3.75487 50.7519 3.75487 50.7519 3.75487ZM50.7519 3.75487C52.3658 3.88219 53.6164 5.30001 53.6164 6.96926V25.4168C53.6164 26.0762 53.9823 26.681 54.5663 26.987L54.4735 27.1641M54.4735 27.1641C53.8235 26.8237 53.4164 26.1506 53.4164 25.4168V6.96926C53.4164 5.39725 52.2391 4.07281 50.7361 3.95425C49.9167 3.88955 49.1322 4.16217 48.5266 4.72182C47.9186 5.28382 47.5836 6.04349 47.5836 6.86116V25.4166C47.5836 26.1504 47.1765 26.8235 46.5265 27.1639M54.4735 27.1641C57.3153 28.6529 59.0805 31.5669 59.0805 34.7687C59.0805 36.6467 58.4843 38.4298 57.3562 39.9254C57.2013 40.1306 57.0695 40.3456 56.9575 40.567M54.4735 27.1641L54.5663 26.987C57.4739 28.5102 59.2805 31.4923 59.2805 34.7687C59.2805 36.69 58.6702 38.5154 57.5158 40.0459L57.5158 40.0459C57.3686 40.241 57.243 40.4458 57.1359 40.6573L57.0804 40.767H56.9575H44.0421H43.9193L43.8637 40.6573C43.7566 40.446 43.631 40.2412 43.4838 40.0461L43.4838 40.0461C42.3294 38.5156 41.7192 36.6902 41.7192 34.7689C41.7196 31.4921 43.5261 28.51 46.4337 26.9868L46.5265 27.1639M46.5265 27.1639L56.9575 40.567M56.9575 40.567H44.0421H56.9575ZM60.373 42.7027L60.3733 42.7029C63.4379 45.4912 65.1951 49.4494 65.1955 53.5616V99.027C65.1955 100.006 64.4019 100.8 63.4229 100.8H37.5777C36.5987 100.8 35.8051 100.006 35.8051 99.027V53.5614C35.8051 49.4494 37.5623 45.4912 40.6269 42.7027L40.627 42.7027C40.8118 42.5344 40.7402 42.2956 40.6536 42.1809C39.0312 40.0301 38.174 37.4677 38.174 34.7689C38.174 30.5739 40.282 26.7239 43.7478 24.4574L43.8383 24.3982V24.29V6.86116C43.8383 5.01465 44.6204 3.23203 45.9846 1.97126L45.9846 1.97125C47.3459 0.713031 49.1859 0.0750173 51.0307 0.220357C54.465 0.491432 57.1617 3.45392 57.1617 6.96926V24.29V24.3982L57.2522 24.4574C60.718 26.7239 62.826 30.5739 62.826 34.7689C62.826 37.4677 61.969 40.0301 60.3466 42.1809C60.2595 42.2963 60.1888 42.5345 60.373 42.7027ZM39.3502 97.0546V97.2546H39.5502H61.4494H61.6494V97.0546V53.5614C61.6494 50.4441 60.3142 47.4425 57.9869 45.325C57.6874 45.0526 57.4417 44.7433 57.246 44.4108L57.188 44.3123H57.0737H43.9259H43.8116L43.7536 44.4108C43.5579 44.7433 43.3122 45.0526 43.0127 45.325C40.6854 47.4425 39.3502 50.4443 39.3502 53.5616V97.0546Z" fill="url(#paint3_linear)" stroke="#F1F1F1" stroke-width="0.4"/>
<path d="M45.6943 63.658V63.858H45.8943H57.0786C58.0576 63.858 58.8513 64.6516 58.8513 65.6308V91.7478C58.8513 92.7268 58.0577 93.5204 57.0786 93.5204H43.9216C42.9426 93.5204 42.1489 92.7268 42.1489 91.7478V57.4893C42.1489 56.5102 42.9426 55.7166 43.9216 55.7166C44.9006 55.7166 45.6943 56.5102 45.6943 57.4893V63.658ZM55.106 89.9751H55.306V89.7751V67.6035V67.4035H55.106H45.8943H45.6943V67.6035V89.7751V89.9751H45.8943H55.106Z" fill="url(#paint4_linear)" stroke="#F1F1F1" stroke-width="0.4"/>
<path d="M45.1729 49.4269L45.1729 49.4269L45.1745 49.4284C45.2556 49.5095 45.3302 49.6 45.3963 49.6962C45.4604 49.7943 45.5152 49.8972 45.5593 50.0031C45.6032 50.1083 45.6368 50.2195 45.66 50.3331C45.6817 50.4509 45.6939 50.5663 45.6939 50.6817C45.6939 51.1474 45.5039 51.6054 45.1745 51.9349C45.0928 52.0165 45.0028 52.0905 44.9065 52.1536L44.9065 52.1536L44.9051 52.1545C44.8095 52.2182 44.7067 52.2732 44.6003 52.3176C44.492 52.3619 44.38 52.3957 44.2661 52.4189C44.1521 52.442 44.0353 52.4543 43.9212 52.4543C43.8071 52.4543 43.6903 52.442 43.5763 52.4189C43.4622 52.3957 43.3504 52.3619 43.2446 52.3178L43.2435 52.3174C43.1356 52.2732 43.033 52.2183 42.9373 52.1545L42.9373 52.1545L42.9359 52.1536C42.8398 52.0907 42.75 52.0167 42.6681 51.935C42.3382 51.6032 42.1485 51.1469 42.1485 50.6817C42.1485 50.5659 42.1608 50.4509 42.1841 50.3345C42.2073 50.2204 42.241 50.1087 42.2851 50.0031C42.3293 49.8968 42.3844 49.7935 42.4488 49.6951C42.5122 49.6001 42.5865 49.5099 42.668 49.4284L42.668 49.4284L42.6695 49.4269C42.749 49.3456 42.8386 49.2733 42.9377 49.2066C43.0332 49.1429 43.1358 49.0881 43.2435 49.044L43.2435 49.044L43.2446 49.0435C43.3503 48.9995 43.4621 48.9657 43.5762 48.9425C43.8046 48.8965 44.04 48.8966 44.2661 48.9425C44.38 48.9656 44.492 48.9994 44.6003 49.0438C44.7066 49.0881 44.8093 49.143 44.9047 49.2066C45.0038 49.2733 45.0934 49.3456 45.1729 49.4269Z" fill="url(#paint5_linear)" stroke="#F1F1F1" stroke-width="0.4"/>
<path d="M81.4736 4.575L81.4736 4.57498C82.12 3.97764 82.9594 3.68581 83.8345 3.75492M81.4736 4.575L83.8187 3.9543M81.4736 4.575C80.8253 5.1743 80.4664 5.98694 80.4664 6.86121V25.4166C80.4664 26.0761 80.1006 26.6809 79.5165 26.9868L79.6093 27.164M81.4736 4.575L79.6093 27.164M83.8345 3.75492L83.8187 3.9543M83.8345 3.75492C83.8345 3.75492 83.8345 3.75492 83.8345 3.75492L83.8187 3.9543M83.8345 3.75492C85.4486 3.88224 86.6992 5.30005 86.6992 6.96931V25.4168C86.6992 26.0762 87.0652 26.681 87.6492 26.987M83.8187 3.9543C85.3219 4.07286 86.4992 5.3973 86.4992 6.96931V25.4168C86.4992 26.1506 86.9065 26.8237 87.5563 27.1642M87.6492 26.987L87.5563 27.1642M87.6492 26.987C87.6492 26.987 87.6492 26.987 87.6492 26.987L87.5563 27.1642M87.6492 26.987C90.5567 28.5102 92.3633 31.4924 92.3633 34.7688C92.3633 36.6901 91.7529 38.5155 90.5985 40.0459M87.5563 27.1642L76.7263 39.9253L76.5666 40.0457M90.5985 40.0459L90.4388 39.9255L90.5985 40.0459C90.5985 40.0459 90.5985 40.0459 90.5985 40.0459ZM90.5985 40.0459C90.4514 40.241 90.3258 40.4459 90.2187 40.6572L90.1632 40.7668H90.0403H77.1249H77.0021L76.9465 40.6572C76.8395 40.4459 76.7137 40.2408 76.5666 40.0457M76.5666 40.0457C75.4124 38.5155 74.802 36.6901 74.802 34.7686C74.802 31.4922 76.6089 28.51 79.5165 26.9868L79.6093 27.164M76.5666 40.0457L79.6093 27.164M93.456 42.7029L93.4561 42.703C96.5207 45.4914 98.278 49.4496 98.2781 53.5617V99.0271C98.2781 100.006 97.4845 100.8 96.5055 100.8H70.6603C69.6813 100.8 68.8877 100.006 68.8877 99.0271V53.5615C68.8877 49.4495 70.6451 45.4912 73.7097 42.7028L73.7098 42.7027C73.8946 42.5345 73.823 42.2957 73.7364 42.1809C72.1141 40.0302 71.2568 37.468 71.2568 34.769C71.2568 30.5739 73.365 26.7239 76.8306 24.4574L76.9211 24.3982V24.29V6.86121C76.9211 5.01471 77.7034 3.23208 79.0674 1.97129C80.4287 0.713065 82.2685 0.0748718 84.1135 0.220399C87.5478 0.49167 90.2445 3.45397 90.2445 6.96931V24.29V24.3982L90.335 24.4574C93.8008 26.7239 95.9088 30.5739 95.9088 34.769C95.9088 37.4678 95.0516 40.0302 93.4293 42.1809C93.3425 42.2959 93.2712 42.5346 93.456 42.7029ZM72.4328 97.0546V97.2546H72.6328H94.3324H94.5324H94.5326V97.0546H94.7324V53.5615C94.7324 50.4443 93.3972 47.4425 91.0699 45.3251C90.7704 45.0526 90.5247 44.7434 90.3291 44.4109L90.2711 44.3123H90.1567H77.0087H76.8944L76.8364 44.4109C76.6407 44.7434 76.395 45.0526 76.0955 45.3251C73.768 47.4427 72.4328 50.4443 72.4328 53.5617V97.0546Z" fill="url(#paint6_linear)" stroke="#F1F1F1" stroke-width="0.4"/>
<path d="M78.7769 63.658V63.858H78.9769H90.1614C91.1405 63.858 91.9341 64.6516 91.9341 65.6308V91.7478C91.9341 92.7268 91.1405 93.5204 90.1614 93.5204H77.0042C76.0252 93.5204 75.2316 92.7268 75.2316 91.7478V57.4893C75.2316 56.5102 76.0252 55.7166 77.0042 55.7166C77.9833 55.7166 78.7769 56.5102 78.7769 57.4893V63.658ZM88.1888 89.9751H88.3888V89.7751V67.6035V67.4035H88.1888H78.9769H78.7769V67.6035V89.7751V89.9751H78.9769H88.1888Z" fill="url(#paint7_linear)" stroke="#F1F1F1" stroke-width="0.4"/>
<path d="M75.3636 51.7765C75.4366 51.883 75.5174 51.9856 75.6102 52.0763C75.7009 52.1671 75.8015 52.2499 75.91 52.3209C76.0163 52.392 76.1309 52.4531 76.2493 52.5024M75.3636 51.7765L75.5309 51.6669C75.5305 51.6664 75.5301 51.6658 75.5298 51.6652M75.3636 51.7765C75.2926 51.668 75.2314 51.5536 75.1821 51.4352C75.1328 51.3169 75.0953 51.1926 75.0696 51.0663M75.3636 51.7765L75.5286 51.6634C75.529 51.664 75.5294 51.6646 75.5298 51.6652M75.5298 51.6652C75.5975 51.7639 75.6698 51.8549 75.75 51.9334L75.7516 51.9349L75.7516 51.9349C75.8332 52.0165 75.9232 52.0905 76.0195 52.1536L76.0211 52.1546L76.0211 52.1546C76.1163 52.2182 76.2192 52.2732 76.3257 52.3176M75.5298 51.6652C75.4657 51.5671 75.4108 51.4641 75.3667 51.3583C75.3227 51.2526 75.2889 51.1409 75.2657 51.0268M76.3257 52.3176C76.3255 52.3175 76.3253 52.3174 76.3251 52.3174L76.2493 52.5024M76.3257 52.3176C76.3259 52.3177 76.326 52.3177 76.3262 52.3178L76.2493 52.5024M76.3257 52.3176C76.4345 52.3621 76.5445 52.3958 76.6577 52.4188M76.2493 52.5024C76.3696 52.5517 76.4919 52.5892 76.6182 52.6149M76.6182 52.6149L76.6574 52.4187C76.6575 52.4188 76.6576 52.4188 76.6577 52.4188M76.6182 52.6149C76.7464 52.6405 76.8766 52.6543 77.0048 52.6543C77.133 52.6543 77.2632 52.6405 77.3895 52.6149C77.5157 52.5892 77.64 52.5517 77.7584 52.5024C77.8767 52.4531 77.9931 52.392 78.0996 52.3209C78.2081 52.2499 78.3087 52.1671 78.3995 52.0763C78.4902 51.9856 78.5731 51.883 78.6441 51.7765M76.6182 52.6149L76.658 52.4189C76.6579 52.4188 76.6578 52.4188 76.6577 52.4188M76.6577 52.4188C76.774 52.442 76.8909 52.4543 77.0048 52.4543C77.1189 52.4543 77.2358 52.442 77.3497 52.4189C77.4639 52.3957 77.5757 52.3619 77.6815 52.3178C77.7889 52.273 77.8938 52.2178 77.9887 52.1545L77.9901 52.1536L77.9901 52.1536C78.0865 52.0905 78.1765 52.0165 78.2581 51.9349C78.3386 51.8544 78.4131 51.7624 78.4772 51.6662M78.4772 51.6662C78.4771 51.6665 78.4769 51.6667 78.4768 51.6669L78.6441 51.7765M78.4772 51.6662C78.4774 51.666 78.4775 51.6658 78.4777 51.6655L78.6441 51.7765M78.4772 51.6662C78.5416 51.5678 78.5967 51.4645 78.641 51.3583C78.685 51.2526 78.7188 51.1409 78.742 51.0268M78.6441 51.7765C78.7151 51.668 78.7763 51.5536 78.8256 51.4352C78.8749 51.3169 78.9124 51.1926 78.938 51.0663M78.938 51.0663L78.7419 51.0271C78.7419 51.027 78.7419 51.0269 78.742 51.0268M78.938 51.0663C78.9637 50.9381 78.9775 50.8099 78.9775 50.6817C78.9775 50.5515 78.9637 50.4232 78.938 50.295M78.938 51.0663L78.742 51.0265C78.742 51.0266 78.742 51.0267 78.742 51.0268M78.742 51.0268C78.7652 50.9103 78.7775 50.7954 78.7775 50.6817C78.7775 50.5659 78.7652 50.4509 78.742 50.3345M78.938 50.295L78.742 50.3348C78.742 50.3347 78.742 50.3346 78.742 50.3345M78.938 50.295L78.7419 50.3342C78.7419 50.3343 78.7419 50.3344 78.742 50.3345M78.938 50.295L77.9884 49.2066C78.0872 49.2731 78.1771 49.3456 78.2573 49.4257C78.3398 49.51 78.4139 49.6003 78.4768 49.6964L78.4768 49.6964L78.4777 49.6978C78.5415 49.7935 78.5966 49.8965 78.641 50.0031C78.685 50.1087 78.7188 50.2204 78.742 50.3345M75.0696 51.0663L77.35 48.9425C77.1217 48.8965 76.8864 48.8965 76.6582 48.9424C76.546 48.9656 76.434 48.9994 76.3257 49.0438C76.2195 49.0881 76.1168 49.143 76.0213 49.2066C75.9222 49.2733 75.832 49.3461 75.7516 49.4264C75.6691 49.5089 75.5964 49.5991 75.5298 49.6981C75.466 49.7937 75.411 49.8966 75.3667 50.0031C75.3227 50.1087 75.2889 50.2204 75.2657 50.3345C75.2428 50.4489 75.2322 50.5639 75.2322 50.6817C75.2322 50.7974 75.2428 50.9123 75.2657 51.0268M75.0696 51.0663L75.2656 51.0265C75.2657 51.0266 75.2657 51.0267 75.2657 51.0268M75.0696 51.0663L75.2658 51.0271C75.2657 51.027 75.2657 51.0269 75.2657 51.0268" fill="url(#paint8_linear)" stroke="#F1F1F1" stroke-width="0.4"/>
</g>
<defs>
<linearGradient id="paint0_linear" x1="17.4174" y1="0" x2="17.4174" y2="101" gradientUnits="userSpaceOnUse">
<stop stop-color="#7F46C5"/>
<stop offset="1" stop-color="#1C5DA9"/>
</linearGradient>
<linearGradient id="paint1_linear" x1="17.4174" y1="55.5166" x2="17.4174" y2="93.7204" gradientUnits="userSpaceOnUse">
<stop stop-color="#7F46C5"/>
<stop offset="1" stop-color="#1C5DA9"/>
</linearGradient>
<linearGradient id="paint2_linear" x1="10.8397" y1="48.708" x2="10.8397" y2="52.6543" gradientUnits="userSpaceOnUse">
<stop stop-color="#7F46C5"/>
<stop offset="1" stop-color="#1C5DA9"/>
</linearGradient>
<linearGradient id="paint3_linear" x1="50.5003" y1="0" x2="50.5003" y2="101" gradientUnits="userSpaceOnUse">
<stop stop-color="#7F46C5"/>
<stop offset="1" stop-color="#1C5DA9"/>
</linearGradient>
<linearGradient id="paint4_linear" x1="50.5001" y1="55.5166" x2="50.5001" y2="93.7204" gradientUnits="userSpaceOnUse">
<stop stop-color="#7F46C5"/>
<stop offset="1" stop-color="#1C5DA9"/>
</linearGradient>
<linearGradient id="paint5_linear" x1="43.9212" y1="48.708" x2="43.9212" y2="52.6543" gradientUnits="userSpaceOnUse">
<stop stop-color="#7F46C5"/>
<stop offset="1" stop-color="#1C5DA9"/>
</linearGradient>
<linearGradient id="paint6_linear" x1="83.5829" y1="0" x2="83.5829" y2="101" gradientUnits="userSpaceOnUse">
<stop stop-color="#7F46C5"/>
<stop offset="1" stop-color="#1C5DA9"/>
</linearGradient>
<linearGradient id="paint7_linear" x1="83.5828" y1="55.5166" x2="83.5828" y2="93.7204" gradientUnits="userSpaceOnUse">
<stop stop-color="#7F46C5"/>
<stop offset="1" stop-color="#1C5DA9"/>
</linearGradient>
<linearGradient id="paint8_linear" x1="77.0048" y1="48.708" x2="77.0048" y2="52.6543" gradientUnits="userSpaceOnUse">
<stop stop-color="#7F46C5"/>
<stop offset="1" stop-color="#1C5DA9"/>
</linearGradient>
<clipPath id="clip0">
<rect width="101" height="101" fill="white"/>
</clipPath>
</defs>
</svg>
