<svg width="101" height="101" viewBox="0 0 101 101" fill="none" xmlns="http://www.w3.org/2000/svg">
<g clip-path="url(#clip0)">
<path d="M64.0466 85.7374H56.4773L52.5281 81.967C51.9309 81.3976 50.9855 81.4192 50.4152 82.0163C49.8458 82.6135 49.8674 83.559 50.4646 84.1285L52.1498 85.7374H13.411L26.5777 73.2642C28.2568 71.673 30.4567 70.7969 32.77 70.7969C35.084 70.7969 37.2832 71.673 38.963 73.2642L45.3888 79.3517C45.9875 79.9196 46.9338 79.8942 47.5009 79.2947C48.0689 78.696 48.0427 77.7505 47.4439 77.1826L41.0182 71.0951C38.7812 68.976 35.8515 67.8086 32.77 67.8086C29.6885 67.8086 26.7595 68.976 24.5226 71.0951L9.06651 85.7374H1.49413C0.668854 85.7374 0 86.4063 0 87.2316C0 88.0568 0.668854 88.7257 1.49413 88.7257H64.0466C64.8719 88.7257 65.5407 88.0568 65.5407 87.2316C65.5407 86.4063 64.8719 85.7374 64.0466 85.7374Z" fill="url(#paint0_linear)"/>
<path d="M34.7627 60.1389C34.7627 60.9087 34.1377 61.5328 33.3679 61.5328C32.5974 61.5328 31.9732 60.9087 31.9732 60.1389C31.9732 59.3683 32.5974 58.7441 33.3679 58.7441C34.1377 58.7441 34.7627 59.3683 34.7627 60.1389Z" fill="url(#paint1_linear)"/>
<path d="M34.1647 73.885C34.1647 74.6548 33.5406 75.2797 32.77 75.2797C32.0002 75.2797 31.376 74.6548 31.376 73.885C31.376 73.1144 32.0002 72.4902 32.77 72.4902C33.5406 72.4902 34.1647 73.1144 34.1647 73.885Z" fill="url(#paint2_linear)"/>
<path d="M34.5631 81.8527C34.5631 82.6225 33.9389 83.2475 33.1684 83.2475C32.3986 83.2475 31.7744 82.6225 31.7744 81.8527C31.7744 81.0822 32.3986 80.458 33.1684 80.458C33.9389 80.458 34.5631 81.0822 34.5631 81.8527Z" fill="url(#paint3_linear)"/>
<path d="M41.3364 79.2629C41.3364 80.0327 40.7122 80.6576 39.9417 80.6576C39.1719 80.6576 38.5477 80.0327 38.5477 79.2629C38.5477 78.4931 39.1719 77.8682 39.9417 77.8682C40.7122 77.8682 41.3364 78.4931 41.3364 79.2629Z" fill="url(#paint4_linear)"/>
<path d="M27.3914 78.6645C27.3914 79.435 26.7673 80.0592 25.9967 80.0592C25.2269 80.0592 24.6027 79.435 24.6027 78.6645C24.6027 77.8947 25.2269 77.2705 25.9967 77.2705C26.7673 77.2705 27.3914 77.8947 27.3914 78.6645Z" fill="url(#paint5_linear)"/>
<path d="M33.4049 49.3623C33.9828 49.2675 34.449 48.8013 34.5438 48.2234C34.7002 47.2694 33.8873 46.4557 32.9326 46.6121C32.3546 46.7069 31.8884 47.1731 31.7937 47.751C31.6372 48.7058 32.4502 49.5187 33.4049 49.3623Z" fill="url(#paint6_linear)"/>
<path d="M36.3932 41.1953C36.9711 41.1005 37.4373 40.6344 37.5321 40.0564C37.6885 39.1017 36.8748 38.2887 35.9208 38.4452C35.3429 38.54 34.8767 39.0061 34.7819 39.5841C34.6255 40.538 35.4385 41.3518 36.3932 41.1953Z" fill="url(#paint7_linear)"/>
<path d="M38.7835 54.1436C39.3614 54.0488 39.8276 53.5826 39.9224 53.0047C40.0788 52.0499 39.2659 51.237 38.3111 51.3934C37.7332 51.4882 37.267 51.9544 37.1722 52.5323C37.0158 53.4863 37.8295 54.3 38.7835 54.1436Z" fill="url(#paint8_linear)"/>
<path d="M26.5576 56.7324C27.5124 56.8889 28.3253 56.0751 28.1689 55.1212C28.0741 54.5433 27.6079 54.0771 27.03 53.9823C26.0753 53.8259 25.2623 54.6388 25.4187 55.5935C25.5135 56.1715 25.9797 56.6377 26.5576 56.7324Z" fill="url(#paint9_linear)"/>
<path d="M68.8272 48.2854H60.4604C59.0872 48.2854 57.9707 47.1688 57.9707 45.7957C57.9707 42.775 55.5126 40.3169 52.4919 40.3169H51.9941V23.3845H52.4919C55.5126 23.3845 57.9707 20.9263 57.9707 17.9057C57.9707 16.5326 59.0872 15.416 60.4604 15.416H99.5059C100.331 15.416 101 14.7471 101 13.9219C101 13.0966 100.331 12.4277 99.5059 12.4277H60.4604C57.4397 12.4277 54.9824 14.8851 54.9824 17.9057C54.9824 19.2789 53.8651 20.3962 52.4919 20.3962H51.9941V19.8984C51.9941 19.0731 51.3253 18.4043 50.5 18.4043H42.5315C41.7063 18.4043 41.0374 19.0731 41.0374 19.8984V43.8038C41.0374 44.629 41.7063 45.2979 42.5315 45.2979H50.5C51.3253 45.2979 51.9941 44.629 51.9941 43.8038V43.3052H52.4919C53.8651 43.3052 54.9824 44.4225 54.9824 45.7957C54.9824 48.8163 57.4397 51.2737 60.4604 51.2737H68.8272C69.6525 51.2737 70.3213 50.6048 70.3213 49.7795C70.3213 48.9542 69.6525 48.2854 68.8272 48.2854ZM49.0059 42.3096H44.0257V21.3925H49.0059V42.3096Z" fill="url(#paint10_linear)"/>
<path d="M99.5059 48.2852H75.8001C74.9748 48.2852 74.306 48.954 74.306 49.7793C74.306 50.6046 74.9748 51.2734 75.8001 51.2734H99.5059C100.331 51.2734 101 50.6046 101 49.7793C101 48.954 100.331 48.2852 99.5059 48.2852Z" fill="url(#paint11_linear)"/>
<path d="M88.6486 31.8502C88.6486 26.1934 84.0467 21.5908 78.3892 21.5908C72.7325 21.5908 68.1299 26.1934 68.1299 31.8502C68.1299 37.5069 72.7325 42.1095 78.3892 42.1095C84.0467 42.1095 88.6486 37.5069 88.6486 31.8502ZM71.1181 31.8502C71.1181 27.8409 74.3799 24.5791 78.3892 24.5791C82.3992 24.5791 85.6611 27.8409 85.6611 31.8502C85.6611 35.8594 82.3992 39.1213 78.3892 39.1213C74.3799 39.1213 71.1181 35.8594 71.1181 31.8502Z" fill="url(#paint12_linear)"/>
</g>
<defs>
<linearGradient id="paint0_linear" x1="32.7704" y1="67.8086" x2="32.7704" y2="88.7257" gradientUnits="userSpaceOnUse">
<stop stop-color="#7F46C5"/>
<stop offset="1" stop-color="#1C5DA9"/>
</linearGradient>
<linearGradient id="paint1_linear" x1="33.3679" y1="58.7441" x2="33.3679" y2="61.5328" gradientUnits="userSpaceOnUse">
<stop stop-color="#7F46C5"/>
<stop offset="1" stop-color="#1C5DA9"/>
</linearGradient>
<linearGradient id="paint2_linear" x1="32.7704" y1="72.4902" x2="32.7704" y2="75.2797" gradientUnits="userSpaceOnUse">
<stop stop-color="#7F46C5"/>
<stop offset="1" stop-color="#1C5DA9"/>
</linearGradient>
<linearGradient id="paint3_linear" x1="33.1688" y1="80.458" x2="33.1688" y2="83.2475" gradientUnits="userSpaceOnUse">
<stop stop-color="#7F46C5"/>
<stop offset="1" stop-color="#1C5DA9"/>
</linearGradient>
<linearGradient id="paint4_linear" x1="39.942" y1="77.8682" x2="39.942" y2="80.6576" gradientUnits="userSpaceOnUse">
<stop stop-color="#7F46C5"/>
<stop offset="1" stop-color="#1C5DA9"/>
</linearGradient>
<linearGradient id="paint5_linear" x1="25.9971" y1="77.2705" x2="25.9971" y2="80.0592" gradientUnits="userSpaceOnUse">
<stop stop-color="#7F46C5"/>
<stop offset="1" stop-color="#1C5DA9"/>
</linearGradient>
<linearGradient id="paint6_linear" x1="33.1687" y1="46.5928" x2="33.1687" y2="49.3817" gradientUnits="userSpaceOnUse">
<stop stop-color="#7F46C5"/>
<stop offset="1" stop-color="#1C5DA9"/>
</linearGradient>
<linearGradient id="paint7_linear" x1="36.157" y1="38.4258" x2="36.157" y2="41.2147" gradientUnits="userSpaceOnUse">
<stop stop-color="#7F46C5"/>
<stop offset="1" stop-color="#1C5DA9"/>
</linearGradient>
<linearGradient id="paint8_linear" x1="38.5473" y1="51.374" x2="38.5473" y2="54.1629" gradientUnits="userSpaceOnUse">
<stop stop-color="#7F46C5"/>
<stop offset="1" stop-color="#1C5DA9"/>
</linearGradient>
<linearGradient id="paint9_linear" x1="26.7938" y1="53.9629" x2="26.7938" y2="56.7518" gradientUnits="userSpaceOnUse">
<stop stop-color="#7F46C5"/>
<stop offset="1" stop-color="#1C5DA9"/>
</linearGradient>
<linearGradient id="paint10_linear" x1="71.0187" y1="12.4277" x2="71.0187" y2="51.2737" gradientUnits="userSpaceOnUse">
<stop stop-color="#7F46C5"/>
<stop offset="1" stop-color="#1C5DA9"/>
</linearGradient>
<linearGradient id="paint11_linear" x1="87.653" y1="48.2852" x2="87.653" y2="51.2734" gradientUnits="userSpaceOnUse">
<stop stop-color="#7F46C5"/>
<stop offset="1" stop-color="#1C5DA9"/>
</linearGradient>
<linearGradient id="paint12_linear" x1="78.3892" y1="21.5908" x2="78.3892" y2="42.1095" gradientUnits="userSpaceOnUse">
<stop stop-color="#7F46C5"/>
<stop offset="1" stop-color="#1C5DA9"/>
</linearGradient>
<clipPath id="clip0">
<rect width="101" height="101" fill="white"/>
</clipPath>
</defs>
</svg>
