<svg width="101" height="101" viewBox="0 0 101 101" fill="none" xmlns="http://www.w3.org/2000/svg">
<path d="M88.1545 46.0615C88.9717 46.0615 89.634 45.3993 89.634 44.582V7.39746C89.634 3.3184 86.3156 0 82.2365 0H18.7635C14.6845 0 11.3661 3.3184 11.3661 7.39746V16.3401C11.3661 17.1574 12.0283 17.8196 12.8455 17.8196C13.6626 17.8196 14.325 17.1574 14.325 16.3401V7.39746C14.325 4.95018 16.3162 2.95898 18.7635 2.95898H82.2365C84.6838 2.95898 86.675 4.95018 86.675 7.39746V43.2511C83.3025 43.9386 80.757 46.9277 80.757 50.5C80.757 54.0723 83.3025 57.0615 86.675 57.7489V78.6597C86.675 79.4769 87.3372 80.1392 88.1545 80.1392C88.9717 80.1392 89.634 79.4769 89.634 78.6597V56.418C89.634 55.6007 88.9717 54.9385 88.1545 54.9385C85.7072 54.9385 83.716 52.9473 83.716 50.5C83.716 48.0527 85.7072 46.0615 88.1545 46.0615Z" fill="url(#paint0_linear)"/>
<path d="M88.1545 83.1361C87.3372 83.1361 86.675 83.7984 86.675 84.6156V93.6023C86.675 96.0495 84.6838 98.0407 82.2365 98.0407H18.7635C16.3162 98.0407 14.325 96.0495 14.325 93.6023V57.7487C17.6975 57.0612 20.243 54.072 20.243 50.4997C20.243 46.9275 17.6975 43.9383 14.325 43.2508V22.2578C14.325 21.4405 13.6626 20.7783 12.8455 20.7783C12.0283 20.7783 11.3661 21.4405 11.3661 22.2578V44.5818C11.3661 45.399 12.0283 46.0613 12.8455 46.0613C15.2928 46.0613 17.284 48.0525 17.284 50.4997C17.284 52.947 15.2928 54.9382 12.8455 54.9382C12.0283 54.9382 11.3661 55.6004 11.3661 56.4177V93.6023C11.3661 97.6813 14.6845 101 18.7635 101H82.2365C86.3156 101 89.634 97.6813 89.634 93.6023V84.6156C89.634 83.7986 88.9715 83.1361 88.1545 83.1361Z" fill="url(#paint1_linear)"/>
<path d="M50.5 16.7842C49.6827 16.7842 49.0205 17.4464 49.0205 18.2637V82.7368C49.0205 83.554 49.6827 84.2163 50.5 84.2163C51.3173 84.2163 51.9795 83.554 51.9795 82.7368V18.2637C51.9795 17.4464 51.3173 16.7842 50.5 16.7842Z" fill="url(#paint2_linear)"/>
<path d="M44.7438 15.0232C44.7436 15.0226 44.7434 15.022 44.7432 15.0216C44.7051 14.9369 44.6645 14.8531 44.6223 14.7697C44.616 14.7572 44.6106 14.7446 44.6041 14.7324C44.5558 14.6379 44.5049 14.5444 44.4514 14.4519C44.398 14.3594 44.3424 14.2686 44.2848 14.1794C44.2773 14.1676 44.269 14.1566 44.2613 14.1449C44.2102 14.067 44.1581 13.9901 44.1041 13.9149C44.1027 13.9129 44.1011 13.9112 44.0997 13.9092C43.2594 12.7447 42.0547 11.9109 40.649 11.5341C39.243 11.1577 37.7833 11.2773 36.4736 11.8655C36.4713 11.8667 36.4687 11.8675 36.4661 11.8687C36.3821 11.9065 36.2988 11.947 36.216 11.9888C36.2032 11.9951 36.1902 12.0008 36.1775 12.0074C36.083 12.0557 35.9895 12.1066 35.897 12.16L30.7981 15.1038C30.7979 15.104 30.7975 15.1042 30.7973 15.1044L25.6996 18.0476C24.2508 18.8838 23.2146 20.2343 22.7818 21.8501C22.349 23.4657 22.5711 25.1533 23.4075 26.6019C24.2439 28.0502 25.5944 29.0864 27.21 29.5194C27.7496 29.664 28.2972 29.7356 28.8412 29.7356C29.9264 29.7356 30.9973 29.4512 31.962 28.8939L37.0601 25.9505C37.0603 25.9503 37.0605 25.9503 37.0607 25.9501L42.1594 23.0063C42.2519 22.9528 42.3429 22.8972 42.432 22.8396C42.4435 22.8323 42.4543 22.8242 42.4656 22.8167C42.5439 22.7654 42.6212 22.713 42.6968 22.6587C42.6974 22.6583 42.698 22.6577 42.6985 22.6573C43.865 21.817 44.7002 20.6111 45.0772 19.2036C45.4543 17.7961 45.3338 16.3342 44.7438 15.0232ZM30.4829 26.3312C29.7189 26.7723 28.8286 26.8899 27.9764 26.6612C27.1242 26.4328 26.4117 25.8862 25.9706 25.122C25.5291 24.358 25.4118 23.4679 25.6404 22.6157C25.8686 21.7635 26.4152 21.051 27.1795 20.6099L30.9969 18.4059L34.3004 24.1272L30.4829 26.3312ZM41.2222 20.0526C41.222 20.0528 41.2218 20.053 41.2216 20.0532C41.1494 20.1173 41.0727 20.1773 40.994 20.2355C40.9827 20.2438 40.9725 20.2535 40.961 20.2615C40.8711 20.3262 40.7774 20.3872 40.6793 20.4438L36.8618 22.6479L33.5584 16.9266L37.3769 14.7223C37.4647 14.6716 37.5542 14.6272 37.6444 14.5854C37.6663 14.5754 37.6884 14.5653 37.7105 14.5556C37.8006 14.5164 37.8916 14.4799 37.9835 14.4491C37.988 14.4475 37.9928 14.4465 37.9975 14.445C38.0865 14.4158 38.1762 14.3915 38.2664 14.3702C38.2879 14.3651 38.3094 14.3599 38.3309 14.3554C38.425 14.3351 38.5193 14.3181 38.614 14.3063C38.6215 14.3053 38.629 14.3051 38.6364 14.3041C38.7254 14.2937 38.8146 14.2875 38.9037 14.2844C38.9245 14.2836 38.945 14.2828 38.9657 14.2824C39.061 14.2808 39.1562 14.2824 39.2509 14.2889C39.2602 14.2895 39.2695 14.2909 39.2787 14.2917C39.3653 14.2984 39.4514 14.309 39.537 14.3225C39.5583 14.3258 39.5794 14.329 39.6007 14.3327C39.6938 14.3493 39.7865 14.3686 39.8778 14.3931C39.8853 14.3951 39.8928 14.3976 39.9001 14.3998C39.9846 14.4229 40.0676 14.4499 40.1499 14.4797C40.171 14.4872 40.1919 14.4949 40.2128 14.5028C40.3008 14.5365 40.388 14.573 40.473 14.6142C40.4791 14.6172 40.485 14.6207 40.4913 14.6237C40.5704 14.6625 40.6476 14.7056 40.7235 14.7507C40.7436 14.7628 40.7638 14.7748 40.7837 14.7872C40.8638 14.8373 40.9427 14.89 41.0186 14.9472C41.0234 14.9508 41.0277 14.9547 41.0324 14.9583C41.104 15.0127 41.1729 15.0711 41.2402 15.1316C41.2583 15.1478 41.2763 15.1644 41.2938 15.181C41.3638 15.2469 41.4321 15.3151 41.4968 15.3879C41.4992 15.3905 41.5011 15.3934 41.5035 15.396C41.5658 15.4666 41.6244 15.5412 41.6812 15.6179C41.6962 15.638 41.7108 15.6585 41.7254 15.6791C41.7826 15.7603 41.8381 15.8436 41.8886 15.9314C41.945 16.0292 41.9959 16.1288 42.0413 16.2296C42.0484 16.2456 42.0535 16.2622 42.0604 16.2782C42.0977 16.3648 42.1332 16.4517 42.1626 16.5399C42.1638 16.5435 42.1645 16.5472 42.1657 16.551C42.5758 17.7967 42.2032 19.1813 41.2222 20.0526Z" fill="url(#paint3_linear)"/>
<path d="M44.4514 34.4338C43.6152 32.9851 42.2648 31.9488 40.6492 31.516C39.0328 31.0828 37.3459 31.3052 35.8972 32.1416L30.7983 35.0854C30.7981 35.0855 30.7977 35.0857 30.7975 35.0859L25.6998 38.0291C24.251 38.8654 23.2148 40.216 22.782 41.8316C22.3492 43.4476 22.5713 45.1352 23.4077 46.5838C24.2439 48.0325 25.5944 49.0687 27.2102 49.5015C27.7496 49.6459 28.297 49.7175 28.841 49.7175C29.9262 49.7175 30.9973 49.4331 31.962 48.8758L42.1594 42.9884C43.5176 42.2045 44.5132 40.9684 44.989 39.4856C45.0208 39.3867 45.0501 39.2867 45.0772 39.1857C45.51 37.5701 45.2879 35.8825 44.4514 34.4338ZM30.4829 46.3133C29.7189 46.7544 28.8286 46.8718 27.9764 46.6433C27.1242 46.4151 26.4117 45.8685 25.9706 45.1043C25.5291 44.3403 25.4118 43.45 25.6404 42.5976C25.8686 41.7454 26.4152 41.0329 27.1795 40.5918L30.9969 38.3878L34.3004 44.1093L30.4829 46.3133ZM40.6801 40.4257L36.8626 42.6296L33.5592 36.9081L37.3767 34.704C37.4619 34.6553 37.5491 34.6117 37.6371 34.5705C37.6586 34.5604 37.6801 34.5508 37.7018 34.5411C37.8797 34.4628 38.0626 34.4006 38.249 34.3551C38.2703 34.3499 38.2918 34.3448 38.3131 34.3401C38.5011 34.2983 38.6921 34.273 38.8846 34.2647C38.9063 34.2637 38.9278 34.2632 38.9497 34.2626C39.1418 34.2582 39.335 34.271 39.5273 34.3006C39.5504 34.3042 39.5737 34.3081 39.5967 34.3121C39.6926 34.329 39.7883 34.3486 39.8834 34.374C40.7356 34.6024 41.4481 35.1491 41.8892 35.9133C42.7999 37.4908 42.2575 39.515 40.6801 40.4257Z" fill="url(#paint4_linear)"/>
<path d="M44.4514 54.416C43.6152 52.9673 42.2648 51.931 40.649 51.4982C39.0333 51.0654 37.3455 51.2875 35.8972 52.124L25.6998 58.0113C24.251 58.8477 23.2148 60.1982 22.782 61.8138C22.3492 63.4298 22.5713 65.1174 23.4077 66.566C24.2439 68.0147 25.5944 69.0509 27.21 69.4837C27.7496 69.6283 28.2972 69.6999 28.8412 69.6999C29.9264 69.6999 30.9973 69.4155 31.962 68.8582L37.0601 65.9148C37.0603 65.9146 37.0605 65.9146 37.0607 65.9144L42.1594 62.9706C43.5176 62.1867 44.5132 60.9506 44.989 59.4678C45.0208 59.3689 45.0501 59.2689 45.0772 59.1679C45.51 57.5523 45.2879 55.8647 44.4514 54.416ZM30.4825 66.2957C29.7185 66.7366 28.8282 66.8544 27.976 66.6257C27.1238 66.3973 26.4113 65.8507 25.9702 65.0865C25.0594 63.5089 25.6019 61.4848 27.1793 60.574L30.9965 58.3702L34.3 64.0917L30.4825 66.2957ZM41.2228 60.0169C41.2226 60.0171 41.2224 60.0173 41.2222 60.0175C41.15 60.0816 41.0733 60.1416 40.9946 60.1998C40.9833 60.2081 40.9731 60.2178 40.9616 60.2258C40.8717 60.2905 40.778 60.3515 40.6799 60.4081L36.8624 62.6122L33.559 56.8907L37.3765 54.6866C37.4611 54.6377 37.5477 54.5945 37.6351 54.5535C37.6578 54.5428 37.6807 54.5326 37.7036 54.5223C37.7894 54.4846 37.8758 54.4493 37.9638 54.4191C37.9687 54.4174 37.9738 54.4158 37.979 54.414C38.0658 54.3846 38.1537 54.3603 38.2423 54.3386C38.268 54.3323 38.2936 54.3262 38.3194 54.3207C38.4072 54.3014 38.4954 54.2844 38.5844 54.2724C38.5934 54.2712 38.6023 54.2702 38.6114 54.269C38.6994 54.2578 38.7879 54.2513 38.8765 54.2473C38.903 54.2461 38.9296 54.2453 38.956 54.2448C39.0477 54.243 39.1395 54.2436 39.2314 54.2495C39.2373 54.2499 39.243 54.2505 39.249 54.2509C39.3407 54.2572 39.4322 54.2686 39.5237 54.2828C39.5486 54.2868 39.5737 54.2907 39.5985 54.2953C39.6936 54.3122 39.7885 54.3316 39.883 54.357C40.7356 54.585 41.4479 55.1315 41.8892 55.8957C41.9456 55.9935 41.9965 56.0931 42.0418 56.1939C42.0489 56.2099 42.0541 56.2265 42.061 56.2425C42.0983 56.3291 42.1338 56.4161 42.1632 56.5042C42.1643 56.5078 42.1651 56.5117 42.1663 56.5153C42.5764 57.761 42.2038 59.1456 41.2228 60.0169Z" fill="url(#paint5_linear)"/>
<path d="M44.4514 74.3996C43.6152 72.9508 42.2648 71.9146 40.6492 71.4818C39.0328 71.0488 37.3459 71.2707 35.8972 72.1073L30.7983 75.0511C30.7981 75.0513 30.7977 75.0515 30.7975 75.0517L25.6998 77.9949C24.251 78.8311 23.2148 80.1818 22.782 81.7974C22.3492 83.4132 22.5713 85.1006 23.4077 86.5494C24.5665 88.5562 26.6754 89.6792 28.8414 89.6792C29.9031 89.6792 30.9786 89.4093 31.962 88.8414L37.0601 85.898C37.0603 85.8978 37.0605 85.8978 37.0607 85.8976L42.1594 82.9538C43.6081 82.1176 44.6444 80.7671 45.0772 79.1513C45.51 77.5357 45.2879 75.8481 44.4514 74.3996ZM30.4829 86.2789C28.9049 87.1895 26.881 86.6468 25.9706 85.0699C25.5291 84.3057 25.4118 83.4154 25.6404 82.5632C25.8686 81.711 26.4152 80.9985 27.1795 80.5574L30.9969 78.3534L34.3004 84.0749L30.4829 86.2789ZM42.2192 78.3853C41.991 79.2375 41.4443 79.95 40.6801 80.3911L36.8626 82.5952L33.5592 76.8739L37.3767 74.6698C37.4619 74.6207 37.5491 74.5771 37.6371 74.5361C37.6586 74.526 37.6801 74.5163 37.7018 74.5067C37.8797 74.4284 38.0626 74.3662 38.249 74.3207C38.2703 74.3153 38.2918 74.3104 38.3131 74.3057C38.5011 74.2638 38.6921 74.2386 38.8846 74.2303C38.9063 74.2293 38.9278 74.2287 38.9497 74.2281C39.1418 74.2238 39.335 74.2366 39.5273 74.2662C39.5504 74.2698 39.5737 74.2735 39.5967 74.2777C39.6926 74.2946 39.7883 74.3141 39.8834 74.3396C40.7356 74.568 41.4481 75.1147 41.8892 75.8789C42.3302 76.6431 42.4476 77.5331 42.2192 78.3853Z" fill="url(#paint6_linear)"/>
<path d="M77.8844 15.0222C77.8842 15.0216 77.884 15.021 77.8838 15.0206C77.8457 14.936 77.8049 14.8521 77.7629 14.7687C77.7566 14.7563 77.7512 14.7437 77.7447 14.7314C77.6964 14.6369 77.6455 14.5434 77.592 14.4509C77.5386 14.3584 77.483 14.2677 77.4254 14.1785C77.4177 14.1667 77.4096 14.1556 77.4019 14.144C77.3508 14.066 77.2987 13.9891 77.2447 13.914C77.2433 13.912 77.2417 13.9102 77.2403 13.9082C76.4 12.7438 75.1953 11.9099 73.7896 11.5332C72.3821 11.1564 70.9203 11.2765 69.6095 11.8663C69.6087 11.8667 69.6079 11.8669 69.6073 11.8673C69.5213 11.906 69.4361 11.9474 69.3515 11.9902C69.3406 11.9957 69.3294 12.0005 69.3185 12.0062C69.224 12.0547 69.1303 12.1054 69.0376 12.1589L63.9387 15.1027C63.9383 15.1029 63.9381 15.1031 63.9379 15.1033L58.8402 18.0465C57.3915 18.8827 56.3552 20.2332 55.9224 21.849C55.4896 23.4646 55.7117 25.1522 56.5481 26.6007C57.3846 28.0492 58.735 29.0855 60.3506 29.5185C60.8902 29.6631 61.4378 29.7347 61.9818 29.7347C63.067 29.7347 64.1379 29.4502 65.1026 28.8929L70.2007 25.9495C70.2009 25.9493 70.2011 25.9493 70.2013 25.9491L75.3 23.0053C75.3925 22.9519 75.4835 22.8962 75.5726 22.8386C75.5841 22.8313 75.5949 22.8233 75.6062 22.8158C75.6845 22.7645 75.7618 22.712 75.8374 22.6578C75.838 22.6574 75.8386 22.6568 75.8391 22.6564C77.0056 21.816 77.8408 20.6101 78.2178 19.2026C78.5949 17.7952 78.4744 16.3332 77.8844 15.0222ZM63.6233 26.3302C62.8593 26.7713 61.969 26.8889 61.1168 26.6603C60.2646 26.4318 59.5521 25.8852 59.111 25.121C58.6697 24.357 58.5524 23.4669 58.7808 22.6147C59.009 21.7626 59.5557 21.05 60.3199 20.609L64.1373 18.4049L67.4408 24.1262L63.6233 26.3302ZM74.3632 20.0519C74.363 20.0521 74.3628 20.0523 74.3626 20.0525C74.2904 20.1166 74.2137 20.1765 74.1352 20.2347C74.1239 20.243 74.1137 20.2527 74.1022 20.2608C74.0123 20.3255 73.9186 20.3864 73.8205 20.4431L70.003 22.6471L66.6996 16.9258L70.5175 14.7214C70.6053 14.6707 70.695 14.6261 70.7852 14.5845C70.8071 14.5744 70.8288 14.5645 70.8507 14.5549C70.941 14.5154 71.032 14.4789 71.1243 14.4483C71.1286 14.447 71.1332 14.4458 71.1375 14.4444C71.2267 14.415 71.3168 14.3907 71.4074 14.3694C71.4287 14.3643 71.45 14.3594 71.4715 14.3546C71.5656 14.3343 71.6601 14.3172 71.755 14.3053C71.7623 14.3043 71.7697 14.3041 71.777 14.3032C71.8662 14.2927 71.9554 14.2866 72.0445 14.2832C72.0653 14.2824 72.0858 14.2817 72.1065 14.2813C72.2018 14.2795 72.297 14.2813 72.3917 14.2878C72.401 14.2884 72.4105 14.2897 72.4197 14.2905C72.5063 14.2972 72.5923 14.3079 72.6778 14.3213C72.6991 14.3247 72.7204 14.3278 72.7415 14.3316C72.8346 14.3481 72.9271 14.3675 73.0184 14.3919C73.0259 14.3939 73.0334 14.3965 73.0407 14.3986C73.1252 14.4217 73.2084 14.4487 73.2907 14.4785C73.3116 14.486 73.3325 14.4935 73.3532 14.5016C73.4414 14.5353 73.5286 14.5718 73.6136 14.6133C73.6195 14.616 73.625 14.6194 73.631 14.6223C73.7104 14.6614 73.788 14.7046 73.8643 14.75C73.8842 14.7618 73.904 14.7736 73.9237 14.7861C74.0042 14.8364 74.0833 14.889 74.1594 14.9466C74.1636 14.9496 74.1673 14.9531 74.1713 14.9561C74.2435 15.0109 74.3131 15.0701 74.3812 15.1313C74.3989 15.1473 74.4165 15.1634 74.434 15.1798C74.5042 15.2459 74.5729 15.3145 74.6378 15.3873C74.6396 15.3893 74.6411 15.3915 74.6429 15.3936C74.7059 15.4649 74.765 15.54 74.8222 15.6175C74.837 15.6375 74.8516 15.6576 74.866 15.6781C74.9234 15.7594 74.9789 15.8428 75.0296 15.9306C75.086 16.0284 75.1367 16.1281 75.1823 16.2289C75.1894 16.2448 75.1945 16.2614 75.2014 16.2774C75.2387 16.364 75.2742 16.451 75.3036 16.5392C75.3048 16.5427 75.3055 16.5465 75.3067 16.5502C75.7168 17.7959 75.3442 19.1806 74.3632 20.0519Z" fill="url(#paint7_linear)"/>
<path d="M77.5921 34.4338C76.7559 32.9851 75.4054 31.9488 73.7898 31.516C72.1734 31.0828 70.4864 31.3052 69.0378 32.1416L63.9389 35.0854C63.9385 35.0855 63.9383 35.0857 63.9381 35.0859L58.8404 38.0291C57.3917 38.8654 56.3554 40.216 55.9226 41.8316C55.4898 43.4476 55.712 45.1352 56.5484 46.5838C57.3846 48.0325 58.735 49.0687 60.3509 49.5015C60.8902 49.6459 61.4376 49.7175 61.9816 49.7175C63.0668 49.7175 64.138 49.4331 65.1026 48.8758L75.3 42.9884C76.6582 42.2045 77.6538 40.9684 78.1296 39.4856C78.1614 39.3867 78.1908 39.2867 78.2178 39.1857C78.6506 37.5701 78.4285 35.8825 77.5921 34.4338ZM63.6231 46.3133C62.8591 46.7544 61.969 46.8718 61.1166 46.6433C60.2644 46.4151 59.5519 45.8685 59.1108 45.1043C58.6698 44.3403 58.5524 43.45 58.7808 42.5976C59.009 41.7454 59.5557 41.0329 60.3199 40.5918L64.1374 38.3878L67.4408 44.1093L63.6231 46.3133ZM73.8207 40.4257L70.0033 42.6296L66.6998 36.9081L70.5173 34.704C70.6025 34.6553 70.6897 34.6117 70.7777 34.5705C70.7992 34.5604 70.8207 34.5508 70.8424 34.5411C71.0204 34.4628 71.2032 34.4006 71.3896 34.3551C71.4109 34.3499 71.4322 34.3448 71.4537 34.3401C71.6417 34.2983 71.8327 34.273 72.0252 34.2647C72.0469 34.2637 72.0684 34.2632 72.0903 34.2626C72.2825 34.2582 72.4756 34.271 72.6679 34.3006C72.691 34.3042 72.7143 34.3081 72.7374 34.3121C72.8332 34.329 72.9289 34.3486 73.024 34.374C73.8762 34.6024 74.5887 35.1491 75.0298 35.9133C75.9406 37.4908 75.3981 39.515 73.8207 40.4257Z" fill="url(#paint8_linear)"/>
<path d="M77.5921 54.416C76.7559 52.9673 75.4054 51.931 73.7896 51.4982C72.174 51.0654 70.4862 51.2875 69.0378 52.124L58.8404 58.0113C57.3917 58.8477 56.3554 60.1982 55.9226 61.8138C55.4898 63.4298 55.712 65.1174 56.5484 66.566C57.3846 68.0147 58.735 69.0509 60.3507 69.4837C60.8902 69.6283 61.4378 69.6999 61.9818 69.6999C63.067 69.6999 64.138 69.4155 65.1026 68.8582L70.2007 65.9148C70.2009 65.9146 70.2011 65.9146 70.2013 65.9144L75.3 62.9706C76.6582 62.1867 77.6538 60.9506 78.1296 59.4678C78.1614 59.3689 78.1908 59.2689 78.2178 59.1679C78.6506 57.5523 78.4285 55.8647 77.5921 54.416ZM63.6231 66.2957C62.8591 66.7366 61.9688 66.8544 61.1166 66.6257C60.2644 66.3973 59.5519 65.8507 59.1108 65.0865C58.2001 63.5089 58.7425 61.4848 60.3199 60.574L64.1372 58.3702L67.4406 64.0917L63.6231 66.2957ZM74.3634 60.0169C74.3632 60.0171 74.363 60.0173 74.3628 60.0175C74.2906 60.0816 74.2139 60.1416 74.1354 60.1998C74.1241 60.2081 74.1139 60.2178 74.1024 60.2258C74.0125 60.2905 73.9188 60.3515 73.8207 60.4081L70.0033 62.6122L66.6998 56.8907L70.5175 54.6866C70.6022 54.6377 70.6887 54.5943 70.7763 54.5535C70.799 54.5428 70.8217 54.5326 70.8446 54.5225C70.9306 54.4846 71.0176 54.4491 71.106 54.4189C71.1103 54.4174 71.1148 54.416 71.1192 54.4146C71.2064 54.3852 71.2948 54.3607 71.3837 54.3388C71.4092 54.3327 71.4344 54.3266 71.4601 54.3211C71.5484 54.3016 71.6374 54.2846 71.727 54.2724C71.7352 54.2712 71.7435 54.2704 71.7518 54.2692C71.84 54.258 71.929 54.2515 72.0179 54.2473C72.0444 54.2461 72.0708 54.2453 72.0972 54.2448C72.1888 54.243 72.2805 54.2436 72.3724 54.2495C72.3787 54.2499 72.385 54.2505 72.3912 54.2509C72.4823 54.2572 72.5736 54.2686 72.6648 54.2826C72.69 54.2866 72.7151 54.2907 72.7401 54.2951C72.835 54.312 72.9299 54.3314 73.0242 54.3566C73.8762 54.585 74.5885 55.1315 75.0298 55.8957C75.0862 55.9935 75.1369 56.0931 75.1825 56.1939C75.1896 56.2099 75.1947 56.2265 75.2016 56.2425C75.2389 56.3291 75.2744 56.4161 75.3038 56.5042C75.305 56.5078 75.3058 56.5117 75.3069 56.5153C75.7171 57.761 75.3444 59.1456 74.3634 60.0169Z" fill="url(#paint9_linear)"/>
<path d="M77.5921 74.3996C76.7559 72.9508 75.4054 71.9146 73.7898 71.4818C72.1734 71.0488 70.4864 71.2707 69.0378 72.1073L63.9389 75.0511C63.9385 75.0513 63.9383 75.0515 63.9381 75.0517L58.8404 77.9949C57.3917 78.8311 56.3554 80.1818 55.9226 81.7974C55.4898 83.4132 55.712 85.1006 56.5484 86.5494C57.7071 88.5562 59.8161 89.6792 61.982 89.6792C63.0437 89.6792 64.1192 89.4093 65.1026 88.8414L70.2007 85.898C70.2009 85.8978 70.2011 85.8978 70.2013 85.8976L75.3 82.9538C76.7487 82.1176 77.785 80.7671 78.2178 79.1513C78.6506 77.5357 78.4285 75.8481 77.5921 74.3996ZM63.6233 86.2789C62.0454 87.1895 60.0214 86.6468 59.111 85.0699C58.6698 84.3057 58.5524 83.4154 58.7808 82.5632C59.009 81.711 59.5557 80.9985 60.3199 80.5574L64.1374 78.3534L67.4408 84.0749L63.6233 86.2789ZM75.3598 78.3853C75.1316 79.2375 74.5849 79.95 73.8207 80.3911L70.0033 82.5952L66.6998 76.8739L70.5173 74.6698C70.6025 74.6207 70.6897 74.5771 70.7777 74.5361C70.7992 74.526 70.8207 74.5163 70.8424 74.5067C71.0204 74.4284 71.2032 74.3662 71.3896 74.3207C71.4109 74.3153 71.4322 74.3104 71.4537 74.3057C71.6417 74.2638 71.8327 74.2386 72.0252 74.2303C72.0469 74.2293 72.0684 74.2287 72.0903 74.2281C72.2825 74.2238 72.4756 74.2366 72.6679 74.2662C72.691 74.2698 72.7143 74.2735 72.7374 74.2777C72.8332 74.2946 72.9289 74.3141 73.024 74.3396C73.8762 74.568 74.5887 75.1147 75.0298 75.8789C75.4709 76.6431 75.5882 77.5331 75.3598 78.3853Z" fill="url(#paint10_linear)"/>
<defs>
<linearGradient id="paint0_linear" x1="50.5" y1="0" x2="50.5" y2="80.1392" gradientUnits="userSpaceOnUse">
<stop stop-color="#7F46C5"/>
<stop offset="1" stop-color="#1C5DA9"/>
</linearGradient>
<linearGradient id="paint1_linear" x1="50.5" y1="20.7783" x2="50.5" y2="101" gradientUnits="userSpaceOnUse">
<stop stop-color="#7F46C5"/>
<stop offset="1" stop-color="#1C5DA9"/>
</linearGradient>
<linearGradient id="paint2_linear" x1="50.5" y1="16.7842" x2="50.5" y2="84.2163" gradientUnits="userSpaceOnUse">
<stop stop-color="#7F46C5"/>
<stop offset="1" stop-color="#1C5DA9"/>
</linearGradient>
<linearGradient id="paint3_linear" x1="33.9295" y1="11.3184" x2="33.9295" y2="29.7356" gradientUnits="userSpaceOnUse">
<stop stop-color="#7F46C5"/>
<stop offset="1" stop-color="#1C5DA9"/>
</linearGradient>
<linearGradient id="paint4_linear" x1="33.9296" y1="31.2998" x2="33.9296" y2="49.7175" gradientUnits="userSpaceOnUse">
<stop stop-color="#7F46C5"/>
<stop offset="1" stop-color="#1C5DA9"/>
</linearGradient>
<linearGradient id="paint5_linear" x1="33.9296" y1="51.2822" x2="33.9296" y2="69.6999" gradientUnits="userSpaceOnUse">
<stop stop-color="#7F46C5"/>
<stop offset="1" stop-color="#1C5DA9"/>
</linearGradient>
<linearGradient id="paint6_linear" x1="33.9296" y1="71.2656" x2="33.9296" y2="89.6792" gradientUnits="userSpaceOnUse">
<stop stop-color="#7F46C5"/>
<stop offset="1" stop-color="#1C5DA9"/>
</linearGradient>
<linearGradient id="paint7_linear" x1="67.0701" y1="11.3174" x2="67.0701" y2="29.7347" gradientUnits="userSpaceOnUse">
<stop stop-color="#7F46C5"/>
<stop offset="1" stop-color="#1C5DA9"/>
</linearGradient>
<linearGradient id="paint8_linear" x1="67.0702" y1="31.2998" x2="67.0702" y2="49.7175" gradientUnits="userSpaceOnUse">
<stop stop-color="#7F46C5"/>
<stop offset="1" stop-color="#1C5DA9"/>
</linearGradient>
<linearGradient id="paint9_linear" x1="67.0702" y1="51.2822" x2="67.0702" y2="69.6999" gradientUnits="userSpaceOnUse">
<stop stop-color="#7F46C5"/>
<stop offset="1" stop-color="#1C5DA9"/>
</linearGradient>
<linearGradient id="paint10_linear" x1="67.0702" y1="71.2656" x2="67.0702" y2="89.6792" gradientUnits="userSpaceOnUse">
<stop stop-color="#7F46C5"/>
<stop offset="1" stop-color="#1C5DA9"/>
</linearGradient>
</defs>
</svg>
