<svg width="101" height="101" viewBox="0 0 101 101" fill="none" xmlns="http://www.w3.org/2000/svg">
<g clip-path="url(#clip0)">
<path d="M71.7243 0C63.9053 0 56.5548 3.04489 51.0242 8.57549L8.57549 51.0242C3.04489 56.5532 0 63.9053 0 71.7243C0 87.8667 13.1333 101 29.2757 101C37.0947 101 44.4452 97.9551 49.9758 92.4245L92.4261 49.9734C97.9551 44.4468 101 37.0947 101 29.2757C101 13.1333 87.8667 0 71.7243 0V0ZM47.6723 90.121C42.7573 95.0359 36.2229 97.7419 29.2757 97.7419C14.9286 97.7419 3.25806 86.0699 3.25806 71.7243C3.25806 64.7755 5.9641 58.2427 10.879 53.3277L30.9516 33.2552L67.7448 70.0484L47.6723 90.121ZM90.121 47.6723L70.0484 67.7448L33.2552 30.9516L53.3277 10.879C58.2427 5.9641 64.7771 3.25806 71.7243 3.25806C86.0714 3.25806 97.7419 14.9301 97.7419 29.2757C97.7419 36.2229 95.0359 42.7573 90.121 47.6723Z" fill="url(#paint0_linear)"/>
<path d="M87.9335 13.0664L85.63 15.37C89.238 18.978 91.2258 23.7776 91.2258 28.8795C91.2258 33.9813 89.238 38.7809 85.63 42.389L68.8966 59.1224L71.2002 61.4259L87.9335 44.6925C92.1572 40.468 94.4839 34.8531 94.4839 28.8795C94.4839 22.9058 92.1572 17.2901 87.9335 13.0664Z" fill="url(#paint1_linear)"/>
<path d="M17.9194 74.9355C14.3256 74.9355 11.4032 77.8579 11.4032 81.4517C11.4032 85.0454 14.3256 87.9678 17.9194 87.9678C21.5131 87.9678 24.4355 85.0454 24.4355 81.4517C24.4355 77.8579 21.5131 74.9355 17.9194 74.9355ZM17.9194 84.7097C16.1225 84.7097 14.6613 83.2485 14.6613 81.4517C14.6613 79.6548 16.1225 78.1936 17.9194 78.1936C19.7162 78.1936 21.1774 79.6548 21.1774 81.4517C21.1774 83.2485 19.7162 84.7097 17.9194 84.7097Z" fill="url(#paint2_linear)"/>
<path d="M21.1774 52.1289C15.7868 52.1289 11.4032 56.5125 11.4032 61.9031C11.4032 67.2937 15.7868 71.6773 21.1774 71.6773C26.568 71.6773 30.9516 67.2937 30.9516 61.9031C30.9516 56.5125 26.568 52.1289 21.1774 52.1289ZM21.1774 68.4192C17.5837 68.4192 14.6613 65.4968 14.6613 61.9031C14.6613 58.3094 17.5837 55.387 21.1774 55.387C24.7712 55.387 27.6936 58.3094 27.6936 61.9031C27.6936 65.4968 24.7712 68.4192 21.1774 68.4192Z" fill="url(#paint3_linear)"/>
</g>
<defs>
<linearGradient id="paint0_linear" x1="50.5" y1="0" x2="50.5" y2="101" gradientUnits="userSpaceOnUse">
<stop stop-color="#7F46C5"/>
<stop offset="1" stop-color="#1C5DA9"/>
</linearGradient>
<linearGradient id="paint1_linear" x1="81.6902" y1="13.0664" x2="81.6902" y2="61.4259" gradientUnits="userSpaceOnUse">
<stop stop-color="#7F46C5"/>
<stop offset="1" stop-color="#1C5DA9"/>
</linearGradient>
<linearGradient id="paint2_linear" x1="17.9194" y1="74.9355" x2="17.9194" y2="87.9678" gradientUnits="userSpaceOnUse">
<stop stop-color="#7F46C5"/>
<stop offset="1" stop-color="#1C5DA9"/>
</linearGradient>
<linearGradient id="paint3_linear" x1="21.1774" y1="52.1289" x2="21.1774" y2="71.6773" gradientUnits="userSpaceOnUse">
<stop stop-color="#7F46C5"/>
<stop offset="1" stop-color="#1C5DA9"/>
</linearGradient>
<clipPath id="clip0">
<rect width="101" height="101" fill="white"/>
</clipPath>
</defs>
</svg>
