<svg width="101" height="101" viewBox="0 0 101 101" fill="none" xmlns="http://www.w3.org/2000/svg">
<path d="M52.0486 1.55867L52.0486 1.55864C52.4209 1.01638 53.036 0.692578 53.6938 0.692578C54.3512 0.692578 54.9666 1.01667 55.3382 1.55853L55.3383 1.55867C55.9617 2.4665 63.6182 13.6799 71.1176 27.3851C74.8675 34.2378 78.5751 41.7081 81.3445 48.8211C84.1163 55.9404 85.9373 62.6746 85.9373 68.0636C85.9373 85.8429 71.4727 100.308 53.6935 100.308C35.9142 100.308 21.4493 85.8429 21.4493 68.0636C21.4493 62.6746 23.2703 55.9404 26.0422 48.8211C28.8116 41.7081 32.5193 34.2378 36.2691 27.3851C43.7687 13.6799 51.4252 2.4665 52.0486 1.55867ZM53.9445 6.66135L53.6938 6.27936L53.443 6.66135C50.1571 11.6663 43.1626 22.654 36.9883 34.5605C33.9013 40.5136 31.0167 46.7016 28.9031 52.4896C26.7916 58.2723 25.4407 63.6795 25.4407 68.0636C25.4407 83.6427 38.1147 96.3167 53.6938 96.3167C69.2725 96.3167 81.9465 83.6427 81.9465 68.0636C81.9465 63.6794 80.5957 58.2722 78.4842 52.4895C76.3707 46.7014 73.486 40.5135 70.399 34.5604C64.2249 22.6539 57.2304 11.6663 53.9445 6.66135Z" fill="url(#paint0_linear)" stroke="#F1F1F1" stroke-width="0.6"/>
<path d="M53.6941 89.5944C52.5917 89.5944 51.6985 88.7009 51.6985 87.5988C51.6985 86.4967 52.5917 85.6033 53.6941 85.6033C63.3662 85.6033 71.2347 77.7357 71.2347 68.0641C71.2347 66.962 72.128 66.0686 73.2303 66.0686C74.3327 66.0686 75.2259 66.962 75.2259 68.0641C75.2259 79.9355 65.5664 89.5944 53.6941 89.5944Z" fill="url(#paint1_linear)" stroke="#F1F1F1" stroke-width="0.6"/>
<path d="M93.9437 9.69023V9.99023H94.2437H98.7044C99.8068 9.99023 100.7 10.8837 100.7 11.9858C100.7 13.0879 99.8068 13.9814 98.7044 13.9814H94.2437H93.9437V14.2814V18.7424C93.9437 19.8445 93.0505 20.738 91.9481 20.738C90.8457 20.738 89.9525 19.8445 89.9525 18.7424V14.2814V13.9814H89.6525H85.1915C84.0891 13.9814 83.1959 13.0879 83.1959 11.9858C83.1959 10.8837 84.0891 9.99023 85.1915 9.99023H89.6525H89.9525V9.69023V5.22917C89.9525 4.12706 90.8457 3.23359 91.9481 3.23359C93.0505 3.23359 93.9437 4.12706 93.9437 5.22917V9.69023Z" fill="url(#paint2_linear)" stroke="#F1F1F1" stroke-width="0.6"/>
<path d="M11.0478 78.8123V79.1123H11.3478H15.8088C16.9112 79.1123 17.8044 80.0058 17.8044 81.1079C17.8044 82.21 16.9112 83.1034 15.8088 83.1034H11.3478H11.0478V83.4034V87.8645C11.0478 88.9666 10.1546 89.8601 9.05221 89.8601C7.94985 89.8601 7.05664 88.9666 7.05664 87.8645V83.4034V83.1034H6.75664H2.29557C1.19321 83.1034 0.3 82.21 0.3 81.1079C0.3 80.0058 1.19321 79.1123 2.29557 79.1123H6.75664H7.05664V78.8123V74.3512C7.05664 73.2491 7.94985 72.3557 9.05221 72.3557C10.1546 72.3557 11.0478 73.2491 11.0478 74.3512V78.8123Z" fill="url(#paint3_linear)" stroke="#F1F1F1" stroke-width="0.6"/>
<defs>
<linearGradient id="paint0_linear" x1="53.6933" y1="0.392578" x2="53.6933" y2="100.608" gradientUnits="userSpaceOnUse">
<stop stop-color="#7F46C5"/>
<stop offset="1" stop-color="#1C5DA9"/>
</linearGradient>
<linearGradient id="paint1_linear" x1="63.4622" y1="65.7686" x2="63.4622" y2="89.8944" gradientUnits="userSpaceOnUse">
<stop stop-color="#7F46C5"/>
<stop offset="1" stop-color="#1C5DA9"/>
</linearGradient>
<linearGradient id="paint2_linear" x1="91.9479" y1="2.93359" x2="91.9479" y2="21.038" gradientUnits="userSpaceOnUse">
<stop stop-color="#7F46C5"/>
<stop offset="1" stop-color="#1C5DA9"/>
</linearGradient>
<linearGradient id="paint3_linear" x1="9.05221" y1="72.0557" x2="9.05221" y2="90.1601" gradientUnits="userSpaceOnUse">
<stop stop-color="#7F46C5"/>
<stop offset="1" stop-color="#1C5DA9"/>
</linearGradient>
</defs>
</svg>
