<svg width="350" height="350" viewBox="0 0 350 350" fill="none" xmlns="http://www.w3.org/2000/svg">
<g clip-path="url(#clip0)">
<path fill-rule="evenodd" clip-rule="evenodd" d="M89.548 342.48H316.501C331.605 342.48 343.845 330.237 343.845 315.137V301.465H116.892V315.137C116.892 330.237 104.651 342.48 89.548 342.48Z" fill="#6A80FF"/>
<path d="M216 8H284V302H216V8Z" fill="#6A80FF"/>
<path fill-rule="evenodd" clip-rule="evenodd" d="M7.5193 47.168H62.2069V33.4961C62.2069 18.4303 50.0197 6.20842 34.9672 6.15234H34.8631C19.7599 6.15234 7.5193 18.393 7.5193 33.4961V47.168Z" fill="#6A80FF"/>
<path fill-rule="evenodd" clip-rule="evenodd" d="M160.791 115.527V69.4062L130.566 47.168L100.341 69.4062V115.527H160.791Z" fill="#FFB954"/>
<path fill-rule="evenodd" clip-rule="evenodd" d="M241.578 149.705L179.358 211.925L201.11 233.677L326.347 108.441L304.595 86.6885L241.578 149.705Z" fill="#6A80FF"/>
<path fill-rule="evenodd" clip-rule="evenodd" d="M201.11 233.677L179.358 211.925L173.219 218.064L169.691 221.594L160.791 252.244L191.441 243.343L201.11 233.677Z" fill="#FFB954"/>
<path d="M344.164 294.469H296.315V148.718L331.499 113.632C334.169 110.972 334.169 106.656 331.499 103.993L309.746 82.3034C308.465 81.0254 306.726 80.3064 304.913 80.3064C303.1 80.3064 301.362 81.0254 300.08 82.3034L296.315 86.0578V34.0828C296.315 24.9393 292.715 16.3416 286.184 9.87397C279.689 3.44367 271.107 -0.0630454 262.052 0.000858231H117.209C113.436 0.000858231 110.373 3.05226 110.373 6.81725C110.373 10.5822 113.436 13.6336 117.209 13.6336H262.1H262.244C267.617 13.6336 272.696 15.7318 276.549 19.5474C280.477 23.4375 282.643 28.6004 282.643 34.0828V99.6906L239.063 143.145H161.109C157.333 143.145 154.273 146.196 154.273 149.959C154.273 153.724 157.333 156.775 161.109 156.775H225.391L204.883 177.224H100.659C96.8828 177.224 93.8226 180.278 93.8226 184.041C93.8226 187.806 96.8828 190.857 100.659 190.857H191.214L170.706 211.306H100.659C96.8828 211.306 93.8226 214.358 93.8226 218.123C93.8226 221.888 96.8828 224.939 100.659 224.939H161.929L155.977 245.388H100.659C96.8828 245.388 93.8226 248.44 93.8226 252.205C93.8226 255.97 96.8828 259.021 100.659 259.021H161.109H161.112C161.405 259.021 161.694 258.997 161.977 258.96C162.046 258.952 162.113 258.941 162.182 258.93C162.439 258.891 162.69 258.837 162.936 258.768C162.962 258.76 162.989 258.757 163.016 258.752L163.117 258.723C163.128 258.717 163.141 258.715 163.154 258.712L193.665 249.877C194.771 249.558 195.78 248.964 196.595 248.152L219.872 224.939H262.132C265.908 224.939 268.968 221.888 268.968 218.123C268.968 214.358 265.908 211.306 262.132 211.306H233.544L282.643 162.351V294.469H275.804C272.031 294.469 268.968 297.523 268.968 301.285C268.968 305.05 272.031 308.102 275.804 308.102H337.328V314.918C337.328 326.194 328.129 335.367 316.82 335.367H117.193C121.492 329.669 124.045 322.584 124.045 314.918V308.102H221.116C224.892 308.102 227.952 305.05 227.952 301.285C227.952 297.523 224.892 294.469 221.116 294.469H117.209C113.436 294.469 110.373 297.523 110.373 301.285V314.918C110.373 326.194 101.174 335.367 89.8652 335.367C78.5591 335.367 69.3599 326.194 69.3599 314.918V34.0855C69.3599 26.417 66.8071 19.3344 62.5052 13.6363H62.5239C66.2971 13.6363 69.3599 10.5822 69.3599 6.81991C69.3599 3.05492 66.2971 0.00352088 62.5239 0.00352088H35.18C16.3329 0.00352088 1 15.2925 1 34.0855V47.7156C1 51.4806 4.06017 54.532 7.83599 54.532H55.6879V314.918C55.6879 333.711 71.0208 349 89.8652 349H316.82C335.667 349 351 333.711 351 314.918V301.285C351 297.52 347.94 294.469 344.164 294.469ZM304.913 96.7616L316.999 108.813L284.646 141.071C284.646 141.073 284.643 141.073 284.643 141.076L212.205 213.303L201.428 224.05L189.345 212.001L304.913 96.7616ZM171.141 242.201L176.084 225.224L179.676 221.64L191.762 233.691L188.167 237.272L171.141 242.201ZM55.6879 40.8992H14.672V34.0828C14.672 22.8065 23.8712 13.6336 35.18 13.6336C46.4887 13.6336 55.6879 22.8065 55.6879 34.0828V40.8992Z" fill="#2E2556"/>
<path d="M90 14C93.8664 14 97 10.8664 97 7C97 3.13359 93.8664 0 90 0H89.9973C86.1309 0 83 3.13359 83 7C83 10.8664 86.1363 14 90 14Z" fill="#2E2556"/>
<path d="M254.981 301.465C254.981 297.689 251.92 294.629 248.145 294.629H248.139C244.366 294.629 241.306 297.689 241.306 301.465C241.306 305.241 244.372 308.301 248.145 308.301C251.92 308.301 254.981 305.241 254.981 301.465Z" fill="#2E2556"/>
<path d="M100.341 122.363H160.791C164.567 122.363 167.627 119.301 167.627 115.527V82.9152C168.826 83.767 170.207 84.1809 171.577 84.1809C173.676 84.1809 175.748 83.2169 177.088 81.3958C179.326 78.3543 178.674 74.0765 175.633 71.8388L134.617 41.6618C132.209 39.8888 128.924 39.8888 126.516 41.6618L85.4998 71.8388C82.4584 74.0765 81.8068 78.3543 84.0445 81.3958C86.2582 84.4052 90.4692 85.0701 93.5054 82.9152V115.527C93.5054 119.301 96.5655 122.363 100.341 122.363ZM130.566 55.6542L153.955 72.8642V108.691H107.177V72.8642L130.566 55.6542Z" fill="#2E2556"/>
<path d="M198.926 54.0039H261.814C265.59 54.0039 268.65 50.9438 268.65 47.168C268.65 43.3922 265.59 40.332 261.814 40.332H198.926C195.15 40.332 192.09 43.3922 192.09 47.168C192.09 50.9438 195.15 54.0039 198.926 54.0039Z" fill="#2E2556"/>
<path d="M198.926 88.1836H261.814C265.59 88.1836 268.65 85.1235 268.65 81.3477C268.65 77.5719 265.59 74.5117 261.814 74.5117H198.926C195.15 74.5117 192.09 77.5719 192.09 81.3477C192.09 85.1235 195.15 88.1836 198.926 88.1836Z" fill="#2E2556"/>
<path d="M198.926 122.363H230.371C234.144 122.363 237.207 119.3 237.207 115.527C237.207 111.752 234.144 108.691 230.371 108.691H198.926C195.15 108.691 192.09 111.752 192.09 115.527C192.09 119.3 195.15 122.363 198.926 122.363Z" fill="#2E2556"/>
</g>
<defs>
<clipPath id="clip0">
<rect width="350" height="350" fill="white"/>
</clipPath>
</defs>
</svg>
