<svg width="101" height="101" viewBox="0 0 101 101" fill="none" xmlns="http://www.w3.org/2000/svg">
<g clip-path="url(#clip0)">
<path d="M40.864 1.37842C39.2103 0.830547 37.4866 0.439868 35.7397 0.217173C34.1554 0.0160543 32.5549 -0.0448207 30.9752 0.0322362C30.8127 0.039942 30.6501 0.0476478 30.4844 0.0592062C17.5542 0.914539 6.98277 10.8796 5.34531 23.755C5.0078 26.4104 5.06405 29.1143 5.51637 31.7535C6.48267 37.3949 9.2598 42.6702 13.3562 46.6679C17.5588 50.7681 23.0846 53.412 28.8831 54.1494C30.029 54.295 31.1841 54.3675 32.3345 54.3675C32.7229 54.3675 33.1113 54.3567 33.4981 54.3397C33.7108 54.3305 33.9227 54.322 34.1392 54.3074C47.0686 53.452 57.6401 43.4878 59.2775 30.6116C60.9142 17.7338 53.17 5.43933 40.864 1.37842ZM8.28966 24.1295C9.67129 13.2637 18.1938 4.72655 28.8801 3.2093L22.9898 49.536C13.0248 45.3942 6.90802 34.9953 8.28966 24.1295ZM56.3332 30.2371C54.9515 41.1029 46.429 49.64 35.7428 51.1573L37.1737 39.9054C37.277 39.0925 36.7014 38.3489 35.8884 38.2456C35.0762 38.1423 34.3326 38.718 34.2294 39.5309L32.7206 51.3961C32.6967 51.3969 32.672 51.3961 32.6474 51.3969C32.4239 51.3992 32.2004 51.3985 31.9762 51.3954C31.0615 51.3823 30.1692 51.3206 29.2576 51.2043C28.7005 51.1342 28.1349 51.0409 27.5847 50.9323C27.567 50.9284 27.5493 50.9253 27.5316 50.9222C27.3821 50.8922 25.8556 50.5269 25.8563 50.5231C25.9796 49.2917 26.1692 48.0634 26.3249 46.8351C26.7155 43.7644 27.1054 40.6937 27.4961 37.623C27.9985 33.6699 28.5017 29.7169 29.0041 25.7639C29.4965 21.8879 29.9897 18.012 30.4821 14.136C30.8435 11.2972 31.2041 8.45765 31.5655 5.61887C31.6765 4.74582 31.8337 3.83962 31.8953 2.97273C32.6898 2.98891 33.4526 2.98429 34.2525 3.04902C34.3511 3.05673 34.4505 3.06289 34.5491 3.07214C34.8219 3.09757 35.0939 3.12685 35.366 3.16152C35.621 3.19389 35.8761 3.23164 36.1304 3.27249C36.1966 3.28327 36.2629 3.29406 36.3292 3.30485C36.5642 3.34492 36.7984 3.38653 37.0319 3.43276C37.0527 3.43662 37.0728 3.44047 37.0936 3.44432C37.3425 3.49441 37.5906 3.54989 37.8379 3.60691C37.9042 3.62232 37.9705 3.63851 38.0375 3.65469C38.2556 3.70786 38.4721 3.76334 38.6887 3.8219C38.7149 3.82884 38.7411 3.83577 38.7673 3.84271L35.1016 32.6697C34.9984 33.4827 35.5732 34.2255 36.3862 34.3288C37.2007 34.4305 37.9427 33.8572 38.046 33.0442L41.633 4.83058C51.598 8.97316 57.714 19.3712 56.3332 30.2371Z" fill="url(#paint0_linear)"/>
<path d="M95.7717 70.9089C93.5872 58.9226 83.1722 50.1158 71.0102 49.9694C67.9403 49.9247 64.811 50.4625 61.9275 51.5121C61.7349 51.5822 61.543 51.6546 61.3511 51.7301C55.6212 53.9702 50.8914 58.2253 48.0341 63.711C47.655 64.4376 47.9371 65.3338 48.6645 65.7129C49.3911 66.092 50.2873 65.8092 50.6656 65.0818C52.9095 60.7751 56.4588 57.3306 60.7717 55.2262L68.5552 97.9335C58.601 97.0073 50.3112 89.5174 48.4903 79.5261C47.981 76.7321 47.9964 73.9156 48.5373 71.1547C48.6953 70.3502 48.1705 69.5704 47.3661 69.4132C46.5631 69.2567 45.7825 69.78 45.6246 70.5844C45.0127 73.7106 44.9942 76.8977 45.5699 80.0586C47.7552 92.0448 58.1695 100.852 70.3314 100.998C70.4423 101 70.5525 101 70.6643 101C71.5913 101 72.5183 100.949 73.4406 100.848C75.3239 100.641 77.0253 100.268 78.8338 99.6588C79.223 99.5278 79.6083 99.3876 79.9928 99.2366C91.3202 94.8073 97.9563 82.8943 95.7717 70.9089ZM74.0293 97.7786C73.2934 97.8896 72.5498 97.9628 71.7839 98.0013C71.7184 98.0052 71.6521 98.0083 71.5866 98.0114L63.5796 54.0811C63.6135 54.0703 63.6474 54.0596 63.6814 54.048C64.7054 53.7151 65.5808 53.494 66.6288 53.3029C67.5958 53.1272 68.6061 53.0124 69.5816 52.9646C69.6394 52.9615 69.698 52.9584 69.7558 52.9561C69.7727 52.9553 69.8914 53.6974 69.8983 53.7375C70.3075 55.9852 70.7174 58.2322 71.1274 60.4792C71.7931 64.1355 72.4597 67.7919 73.1262 71.4482C73.8506 75.4198 74.5741 79.3905 75.2977 83.362C75.8795 86.553 76.4613 89.7439 77.0423 92.9356C77.2804 94.241 77.4599 95.6056 77.7689 96.884C76.5298 97.203 75.32 97.5837 74.0293 97.7786ZM80.5715 95.7443L72.7872 53.0332C82.7406 53.9602 91.0312 61.4493 92.8521 71.4413C94.6729 81.4325 89.5586 91.3644 80.5715 95.7443Z" fill="url(#paint1_linear)"/>
<circle cx="73.5" cy="29.5" r="2.5" stroke="url(#paint2_linear)" stroke-width="2"/>
<circle cx="88.5" cy="13.5" r="5.5" stroke="url(#paint3_linear)" stroke-width="2"/>
<circle cx="90.5" cy="39.5" r="3.5" stroke="url(#paint4_linear)" stroke-width="2"/>
<circle cx="23.5" cy="69.5" r="3.5" stroke="url(#paint5_linear)" stroke-width="2"/>
<circle cx="27.5" cy="88.5" r="5.5" stroke="url(#paint6_linear)" stroke-width="2"/>
<circle cx="6" cy="79" r="4" stroke="url(#paint7_linear)" stroke-width="2"/>
</g>
<defs>
<linearGradient id="paint0_linear" x1="32.3118" y1="0" x2="32.3118" y2="54.3675" gradientUnits="userSpaceOnUse">
<stop stop-color="#7F46C5"/>
<stop offset="1" stop-color="#1C5DA9"/>
</linearGradient>
<linearGradient id="paint1_linear" x1="70.6686" y1="49.9668" x2="70.6686" y2="101" gradientUnits="userSpaceOnUse">
<stop stop-color="#7F46C5"/>
<stop offset="1" stop-color="#1C5DA9"/>
</linearGradient>
<linearGradient id="paint2_linear" x1="73.5" y1="26" x2="73.5" y2="33" gradientUnits="userSpaceOnUse">
<stop stop-color="#7C47C4"/>
<stop offset="1" stop-color="#225CAB"/>
</linearGradient>
<linearGradient id="paint3_linear" x1="88.5" y1="7" x2="88.5" y2="20" gradientUnits="userSpaceOnUse">
<stop stop-color="#7C47C4"/>
<stop offset="1" stop-color="#225CAB"/>
</linearGradient>
<linearGradient id="paint4_linear" x1="90.5" y1="35" x2="90.5" y2="44" gradientUnits="userSpaceOnUse">
<stop stop-color="#7C47C4"/>
<stop offset="1" stop-color="#225CAB"/>
</linearGradient>
<linearGradient id="paint5_linear" x1="23.5" y1="65" x2="23.5" y2="74" gradientUnits="userSpaceOnUse">
<stop stop-color="#7C47C4"/>
<stop offset="1" stop-color="#225CAB"/>
</linearGradient>
<linearGradient id="paint6_linear" x1="27.5" y1="82" x2="27.5" y2="95" gradientUnits="userSpaceOnUse">
<stop stop-color="#7C47C4"/>
<stop offset="1" stop-color="#225CAB"/>
</linearGradient>
<linearGradient id="paint7_linear" x1="6" y1="74" x2="6" y2="84" gradientUnits="userSpaceOnUse">
<stop stop-color="#7C47C4"/>
<stop offset="1" stop-color="#225CAB"/>
</linearGradient>
<clipPath id="clip0">
<rect width="101" height="101" fill="white"/>
</clipPath>
</defs>
</svg>
