<svg width="29" height="29" viewBox="0 0 29 29" fill="none" xmlns="http://www.w3.org/2000/svg">
<path d="M4.24805 29H13.707V18.6914H10.3086V15.293H13.707V11.0449C13.707 8.70252 15.6127 6.79688 17.9551 6.79688H22.2031V10.1953H18.8047C17.8677 10.1953 17.1055 10.9575 17.1055 11.8945V15.293H22.0498L21.4834 18.6914H17.1055V29H24.752C27.0944 29 29 27.0944 29 24.752V4.24805C29 1.90565 27.0944 0 24.752 0H4.24805C1.90565 0 0 1.90565 0 4.24805V24.752C0 27.0944 1.90565 29 4.24805 29ZM1.69922 4.24805C1.69922 2.84265 2.84265 1.69922 4.24805 1.69922H24.752C26.1573 1.69922 27.3008 2.84265 27.3008 4.24805V24.752C27.3008 26.1573 26.1573 27.3008 24.752 27.3008H18.8047V20.3906H22.9229L24.0557 13.5938H18.8047V11.8945H23.9023V5.09766H17.9551C14.6757 5.09766 12.0078 7.76552 12.0078 11.0449V13.5938H8.60938V20.3906H12.0078V27.3008H4.24805C2.84265 27.3008 1.69922 26.1573 1.69922 24.752V4.24805Z" fill="white"/>
</svg>
