<svg width="385" height="385" viewBox="0 0 385 385" fill="none" xmlns="http://www.w3.org/2000/svg">
<path d="M361.61 132.029H331.597C311.878 132.029 295.894 148.014 295.894 167.732V229.052C295.894 235.156 298.434 240.66 302.511 244.578H355.938C367.837 244.578 377.48 234.935 377.48 223.036V161.717C377.48 149.339 371.18 138.433 361.61 132.029Z" fill="#6A80FF"/>
<path d="M39.8712 107.661H76.2733V221.373H39.8712V107.661Z" fill="#6A80FF"/>
<path d="M88.3222 377.454V269.405C88.3222 261.265 73.6914 280.452 57.6507 260.149C52.1462 253.182 70.5338 227.583 62.2799 224.091C44.8029 229.422 32.0843 245.668 32.0843 264.893V377.454H88.3222Z" fill="#6A80FF"/>
<path d="M296.27 244.578H350.41V377.454H296.27V244.578Z" fill="#FFB954"/>
<path d="M144.111 13.3828L198.686 67.9582C204.81 74.0825 204.81 84.0106 198.686 90.1378C192.559 96.2621 182.631 96.2621 176.506 90.1378L136.206 49.8379L144.111 13.3828Z" fill="#6A80FF"/>
<path d="M129.544 23.933L62.7675 90.71L79.1959 106.851L144.137 41.9094C150.49 35.556 151.709 26.0185 147.806 18.4343C141.408 17.1419 134.506 18.9719 129.544 23.933Z" fill="#6A80FF"/>
<path d="M150.026 27.5756C150.026 38.6698 141.035 47.661 129.941 47.661C118.85 47.661 109.859 38.6698 109.859 27.5756C109.859 16.4843 118.85 7.49316 129.941 7.49316C141.035 7.49316 150.026 16.4843 150.026 27.5756Z" fill="#6A80FF"/>
<path d="M76.2733 107.662C76.2733 122.072 64.5887 133.757 50.1753 133.757C35.7648 133.757 24.0801 122.072 24.0801 107.662C24.0801 93.2481 35.7648 81.5635 50.1753 81.5635C64.5887 81.5635 76.2733 93.2481 76.2733 107.662Z" fill="#6A80FF"/>
<path d="M62.9585 262.626C62.9585 272.595 60.1445 280.673 50.1753 280.673C40.2089 280.673 32.1284 272.595 32.1284 262.626C32.1284 252.66 40.2089 244.579 50.1753 244.579C60.1445 244.579 62.9585 252.66 62.9585 262.626Z" fill="#6A80FF"/>
<path d="M310.557 220.733H114.796C104.577 224.346 97.2516 234.089 97.2516 245.548C97.2516 260.082 109.036 271.866 123.57 271.866H319.33C329.549 268.25 336.875 258.51 336.875 247.052C336.875 232.515 325.09 220.733 310.557 220.733Z" fill="#6A80FF"/>
<path d="M315.444 99.516C315.444 111.004 323.02 120.72 333.444 123.946C342.538 120.027 348.906 110.986 348.906 100.456V83.5928H315.444V99.516Z" fill="#FFB954"/>
<path d="M323.34 50.7539C306.491 50.7539 292.83 64.4154 292.83 81.2638V83.596H353.85V81.2638C353.85 64.4154 340.188 50.7539 323.34 50.7539Z" fill="#FFC66C"/>
<path d="M137.557 166.593H172.523V220.733H137.557V166.593Z" fill="#FFB954"/>
<path d="M236.363 166.593H272.207V220.733H236.363V166.593Z" fill="#FFB954"/>
<path d="M124.915 275.373H296.27V377.451H124.915V275.373Z" fill="#6A80FF"/>
<path d="M350.463 119.372C354.214 114.006 356.426 107.485 356.426 100.456V90.6512C359.307 89.5966 361.369 86.8385 361.369 83.5928V81.2635C361.369 60.294 344.309 43.234 323.34 43.234C302.37 43.234 285.31 60.294 285.31 81.2635V83.5928C285.31 86.8385 287.372 89.5966 290.254 90.6512V100.456C290.254 107.485 292.463 114.006 296.217 119.372C277.371 123.232 262.963 139.396 261.768 159.073H218.066C213.913 159.073 210.547 162.439 210.547 166.593V213.214H180.043V166.593C180.043 162.439 176.674 159.073 172.523 159.073H118.383C114.229 159.073 110.863 162.439 110.863 166.593V213.214H83.7928V112.887L136.206 60.4732L171.19 95.4537C173.977 98.2441 177.308 100.171 180.845 101.24V113.938L165.127 129.656C163.717 131.066 162.924 132.978 162.924 134.972V148.86C162.924 153.01 166.293 156.38 170.444 156.38C174.597 156.38 177.963 153.01 177.963 148.86V138.089L188.364 127.688L198.765 138.089V147.732C198.765 151.885 202.134 155.252 206.285 155.252C210.438 155.252 213.804 151.885 213.804 147.732V134.972C213.804 132.978 213.011 131.066 211.601 129.656L195.884 113.938V100.709C198.845 99.5806 201.62 97.8329 204.003 95.4537C208.385 91.0712 210.799 85.2435 210.799 79.0458C210.799 72.8481 208.385 67.0234 204.003 62.6409L149.43 8.06553C149.415 8.05379 149.401 8.04204 149.389 8.03029C138.594 -2.6968 121.085 -2.67624 110.314 8.08903L43.7337 74.6692C28.2717 77.6858 16.5606 91.3267 16.5606 107.661V146.604C16.5606 150.755 19.9297 154.124 24.0801 154.124C28.2335 154.124 31.5997 150.755 31.5997 146.604V135.657C36.925 139.205 43.3137 141.276 50.1752 141.276C57.0398 141.276 63.4284 139.205 68.7538 135.657V215.901C68.3984 216.051 68.0518 216.213 67.7022 216.374C62.1008 214.286 56.2144 213.214 50.1752 213.214C43.6133 213.214 37.348 214.491 31.5997 216.791V202.246C31.5997 198.095 28.2335 194.726 24.0801 194.726C19.9268 194.726 16.5606 198.095 16.5606 202.246V226.17C6.39748 235.361 0 248.641 0 263.389V377.454C0 381.604 3.36616 384.973 7.51953 384.973H350.41C354.561 384.973 357.93 381.604 357.93 377.454V252.021C373.027 250.996 385 238.392 385 223.036V161.717C385 140.859 370.149 123.402 350.463 119.372ZM322.935 118.494C313.171 118.277 305.293 110.272 305.293 100.456V91.1123H341.387V100.456C341.387 110.272 333.509 118.277 323.745 118.494H322.935ZM345.74 76.0732H330.859V59.5391C338.256 62.1092 343.951 68.351 345.74 76.0732ZM315.82 59.5391V76.0732H300.94C302.729 68.351 308.424 62.1092 315.82 59.5391ZM310.557 228.253C320.922 228.253 329.355 236.686 329.355 247.052C329.355 257.417 320.922 265.85 310.557 265.85H81.9629C71.5971 265.85 63.1641 257.417 63.1641 247.052C63.1641 236.686 71.5971 228.253 81.9629 228.253H310.557ZM303.789 280.889H310.557C312.348 280.889 314.105 280.746 315.82 280.478V369.934H303.789V280.889ZM48.5245 252.242C49.5937 259.174 52.7836 265.413 57.3981 270.286C55.4771 272.101 52.9128 273.153 50.1752 273.153C44.3711 273.153 39.6479 268.432 39.6479 262.625C39.6479 257.385 43.5017 253.038 48.5245 252.242ZM225.586 174.112H264.688V213.214H225.586V174.112ZM125.902 174.112H165.004V213.214H125.902V174.112ZM110.423 47.0966C113.589 50.2601 117.387 52.5571 121.534 53.8759L81.0464 94.3639C77.5863 86.3656 71.1124 79.9681 63.0583 76.6137L103.67 36.0053C104.962 40.0617 107.209 43.8802 110.423 47.0966ZM195.76 79.0458C195.76 81.2253 194.909 83.2755 193.367 84.8176C190.185 88.0017 185.004 88.0017 181.823 84.8176L146.839 49.8371L149.454 47.2258C152.611 44.0653 154.905 40.2732 156.233 36.1375L193.367 73.274C194.909 74.8161 195.76 76.8663 195.76 79.0458ZM138.818 18.7251C141.206 21.1102 142.519 24.2825 142.519 27.6574C142.519 30.7328 141.417 33.6319 139.42 35.9289C139.217 36.0934 139.017 36.2697 138.826 36.4606C133.927 41.36 125.955 41.36 121.056 36.4606C116.159 31.5611 116.159 23.5922 121.056 18.6927C121.17 18.5782 121.273 18.4578 121.379 18.3373C126.331 13.8168 134.03 13.9343 138.818 18.7251ZM50.1752 126.237C39.9328 126.237 31.5997 117.904 31.5997 107.661C31.5997 97.4158 39.9328 89.0826 50.1752 89.0826C60.4206 89.0826 68.7538 97.4158 68.7538 107.661C68.7538 117.904 60.4206 126.237 50.1752 126.237ZM15.0391 263.389C15.0391 244.014 30.8007 228.253 50.1752 228.253C51.3707 228.253 52.5545 228.314 53.7265 228.432C51.9758 231.078 50.5835 233.98 49.6289 237.073C35.7824 237.367 24.6088 248.711 24.6088 262.625C24.6088 276.724 36.0791 288.192 50.1752 288.192C58.0061 288.192 65.2496 284.655 70.0462 278.716C73.756 280.117 77.7713 280.889 81.9629 280.889H85.3144V369.931H15.0391V263.389ZM288.75 369.934H100.353V316.983H188.364C192.518 316.983 195.884 313.614 195.884 309.464C195.884 305.31 192.518 301.944 188.364 301.944H100.353V280.889H288.75V369.934ZM330.859 369.934V274.104C336.49 269.866 340.761 263.918 342.891 257.035V369.934H330.859ZM369.961 223.036C369.961 230.091 364.718 235.931 357.93 236.903V172.969C357.93 168.816 354.564 165.45 350.41 165.45C346.257 165.45 342.891 168.816 342.891 172.969V219.652V219.667V237.068C338.62 223.268 325.74 213.214 310.557 213.214H303.789V172.969C303.789 168.816 300.423 165.45 296.27 165.45C292.116 165.45 288.75 168.816 288.75 172.969V213.214H279.727V166.593C279.727 164.149 278.555 161.981 276.748 160.609C277.333 145.579 289.734 133.533 304.905 133.533H322.935C323.07 133.533 323.205 133.542 323.34 133.542C323.478 133.542 323.61 133.536 323.745 133.533H341.777C357.319 133.533 369.961 146.175 369.961 161.717V223.036Z" fill="#2E2556"/>
<path d="M24.0772 184.202C26.054 184.202 27.9956 183.397 29.3937 181.996C30.8007 180.598 31.5967 178.659 31.5967 176.683C31.5967 174.703 30.8007 172.764 29.3937 171.366C27.9956 169.965 26.0628 169.163 24.0772 169.163C22.1004 169.163 20.1588 169.965 18.7606 171.366C17.3625 172.764 16.5576 174.703 16.5576 176.683C16.5576 178.659 17.3625 180.598 18.7606 181.996C20.1588 183.397 22.1004 184.202 24.0772 184.202Z" fill="#2E2556"/>
<path d="M50.1782 100.139C48.1926 100.139 46.2598 100.943 44.8616 102.342C43.4635 103.743 42.6587 105.681 42.6587 107.658C42.6587 109.644 43.4635 111.577 44.8616 112.975C46.2598 114.373 48.1926 115.178 50.1782 115.178C52.155 115.178 54.0936 114.373 55.4947 112.975C56.8929 111.577 57.6977 109.638 57.6977 107.658C57.6977 105.681 56.8929 103.743 55.4947 102.342C54.0936 100.943 52.155 100.139 50.1782 100.139Z" fill="#2E2556"/>
<path d="M124.622 32.8917C126.026 34.2899 127.958 35.0947 129.938 35.0947C131.921 35.0947 133.854 34.2899 135.261 32.8917C136.659 31.4936 137.464 29.5549 137.464 27.5752C137.464 25.5984 136.659 23.6598 135.261 22.2587C133.854 20.8634 131.921 20.0557 129.938 20.0557C127.958 20.0557 126.026 20.8605 124.622 22.2587C123.223 23.6598 122.424 25.5984 122.424 27.5752C122.424 29.5549 123.223 31.4936 124.622 32.8917Z" fill="#2E2556"/>
<path d="M151.895 239.529C149.918 239.529 147.976 240.334 146.578 241.732C145.18 243.133 144.375 245.072 144.375 247.049C144.375 249.026 145.18 250.967 146.578 252.365C147.976 253.769 149.918 254.568 151.895 254.568C153.871 254.568 155.813 253.769 157.211 252.365C158.609 250.967 159.414 249.026 159.414 247.049C159.414 245.072 158.609 243.13 157.211 241.732C155.813 240.334 153.871 239.529 151.895 239.529Z" fill="#2E2556"/>
<path d="M103.77 239.529C101.793 239.529 99.8511 240.334 98.453 241.732C97.0548 243.133 96.25 245.072 96.25 247.049C96.25 249.034 97.0548 250.967 98.453 252.365C99.8511 253.764 101.784 254.568 103.77 254.568C105.746 254.568 107.688 253.764 109.086 252.365C110.484 250.967 111.289 249.034 111.289 247.049C111.289 245.072 110.484 243.13 109.086 241.732C107.688 240.334 105.746 239.529 103.77 239.529Z" fill="#2E2556"/>
<path d="M296.27 254.568C298.246 254.568 300.188 253.769 301.586 252.365C302.984 250.967 303.789 249.034 303.789 247.049C303.789 245.072 302.984 243.13 301.586 241.732C300.188 240.334 298.246 239.529 296.27 239.529C294.293 239.529 292.351 240.334 290.953 241.732C289.555 243.133 288.75 245.072 288.75 247.049C288.75 249.034 289.555 250.967 290.953 252.365C292.351 253.772 294.293 254.568 296.27 254.568Z" fill="#2E2556"/>
<path d="M200.02 239.529C198.043 239.529 196.101 240.334 194.703 241.732C193.305 243.133 192.5 245.072 192.5 247.049C192.5 249.026 193.305 250.967 194.703 252.365C196.101 253.769 198.043 254.568 200.02 254.568C201.996 254.568 203.938 253.769 205.336 252.365C206.734 250.967 207.539 249.034 207.539 247.049C207.539 245.072 206.734 243.13 205.336 241.732C203.938 240.334 201.996 239.529 200.02 239.529Z" fill="#2E2556"/>
<path d="M248.145 239.529C246.168 239.529 244.226 240.334 242.828 241.732C241.43 243.133 240.625 245.072 240.625 247.049C240.625 249.026 241.43 250.967 242.828 252.365C244.226 253.769 246.168 254.568 248.145 254.568C250.121 254.568 252.063 253.769 253.461 252.365C254.859 250.967 255.664 249.026 255.664 247.049C255.664 245.072 254.859 243.13 253.461 241.732C252.063 240.334 250.121 239.529 248.145 239.529Z" fill="#2E2556"/>
<path d="M217.238 316.98C219.218 316.98 221.156 316.182 222.555 314.777C223.953 313.379 224.758 311.447 224.758 309.461C224.758 307.484 223.953 305.543 222.555 304.144C221.156 302.746 219.224 301.941 217.238 301.941C215.261 301.941 213.32 302.746 211.922 304.144C210.523 305.543 209.719 307.484 209.719 309.461C209.719 311.447 210.523 313.379 211.922 314.777C213.32 316.184 215.261 316.98 217.238 316.98Z" fill="#2E2556"/>
</svg>
