<svg width="101" height="101" viewBox="0 0 101 101" fill="none" xmlns="http://www.w3.org/2000/svg">
<path d="M25.3322 43.7438C30.4195 48.831 38.6546 48.832 43.7428 43.7438C48.8185 38.6681 48.8185 30.409 43.7428 25.3333C43.5797 25.1701 23.1602 4.75068 22.2255 3.81593C17.1382 -1.27148 8.9031 -1.27247 3.8149 3.81593C-1.26085 8.89168 -1.26085 17.1507 3.8149 22.2265L25.3322 43.7438ZM41.6453 41.6463C37.7173 45.5744 31.3584 45.5752 27.4295 41.6463L19.6213 33.8383L20.91 32.5496C21.4892 31.9704 21.4892 31.0313 20.91 30.4523C20.3308 29.8731 19.3918 29.8731 18.8128 30.4523L17.524 31.741L15.8177 30.0347L30.0335 15.8189L31.7398 17.5253L23.7068 25.5583C23.1276 26.1375 23.1276 27.0766 23.7068 27.6556C24.286 28.2348 25.2251 28.2348 25.8041 27.6556L33.8371 19.6226L41.6451 27.4306C45.5644 31.3499 45.5644 37.727 41.6453 41.6463ZM5.91219 5.91342C9.83152 1.99429 16.2084 1.9941 20.128 5.91342L27.936 13.7214L13.7202 27.9372L5.91219 20.1292C1.98416 16.201 1.98337 9.84224 5.91219 5.91342Z" fill="url(#paint0_linear)"/>
<path d="M94.681 50.4017L94.0032 50.0104C87.9596 46.5212 80.2444 48.5878 76.7546 54.6321L75.156 57.401C74.7464 58.1103 74.9895 59.0173 75.6988 59.4269C76.4081 59.8364 77.3152 59.5934 77.7247 58.8841L79.3233 56.1152C81.9928 51.4913 87.8954 49.9092 92.5201 52.5793L93.1979 52.9707C97.8111 55.6341 99.3975 61.5542 96.734 66.1674L89.6723 78.3986L72.2616 68.3466L74.2641 64.8781C74.6737 64.1688 74.4306 63.2618 73.7213 62.8522C73.012 62.4425 72.1049 62.6857 71.6954 63.395L61.1482 81.6634C57.659 87.7067 59.7255 95.4224 65.77 98.912L66.4478 99.3034C72.502 102.799 80.2137 100.714 83.6964 94.6816L99.3027 67.6507C102.784 61.6209 100.711 53.8831 94.681 50.4017ZM81.1277 93.1983C78.4581 97.822 72.5554 99.4046 67.9309 96.7344L67.2531 96.3431C62.6294 93.6735 61.047 87.7708 63.717 83.1463L70.7785 70.9151L88.1892 80.9672L81.1277 93.1983Z" fill="url(#paint1_linear)"/>
<path d="M70.2616 42.1797C78.2992 42.1797 84.8382 35.6406 84.8382 27.603C84.8382 19.5654 78.2992 13.0264 70.2616 13.0264C62.224 13.0264 55.6849 19.5654 55.6849 27.603C55.6849 35.6408 62.224 42.1797 70.2616 42.1797ZM70.2616 15.9926C76.6636 15.9926 81.872 21.201 81.872 27.603C81.872 34.005 76.6636 39.2135 70.2616 39.2135C63.8595 39.2135 58.6511 34.005 58.6511 27.603C58.6511 21.201 63.8595 15.9926 70.2616 15.9926Z" fill="url(#paint2_linear)"/>
<path d="M27.3971 55.2266C15.7523 55.2266 6.27844 64.7004 6.27844 76.3454C6.27844 87.963 15.7281 97.4641 27.3971 97.4641C39.0422 97.4641 48.516 87.9903 48.516 76.3454C48.5158 64.7273 39.0657 55.2266 27.3971 55.2266ZM27.3971 58.1928C32.4561 58.1928 37.0374 60.2736 40.3325 63.6236L19.7196 75.5244C19.0103 75.9339 18.7673 76.841 19.1768 77.5503C19.5875 78.262 20.4954 78.5017 21.2027 78.0931L42.2597 65.9359C42.865 66.7975 43.397 67.714 43.8474 68.6763L12.5343 86.7548C11.929 85.8932 11.3971 84.9767 10.9466 84.0144L15.2091 81.5535C15.9184 81.1439 16.1614 80.2369 15.7519 79.5276C15.3423 78.8181 14.4351 78.575 13.726 78.9848L9.90253 81.1922C9.47441 79.6486 9.24444 78.0235 9.24444 76.3454C9.24444 66.3359 17.3876 58.1928 27.3971 58.1928ZM27.3971 94.4979C22.3382 94.4979 17.7568 92.4171 14.4618 89.067L44.8917 71.4983C45.3198 73.0419 45.5498 74.6672 45.5498 76.3452C45.5496 86.3548 37.4064 94.4979 27.3971 94.4979Z" fill="url(#paint3_linear)"/>
<defs>
<linearGradient id="paint0_linear" x1="23.7788" y1="0" x2="23.7788" y2="47.5596" gradientUnits="userSpaceOnUse">
<stop stop-color="#7F46C5"/>
<stop offset="1" stop-color="#1C5DA9"/>
</linearGradient>
<linearGradient id="paint1_linear" x1="80.2221" y1="48.3145" x2="80.2221" y2="100.999" gradientUnits="userSpaceOnUse">
<stop stop-color="#7F46C5"/>
<stop offset="1" stop-color="#1C5DA9"/>
</linearGradient>
<linearGradient id="paint2_linear" x1="70.2616" y1="13.0264" x2="70.2616" y2="42.1797" gradientUnits="userSpaceOnUse">
<stop stop-color="#7F46C5"/>
<stop offset="1" stop-color="#1C5DA9"/>
</linearGradient>
<linearGradient id="paint3_linear" x1="27.3972" y1="55.2266" x2="27.3972" y2="97.4641" gradientUnits="userSpaceOnUse">
<stop stop-color="#7F46C5"/>
<stop offset="1" stop-color="#1C5DA9"/>
</linearGradient>
</defs>
</svg>
