<svg width="29" height="29" viewBox="0 0 29 29" fill="none" xmlns="http://www.w3.org/2000/svg">
<path d="M4.24805 29H24.752C27.0944 29 29 27.0944 29 24.752V4.24805C29 1.90565 27.0944 0 24.752 0H4.24805C1.90565 0 0 1.90565 0 4.24805V24.752C0 27.0944 1.90565 29 4.24805 29ZM1.69922 4.24805C1.69922 2.84265 2.84265 1.69922 4.24805 1.69922H24.752C26.1573 1.69922 27.3008 2.84265 27.3008 4.24805V24.752C27.3008 26.1573 26.1573 27.3008 24.752 27.3008H4.24805C2.84265 27.3008 1.69922 26.1573 1.69922 24.752V4.24805Z" fill="white"/>
<path d="M14.5 22.1465C18.7162 22.1465 22.1465 18.7162 22.1465 14.5C22.1465 10.2838 18.7162 6.85352 14.5 6.85352C10.2838 6.85352 6.85352 10.2838 6.85352 14.5C6.85352 18.7162 10.2838 22.1465 14.5 22.1465ZM14.5 8.55273C17.7794 8.55273 20.4473 11.2206 20.4473 14.5C20.4473 17.7794 17.7794 20.4473 14.5 20.4473C11.2206 20.4473 8.55273 17.7794 8.55273 14.5C8.55273 11.2206 11.2206 8.55273 14.5 8.55273Z" fill="white"/>
<path d="M22.9961 8.55273C24.4015 8.55273 25.5449 7.4093 25.5449 6.00391C25.5449 4.59851 24.4015 3.45508 22.9961 3.45508C21.5907 3.45508 20.4473 4.59851 20.4473 6.00391C20.4473 7.4093 21.5907 8.55273 22.9961 8.55273ZM22.9961 5.1543C23.4645 5.1543 23.8457 5.53551 23.8457 6.00391C23.8457 6.4723 23.4645 6.85352 22.9961 6.85352C22.5277 6.85352 22.1465 6.4723 22.1465 6.00391C22.1465 5.53551 22.5277 5.1543 22.9961 5.1543Z" fill="white"/>
</svg>
