<svg width="101" height="101" viewBox="0 0 101 101" fill="none" xmlns="http://www.w3.org/2000/svg">
<path d="M9.25731 101H32.824C33.5752 100.997 34.3158 100.824 34.9906 100.495C35.3054 100.818 35.7386 101.001 36.1906 101H95.1073C96.0369 101 96.7906 100.246 96.7906 99.3167V72.3833C96.7841 66.5311 92.4828 61.5707 86.6906 60.7348V50.5C86.6906 49.5704 85.9369 48.8167 85.0073 48.8167H46.2906C45.361 48.8167 44.6073 49.5704 44.6073 50.5V60.7348C42.0478 61.1022 39.6814 62.3031 37.874 64.1516V31.9833C37.8699 28.6405 35.8873 25.6174 32.824 24.2801V18.5167C32.824 17.5871 32.0703 16.8333 31.1406 16.8333H26.0906V10.1H42.924C43.6045 10.1 44.2185 9.68985 44.4791 9.06107C44.7396 8.43228 44.595 7.70815 44.1141 7.2265L40.7475 3.85983C40.4902 3.60256 40.1565 3.43571 39.7965 3.38311L16.2298 0.0164388C16.1509 0.00575359 16.0704 0 15.9906 0H9.25731C8.32769 0 7.57397 0.753719 7.57397 1.68333V8.41667C7.57397 9.34628 8.32769 10.1 9.25731 10.1H15.9906V16.8333H10.9406C10.011 16.8333 9.25731 17.5871 9.25731 18.5167V24.2801C6.19394 25.6174 4.21142 28.6405 4.20731 31.9833V95.95C4.20731 98.7388 6.46846 101 9.25731 101ZM93.424 85.85H78.966C80.2877 82.6132 80.2877 78.9868 78.966 75.75H93.424V85.85ZM47.974 52.1833H51.3406V55.55C51.3406 56.4796 52.0944 57.2333 53.024 57.2333C53.9536 57.2333 54.7073 56.4796 54.7073 55.55V52.1833H58.074V55.55C58.074 56.4796 58.8277 57.2333 59.7573 57.2333C60.6869 57.2333 61.4406 56.4796 61.4406 55.55V52.1833H69.8573V55.55C69.8573 56.4796 70.611 57.2333 71.5406 57.2333C72.4703 57.2333 73.224 56.4796 73.224 55.55V52.1833H76.5906V55.55C76.5906 56.4796 77.3444 57.2333 78.274 57.2333C79.2036 57.2333 79.9573 56.4796 79.9573 55.55V52.1833H83.324V60.6H47.974V52.1833ZM46.2906 63.9667H85.0073C89.6537 63.9724 93.4182 67.7369 93.424 72.3833H76.986C74.4372 69.1917 70.5749 67.3333 66.4906 67.3333C62.4064 67.3333 58.5441 69.1917 55.9953 72.3833H37.874C37.8797 67.7369 41.6442 63.9724 46.2906 63.9667ZM76.5906 80.8C76.5906 86.3777 72.0683 90.9 66.4906 90.9C60.913 90.9 56.3906 86.3777 56.3906 80.8C56.3906 75.2223 60.913 70.7 66.4906 70.7C72.0667 70.7057 76.5849 75.224 76.5906 80.8ZM37.874 75.75H54.0152C52.6936 78.9868 52.6936 82.6132 54.0152 85.85H37.874V75.75ZM37.874 89.2167H55.9953C58.5441 92.4082 62.4064 94.2667 66.4906 94.2667C70.5749 94.2667 74.4372 92.4082 76.986 89.2167H93.424V97.6333H37.874V89.2167ZM34.5073 77.4333H22.724V43.7667H34.5073V77.4333ZM10.9406 6.73333V3.36667H15.8715L38.7641 6.63717L38.8603 6.73333H10.9406ZM22.724 10.1V16.8333H19.3573V10.1H22.724ZM12.624 20.2H29.4573V23.5667H12.624V20.2ZM7.57397 31.9833C7.57397 29.1945 9.83513 26.9333 12.624 26.9333H29.4573C32.2461 26.9333 34.5073 29.1945 34.5073 31.9833V33.6667H7.57397V31.9833ZM7.57397 37.0333H10.9406V79.1167C10.9406 80.0463 11.6944 80.8 12.624 80.8C13.5536 80.8 14.3073 80.0463 14.3073 79.1167V37.0333H34.5073V40.4H21.0406C20.111 40.4 19.3573 41.1537 19.3573 42.0833V79.1167C19.3573 80.0463 20.111 80.8 21.0406 80.8H34.5073V95.95C34.5073 96.8796 33.7536 97.6333 32.824 97.6333H9.25731C8.32769 97.6333 7.57397 96.8796 7.57397 95.95V37.0333Z" fill="url(#paint0_linear)"/>
<path d="M12.6239 89.1838C13.5535 89.1838 14.3072 88.4301 14.3072 87.5005V85.8171C14.3072 84.8875 13.5535 84.1338 12.6239 84.1338C11.6943 84.1338 10.9406 84.8875 10.9406 85.8171V87.5005C10.9406 88.4301 11.6943 89.1838 12.6239 89.1838Z" fill="url(#paint1_linear)"/>
<defs>
<linearGradient id="paint0_linear" x1="50.499" y1="0" x2="50.499" y2="101" gradientUnits="userSpaceOnUse">
<stop stop-color="#7F46C5"/>
<stop offset="1" stop-color="#1C5DA9"/>
</linearGradient>
<linearGradient id="paint1_linear" x1="12.6239" y1="84.1338" x2="12.6239" y2="89.1838" gradientUnits="userSpaceOnUse">
<stop stop-color="#7F46C5"/>
<stop offset="1" stop-color="#1C5DA9"/>
</linearGradient>
</defs>
</svg>
