<svg width="95" height="101" viewBox="0 0 95 101" fill="none" xmlns="http://www.w3.org/2000/svg">
<path d="M94.0012 22.2854L48.1433 0.147062C47.7367 -0.0490205 47.2633 -0.0490205 46.8569 0.147062L0.998761 22.2854C0.487448 22.5322 0.162552 23.05 0.162552 23.6177V77.3823C0.162552 77.95 0.487448 78.4678 0.998761 78.7146L46.8567 100.853C47.0599 100.951 47.28 101 47.5 101C47.7199 101 47.9399 100.951 48.1433 100.853L94.0012 78.7146C94.5125 78.4678 94.8374 77.95 94.8374 77.3823V23.6179C94.8374 23.0498 94.5123 22.5324 94.0012 22.2854ZM47.5 3.12242L89.9549 23.6177L77.6481 29.559C77.5702 29.4996 77.4879 29.4448 77.3976 29.4012L35.231 9.04532L47.5 3.12242ZM31.8898 10.7181L74.2829 31.1836L65.6003 35.3753L23.2247 14.9181L31.8898 10.7181ZM75.2748 33.9903V49.4848L67.1646 53.4001V37.9057L75.2748 33.9903ZM91.8784 76.4539L48.9795 97.1633V46.6846L59.2122 41.7447C59.948 41.3894 60.2566 40.505 59.9013 39.769C59.546 39.0334 58.6617 38.7245 57.9257 39.08L47.5 44.1132L43.3976 42.1327C42.6617 41.777 41.7773 42.0859 41.422 42.8217C41.0668 43.5575 41.3753 44.4421 42.1111 44.7973L46.0205 46.6846V97.1633L3.12154 76.4535V25.9748L35.7887 41.7453C35.996 41.8455 36.2152 41.8928 36.4308 41.8928C36.9808 41.8928 37.5091 41.5847 37.7641 41.0562C38.1194 40.3204 37.8109 39.4359 37.0751 39.0806L5.04507 23.6177L19.7423 16.5225L64.1851 37.9777C64.1916 37.9867 64.1989 37.9948 64.2056 38.0037V55.7574C64.2056 56.2666 64.4674 56.7398 64.8986 57.0106C65.1381 57.161 65.4113 57.2369 65.6853 57.2369C65.9047 57.2369 66.1246 57.1882 66.3284 57.0897L77.3976 51.746C77.9089 51.4992 78.2338 50.9816 78.2338 50.4137V32.5621L91.8784 25.975V76.4539Z" fill="url(#paint0_linear)"/>
<defs>
<linearGradient id="paint0_linear" x1="47.5" y1="0" x2="47.5" y2="101" gradientUnits="userSpaceOnUse">
<stop stop-color="#7F46C5"/>
<stop offset="1" stop-color="#1C5DA9"/>
</linearGradient>
</defs>
</svg>
