<svg width="70" height="70" viewBox="0 0 70 70" fill="none" xmlns="http://www.w3.org/2000/svg">
<g clip-path="url(#clip0)">
<path d="M62.0007 21.0003H63.2502C63.8953 21.0003 64.4168 20.4788 64.4168 19.8337C64.4168 19.1885 63.8953 18.667 63.2502 18.667H62.0007C61.3555 18.667 60.834 19.1885 60.834 19.8337C60.834 20.4788 61.3555 21.0003 62.0007 21.0003Z" fill="#393939"/>
<path d="M55.7487 21.0003H56.9982C57.6434 21.0003 58.1649 20.4788 58.1649 19.8337C58.1649 19.1885 57.6434 18.667 56.9982 18.667H55.7487C55.1035 18.667 54.582 19.1885 54.582 19.8337C54.582 20.4788 55.1035 21.0003 55.7487 21.0003Z" fill="#393939"/>
<path d="M68.2497 18.667C67.6045 18.667 67.083 19.1885 67.083 19.8337C67.083 20.3062 67.3642 20.7145 67.769 20.8977C67.9522 21.3025 68.3605 21.5837 68.833 21.5837C69.4782 21.5837 69.9997 21.0622 69.9997 20.417V18.667H68.2497Z" fill="#393939"/>
<path d="M68.8337 30.2891C68.1885 30.2891 67.667 30.8106 67.667 31.4557V32.6819C67.667 33.3271 68.1885 33.8486 68.8337 33.8486C69.4788 33.8486 70.0003 33.3271 70.0003 32.6819V31.4557C70.0003 30.8106 69.4788 30.2891 68.8337 30.2891Z" fill="#393939"/>
<path d="M68.8337 60.9502C68.1885 60.9502 67.667 61.4717 67.667 62.1169V63.3442C67.667 63.9894 68.1885 64.5109 68.8337 64.5109C69.4788 64.5109 70.0003 63.9894 70.0003 63.3442V62.1169C70.0003 61.4717 69.4788 60.9502 68.8337 60.9502Z" fill="#393939"/>
<path d="M68.8337 24.1562C68.1885 24.1562 67.667 24.6778 67.667 25.3229V26.5503C67.667 27.1954 68.1885 27.7169 68.8337 27.7169C69.4788 27.7169 70.0003 27.1954 70.0003 26.5503V25.3229C70.0003 24.6778 69.4788 24.1562 68.8337 24.1562Z" fill="#393939"/>
<path d="M68.8337 36.4209C68.1885 36.4209 67.667 36.9424 67.667 37.5876V38.8149C67.667 39.4601 68.1885 39.9816 68.8337 39.9816C69.4788 39.9816 70.0003 39.4601 70.0003 38.8149V37.5876C70.0003 36.9424 69.4788 36.4209 68.8337 36.4209Z" fill="#393939"/>
<path d="M68.8337 42.5537C68.1885 42.5537 67.667 43.0752 67.667 43.7204V44.9465C67.667 45.5917 68.1885 46.1132 68.8337 46.1132C69.4788 46.1132 70.0003 45.5917 70.0003 44.9465V43.7204C70.0003 43.0752 69.4788 42.5537 68.8337 42.5537Z" fill="#393939"/>
<path d="M68.8337 48.6846C68.1885 48.6846 67.667 49.2061 67.667 49.8512V51.0786C67.667 51.7237 68.1885 52.2452 68.8337 52.2452C69.4788 52.2452 70.0003 51.7237 70.0003 51.0786V49.8512C70.0003 49.2072 69.4788 48.6846 68.8337 48.6846Z" fill="#393939"/>
<path d="M68.8337 54.8184C68.1885 54.8184 67.667 55.3399 67.667 55.985V57.2112C67.667 57.8564 68.1885 58.3779 68.8337 58.3779C69.4788 58.3779 70.0003 57.8564 70.0003 57.2112V55.985C70.0003 55.341 69.4788 54.8184 68.8337 54.8184Z" fill="#393939"/>
<path d="M68.833 67.083C68.3605 67.083 67.9522 67.3642 67.769 67.769C67.3642 67.9522 67.083 68.3605 67.083 68.833C67.083 69.4782 67.6045 69.9997 68.2497 69.9997H69.9997V68.2497C69.9997 67.6045 69.4782 67.083 68.833 67.083Z" fill="#393939"/>
<path d="M32.6819 67.667H31.4557C30.8106 67.667 30.2891 68.1885 30.2891 68.8337C30.2891 69.4788 30.8106 70.0003 31.4557 70.0003H32.6819C33.3271 70.0003 33.8486 69.4788 33.8486 68.8337C33.8486 68.1885 33.3259 67.667 32.6819 67.667Z" fill="#393939"/>
<path d="M38.8149 67.667H37.5876C36.9424 67.667 36.4209 68.1885 36.4209 68.8337C36.4209 69.4788 36.9424 70.0003 37.5876 70.0003H38.8149C39.4601 70.0003 39.9816 69.4788 39.9816 68.8337C39.9816 68.1885 39.4589 67.667 38.8149 67.667Z" fill="#393939"/>
<path d="M26.5503 67.667H25.3229C24.6778 67.667 24.1562 68.1885 24.1562 68.8337C24.1562 69.4788 24.6778 70.0003 25.3229 70.0003H26.5503C27.1954 70.0003 27.7169 69.4788 27.7169 68.8337C27.7169 68.1885 27.1954 67.667 26.5503 67.667Z" fill="#393939"/>
<path d="M63.3442 67.667H62.1169C61.4717 67.667 60.9502 68.1885 60.9502 68.8337C60.9502 69.4788 61.4717 70.0003 62.1169 70.0003H63.3442C63.9894 70.0003 64.5109 69.4788 64.5109 68.8337C64.5109 68.1885 63.9894 67.667 63.3442 67.667Z" fill="#393939"/>
<path d="M44.9456 67.667H43.7194C43.0742 67.667 42.5527 68.1885 42.5527 68.8337C42.5527 69.4788 43.0742 70.0003 43.7194 70.0003H44.9456C45.5907 70.0003 46.1122 69.4788 46.1122 68.8337C46.1122 68.1885 45.5907 67.667 44.9456 67.667Z" fill="#393939"/>
<path d="M57.2112 67.667H55.985C55.3399 67.667 54.8184 68.1885 54.8184 68.8337C54.8184 69.4788 55.3399 70.0003 55.985 70.0003H57.2112C57.8564 70.0003 58.3779 69.4788 58.3779 68.8337C58.3779 68.1885 57.8564 67.667 57.2112 67.667Z" fill="#393939"/>
<path d="M51.0786 67.667H49.8512C49.2061 67.667 48.6846 68.1885 48.6846 68.8337C48.6846 69.4788 49.2061 70.0003 49.8512 70.0003H51.0786C51.7237 70.0003 52.2452 69.4788 52.2452 68.8337C52.2452 68.1885 51.7237 67.667 51.0786 67.667Z" fill="#393939"/>
<path d="M20.8977 67.769C20.7145 67.3642 20.3062 67.083 19.8337 67.083C19.1885 67.083 18.667 67.6045 18.667 68.2497V69.9997H20.417C21.0622 69.9997 21.5837 69.4782 21.5837 68.833C21.5837 68.3605 21.3025 67.9522 20.8977 67.769Z" fill="#393939"/>
<path d="M21.0003 55.7487C21.0003 55.1035 20.4788 54.582 19.8337 54.582C19.1885 54.582 18.667 55.1035 18.667 55.7487V56.9982C18.667 57.6434 19.1885 58.1649 19.8337 58.1649C20.4788 58.1649 21.0003 57.6434 21.0003 56.9982V55.7487Z" fill="#393939"/>
<path d="M19.8337 60.833C19.1885 60.833 18.667 61.3545 18.667 61.9997V63.2492C18.667 63.8943 19.1885 64.4158 19.8337 64.4158C20.4788 64.4158 21.0003 63.8943 21.0003 63.2492V61.9997C21.0003 61.3545 20.4788 60.833 19.8337 60.833Z" fill="#393939"/>
<path d="M19.8333 51.9167C20.2603 51.9167 20.6185 51.6763 20.8215 51.3333H21V50.75V50.1667V21H50.1667H50.75H51.3333V20.8215C51.6763 20.6185 51.9167 20.2615 51.9167 19.8333C51.9167 19.4052 51.6763 19.0482 51.3333 18.8452V0H0V51.3333H18.8452C19.0482 51.6763 19.4063 51.9167 19.8333 51.9167ZM2.33333 2.33333H49V18.6667H18.6667V49H2.33333V2.33333Z" fill="#393939"/>
</g>
<defs>
<clipPath id="clip0">
<rect width="70" height="70" fill="#393939"/>
</clipPath>
</defs>
</svg>
