<svg width="101" height="101" viewBox="0 0 101 101" fill="none" xmlns="http://www.w3.org/2000/svg">
<g clip-path="url(#clip0)">
<path d="M71.7243 0C63.9053 0 56.5548 3.04489 51.0242 8.57549L8.57549 51.0242C3.04489 56.5532 0 63.9053 0 71.7243C0 87.8667 13.1333 101 29.2757 101C37.0947 101 44.4452 97.9551 49.9758 92.4245L92.4261 49.9734C97.9551 44.4468 101 37.0947 101 29.2757C101 13.1333 87.8667 0 71.7243 0V0ZM47.6723 90.121C42.7573 95.0359 36.2229 97.7419 29.2757 97.7419C14.9286 97.7419 3.25806 86.0699 3.25806 71.7243C3.25806 64.7755 5.9641 58.2427 10.879 53.3277L30.9516 33.2552L67.7448 70.0484L47.6723 90.121ZM90.121 47.6723L70.0484 67.7448L33.2552 30.9516L53.3277 10.879C58.2427 5.9641 64.7771 3.25806 71.7243 3.25806C86.0714 3.25806 97.7419 14.9301 97.7419 29.2757C97.7419 36.2229 95.0359 42.7573 90.121 47.6723Z" fill="#393939"/>
<path d="M87.9334 13.0664L85.6299 15.37C89.2379 18.978 91.2257 23.7776 91.2257 28.8795C91.2257 33.9813 89.2379 38.7809 85.6299 42.389L68.8965 59.1224L71.2 61.4259L87.9334 44.6925C92.1571 40.468 94.4837 34.8531 94.4837 28.8795C94.4837 22.9058 92.1571 17.2901 87.9334 13.0664Z" fill="#393939"/>
<path d="M17.9194 74.9355C14.3257 74.9355 11.4033 77.8579 11.4033 81.4517C11.4033 85.0454 14.3257 87.9678 17.9194 87.9678C21.5132 87.9678 24.4356 85.0454 24.4356 81.4517C24.4356 77.8579 21.5132 74.9355 17.9194 74.9355ZM17.9194 84.7097C16.1226 84.7097 14.6614 83.2485 14.6614 81.4517C14.6614 79.6548 16.1226 78.1936 17.9194 78.1936C19.7163 78.1936 21.1775 79.6548 21.1775 81.4517C21.1775 83.2485 19.7163 84.7097 17.9194 84.7097Z" fill="#393939"/>
<path d="M21.1775 52.1289C15.7869 52.1289 11.4033 56.5125 11.4033 61.9031C11.4033 67.2937 15.7869 71.6773 21.1775 71.6773C26.5681 71.6773 30.9517 67.2937 30.9517 61.9031C30.9517 56.5125 26.5681 52.1289 21.1775 52.1289ZM21.1775 68.4192C17.5838 68.4192 14.6614 65.4968 14.6614 61.9031C14.6614 58.3094 17.5838 55.387 21.1775 55.387C24.7712 55.387 27.6936 58.3094 27.6936 61.9031C27.6936 65.4968 24.7712 68.4192 21.1775 68.4192Z" fill="#393939"/>
</g>
<defs>
<clipPath id="clip0">
<rect width="101" height="101" fill="white"/>
</clipPath>
</defs>
</svg>
