<svg width="101" height="101" viewBox="0 0 101 101" fill="none" xmlns="http://www.w3.org/2000/svg">
<g clip-path="url(#clip0)">
<path d="M100.7 56.5505C100.45 56.0495 99.8237 55.799 99.3227 55.6738C96.4419 55.6738 71.6427 54.6718 71.6427 25.8646C71.6427 24.9878 70.8912 24.2363 70.0145 24.2363C69.1377 24.2363 68.3862 24.9878 68.3862 25.8646C68.3862 54.6718 43.587 55.6738 40.8315 55.6738C40.4557 55.6738 40.08 55.799 39.8295 56.0495C39.579 56.1748 39.4537 56.4253 39.3285 56.5505C39.078 57.0515 39.078 57.6777 39.3285 58.1787C39.579 58.6797 40.2052 59.0555 40.8315 59.0555C40.8315 59.0555 40.8315 59.0555 40.9567 59.0555C43.8375 59.0555 68.5115 60.0575 68.5115 88.8647C68.5115 89.7414 69.263 90.4929 70.1397 90.4929C71.0164 90.4929 71.7679 89.7414 71.7679 88.8647C71.7679 60.1827 96.4419 59.0555 99.3227 59.0555C99.9489 59.0555 100.45 58.6797 100.826 58.1787C101.076 57.6777 101.076 57.0515 100.7 56.5505ZM70.0145 76.5903C66.3822 64.6917 57.4896 59.5565 50.4756 57.302C57.4896 55.0475 66.3822 49.9123 70.0145 38.0137C73.6467 49.9123 82.5393 55.0475 89.5533 57.302C82.5393 59.5565 73.6467 64.6917 70.0145 76.5903Z" fill="#393939"/>
<path d="M49.3477 23.9856C50.2245 23.9856 50.976 23.2342 50.976 22.2322C50.976 21.3554 50.2245 20.6039 49.3477 20.6039C47.8447 20.6039 34.3179 20.1029 34.3179 4.32159C34.3179 3.44485 33.5664 2.69336 32.6896 2.69336C31.8129 2.69336 31.0614 3.44485 31.0614 4.32159C31.0614 20.1029 17.5345 20.6039 16.0316 20.6039C15.9063 20.6039 15.9063 20.6039 15.9063 20.6039C15.0296 20.7292 14.4033 21.3554 14.4033 22.2322C14.4033 23.1089 15.1548 23.8604 16.0316 23.8604C17.6598 23.8604 31.0614 24.3614 31.0614 40.1427C31.0614 41.0195 31.8129 41.771 32.6896 41.771C33.4411 41.8962 34.1926 41.1447 34.1926 40.268C34.1926 24.4866 47.7195 23.9856 49.2225 23.9856H49.3477ZM32.5644 31.1248C30.5604 26.3654 26.9282 23.7352 23.5465 22.2322C27.1787 20.7292 30.5604 17.8485 32.5644 13.3395C34.5684 18.099 38.2006 20.7292 41.5823 22.2322C37.9501 23.7352 34.5684 26.6159 32.5644 31.1248Z" fill="#393939"/>
<path d="M34.9444 77.0912C33.4414 77.0912 19.9146 76.5902 19.9146 60.8089C19.9146 59.9322 19.1631 59.1807 18.2863 59.1807C17.4096 59.1807 16.6581 59.9322 16.6581 60.8089C16.6581 76.5902 3.13122 77.0912 1.62823 77.0912C1.50299 77.0912 1.50299 77.0912 1.50299 77.0912C0.626244 77.2165 0 77.8427 0 78.7195C0 79.5962 0.751493 80.3477 1.62823 80.3477C3.25647 80.3477 16.6581 80.8487 16.6581 96.63C16.6581 97.5068 17.4096 98.2583 18.2863 98.2583C19.0378 98.5088 19.7893 97.7573 19.7893 96.7553C19.7893 80.9739 33.3162 80.473 34.8192 80.473H34.9444C35.8212 80.473 36.5727 79.7215 36.5727 78.7195C36.5727 77.8427 35.8212 77.0912 34.9444 77.0912ZM18.1611 87.7374C16.0318 82.9779 12.5249 80.3477 9.14316 78.8447C12.7754 77.3417 16.1571 74.461 18.1611 69.9521C20.1651 74.7115 23.7973 77.3417 27.179 78.8447C23.5468 80.3477 20.1651 83.2284 18.1611 87.7374Z" fill="#393939"/>
</g>
<defs>
<clipPath id="clip0">
<rect width="101" height="101" fill="#393939"/>
</clipPath>
</defs>
</svg>
