<svg width="101" height="101" viewBox="0 0 101 101" fill="none" xmlns="http://www.w3.org/2000/svg">
<g clip-path="url(#clip0)">
<path d="M40.8644 1.37842C39.2107 0.830547 37.4869 0.439868 35.7401 0.217173C34.1558 0.0160543 32.5553 -0.0448207 30.9756 0.0322362C30.813 0.039942 30.6505 0.0476478 30.4848 0.0592062C17.5546 0.914539 6.98316 10.8796 5.3457 23.755C5.00819 26.4104 5.06444 29.1143 5.51676 31.7535C6.48306 37.3949 9.26019 42.6702 13.3565 46.6679C17.5592 50.7681 23.085 53.412 28.8835 54.1494C30.0294 54.295 31.1845 54.3675 32.3349 54.3675C32.7233 54.3675 33.1117 54.3567 33.4985 54.3397C33.7112 54.3305 33.9231 54.322 34.1396 54.3074C47.069 53.452 57.6404 43.4878 59.2779 30.6116C60.9146 17.7338 53.1704 5.43933 40.8644 1.37842ZM8.29004 24.1295C9.67168 13.2637 18.1942 4.72655 28.8805 3.2093L22.9902 49.536C13.0252 45.3942 6.90841 34.9953 8.29004 24.1295ZM56.3336 30.2371C54.9519 41.1029 46.4294 49.64 35.7432 51.1573L37.1741 39.9054C37.2774 39.0925 36.7017 38.3489 35.8888 38.2456C35.0766 38.1423 34.333 38.718 34.2297 39.5309L32.721 51.3961C32.6971 51.3969 32.6724 51.3961 32.6478 51.3969C32.4243 51.3992 32.2008 51.3985 31.9766 51.3954C31.0619 51.3823 30.1696 51.3206 29.258 51.2043C28.7009 51.1342 28.1353 51.0409 27.5851 50.9323C27.5674 50.9284 27.5497 50.9253 27.532 50.9222C27.3825 50.8922 25.856 50.5269 25.8567 50.5231C25.98 49.2917 26.1696 48.0634 26.3252 46.8351C26.7159 43.7644 27.1058 40.6937 27.4965 37.623C27.9989 33.6699 28.5021 29.7169 29.0045 25.7639C29.4969 21.8879 29.9901 18.012 30.4825 14.136C30.8439 11.2972 31.2045 8.45765 31.5659 5.61887C31.6769 4.74582 31.834 3.83962 31.8957 2.97273C32.6902 2.98891 33.453 2.98429 34.2529 3.04902C34.3515 3.05673 34.4509 3.06289 34.5495 3.07214C34.8223 3.09757 35.0943 3.12685 35.3663 3.16152C35.6214 3.19389 35.8765 3.23164 36.1307 3.27249C36.197 3.28327 36.2633 3.29406 36.3296 3.30485C36.5646 3.34492 36.7988 3.38653 37.0323 3.43276C37.0531 3.43662 37.0732 3.44047 37.094 3.44432C37.3429 3.49441 37.591 3.54989 37.8383 3.60691C37.9046 3.62232 37.9709 3.63851 38.0379 3.65469C38.256 3.70786 38.4725 3.76334 38.689 3.8219C38.7152 3.82884 38.7414 3.83577 38.7676 3.84271L35.102 32.6697C34.9988 33.4827 35.5736 34.2255 36.3866 34.3288C37.2011 34.4305 37.9431 33.8572 38.0464 33.0442L41.6334 4.83058C51.5984 8.97316 57.7144 19.3712 56.3336 30.2371Z" fill="#393939"/>
<path d="M95.7716 70.9089C93.587 58.9226 83.172 50.1158 71.0101 49.9694C67.9402 49.9247 64.8109 50.4625 61.9274 51.5121C61.7348 51.5822 61.5429 51.6546 61.351 51.7301C55.621 53.9702 50.8913 58.2253 48.034 63.711C47.6549 64.4376 47.9369 65.3338 48.6643 65.7129C49.391 66.092 50.2872 65.8092 50.6655 65.0818C52.9094 60.7751 56.4587 57.3306 60.7715 55.2262L68.5551 97.9335C58.6008 97.0073 50.311 89.5174 48.4902 79.5261C47.9808 76.7321 47.9963 73.9156 48.5372 71.1547C48.6952 70.3502 48.1704 69.5704 47.3659 69.4132C46.563 69.2567 45.7824 69.78 45.6244 70.5844C45.0126 73.7106 44.9941 76.8977 45.5697 80.0586C47.7551 92.0448 58.1693 100.852 70.3312 100.998C70.4422 101 70.5524 101 70.6641 101C71.5911 101 72.5181 100.949 73.4405 100.848C75.3238 100.641 77.0252 100.268 78.8337 99.6588C79.2228 99.5278 79.6081 99.3876 79.9926 99.2366C91.32 94.8073 97.9562 82.8943 95.7716 70.9089ZM74.0292 97.7786C73.2933 97.8896 72.5497 97.9628 71.7838 98.0013C71.7183 98.0052 71.652 98.0083 71.5865 98.0114L63.5795 54.0811C63.6134 54.0703 63.6473 54.0596 63.6812 54.048C64.7053 53.7151 65.5807 53.494 66.6286 53.3029C67.5957 53.1272 68.6059 53.0124 69.5815 52.9646C69.6393 52.9615 69.6978 52.9584 69.7556 52.9561C69.7726 52.9553 69.8912 53.6974 69.8982 53.7375C70.3073 55.9852 70.7173 58.2322 71.1272 60.4792C71.793 64.1355 72.4596 67.7919 73.1261 71.4482C73.8504 75.4198 74.574 79.3905 75.2976 83.362C75.8793 86.553 76.4611 89.7439 77.0421 92.9356C77.2802 94.241 77.4598 95.6056 77.7688 96.884C76.5297 97.203 75.3199 97.5837 74.0292 97.7786ZM80.5713 95.7443L72.787 53.0332C82.7405 53.9602 91.0311 61.4493 92.8519 71.4413C94.6728 81.4325 89.5585 91.3644 80.5713 95.7443Z" fill="#393939"/>
<circle cx="73.5" cy="29.5" r="2.5" stroke="#393939" stroke-width="2"/>
<circle cx="88.5" cy="13.5" r="5.5" stroke="#393939" stroke-width="2"/>
<circle cx="90.5" cy="39.5" r="3.5" stroke="#393939" stroke-width="2"/>
<circle cx="23.5" cy="69.5" r="3.5" stroke="#393939" stroke-width="2"/>
<circle cx="27.5" cy="88.5" r="5.5" stroke="#393939" stroke-width="2"/>
<circle cx="6" cy="79" r="4" stroke="#393939" stroke-width="2"/>
</g>
<defs>
<clipPath id="clip0">
<rect width="101" height="101" fill="white"/>
</clipPath>
</defs>
</svg>
