<svg width="101" height="101" viewBox="0 0 101 101" fill="none" xmlns="http://www.w3.org/2000/svg">
<path d="M61.3654 0C39.5109 0 21.7308 17.7801 21.7308 39.6346C21.7308 49.9919 25.7292 59.4313 32.2594 66.4989L14.5966 84.1616L2.24173 71.8068L0 74.0485L12.3549 86.4034L0 98.7583L2.24173 101L14.5966 88.6451L26.9515 101L29.1932 98.7583L16.8384 86.4034L34.5011 68.7406C41.5687 75.2708 51.0065 79.2691 61.3654 79.2691C83.2199 79.2691 101 61.4891 101 39.6346C101 17.7801 83.2199 0 61.3654 0ZM61.3654 76.0984C41.2596 76.0984 24.9016 59.742 24.9016 39.6346C24.9016 19.5272 41.2596 3.17077 61.3654 3.17077C81.4713 3.17077 97.8292 19.5272 97.8292 39.6346C97.8292 59.742 81.4713 76.0984 61.3654 76.0984Z" fill="#393939"/>
</svg>
