<svg width="70" height="70" viewBox="0 0 70 70" fill="none" xmlns="http://www.w3.org/2000/svg">
  <g clip-path="url(#clip0)">
    <path
      d="M68.8337 11.667H40.8337C40.1894 11.667 39.667 12.1894 39.667 12.8337V23.3337C39.6674 23.978 40.1902 24.4999 40.8345 24.4995C40.9595 24.4993 41.0838 24.4792 41.2023 24.4397L42.6688 23.9508C44.261 23.4296 45.9741 24.2979 46.4952 25.8901C47.0163 27.4823 46.1481 29.1954 44.5559 29.7165C43.9428 29.9172 43.2818 29.9172 42.6687 29.7165L41.2022 29.2277C40.5908 29.0241 39.9302 29.3545 39.7266 29.9659C39.6871 30.0844 39.667 30.2087 39.6668 30.3337V39.667H30.3335C29.6892 39.6674 29.1673 40.1902 29.1677 40.8345C29.1679 40.9595 29.188 41.0838 29.2275 41.2023L29.7163 42.6688C30.2376 44.261 29.3693 45.9741 27.7771 46.4952C26.1848 47.0164 24.4717 46.1481 23.9507 44.5559C23.75 43.9428 23.75 43.2818 23.9507 42.6687L24.4395 41.2022C24.6431 40.5908 24.3126 39.9302 23.7013 39.7266C23.5827 39.6871 23.4585 39.667 23.3335 39.6668H12.8337C12.1894 39.6668 11.667 40.1892 11.667 40.8335V68.8335C11.667 69.4778 12.1894 70.0002 12.8337 70.0002H68.8337C69.4779 70.0002 70.0003 69.4778 70.0003 68.8335V12.8337C70.0003 12.1894 69.4779 11.667 68.8337 11.667ZM39.7268 57.9659C39.6873 58.0844 39.6671 58.2087 39.667 58.3337V67.667H14.0003V42.0003H21.7155C20.824 44.827 22.3929 47.8412 25.2196 48.7326C28.0463 49.6241 31.0605 48.0552 31.9518 45.2285C32.2832 44.1779 32.2832 43.0508 31.9518 42.0002H39.667V51.3335C39.6674 51.9778 40.1902 52.4997 40.8345 52.4993C40.9595 52.4992 41.0838 52.479 41.2023 52.4395L42.6688 51.9507C44.261 51.4296 45.9741 52.2978 46.4952 53.89C47.0163 55.4822 46.1481 57.1953 44.5559 57.7163C43.9428 57.917 43.2818 57.917 42.6687 57.7163L41.2022 57.2275C40.591 57.0241 39.9304 57.3545 39.7268 57.9659ZM67.667 67.667H42.0003V59.9518C44.827 60.8433 47.8412 59.2744 48.7326 56.4477C49.6241 53.6211 48.0552 50.6068 45.2285 49.7155C44.1779 49.3842 43.0508 49.3842 42.0002 49.7155V42.0003H51.3335C51.9778 41.9999 52.4997 41.4771 52.4993 40.8328C52.4992 40.7078 52.479 40.5836 52.4395 40.465L51.9507 38.9985C51.4296 37.4063 52.2978 35.6932 53.89 35.1721C55.4822 34.6511 57.1953 35.5192 57.7163 37.1114C57.917 37.7245 57.917 38.3856 57.7163 38.9986L57.2275 40.4651C57.0239 41.0765 57.3544 41.7371 57.9657 41.9407C58.0843 41.9802 58.2085 42.0003 58.3335 42.0005H67.6668V67.667H67.667ZM67.667 39.667H59.9518C60.8433 36.8403 59.2744 33.8261 56.4477 32.9347C53.6211 32.0433 50.6068 33.6121 49.7155 36.4388C49.3842 37.4894 49.3842 38.6166 49.7155 39.6671H42.0003V31.952C43.6207 32.4771 45.3946 32.1938 46.7708 31.1901C49.1838 29.469 49.7447 26.1176 48.0235 23.7047C46.6644 21.7992 44.2271 20.9943 42.0003 21.7156V14.0003H67.667V39.667Z"
      fill="#393939"/>
    <path
      d="M33.5616 10.0485C32.5111 9.71717 31.3839 9.71717 30.3333 10.0485V1.16667C30.3333 0.522375 29.811 0 29.1667 0H1.16667C0.522375 0 0 0.522375 0 1.16667V29.1667C0 29.811 0.522375 30.3333 1.16667 30.3333H10.0485C9.15702 33.16 10.7259 36.1742 13.5526 37.0656C16.3793 37.9569 19.3935 36.3882 20.2848 33.5615C20.6162 32.5109 20.6162 31.3838 20.2848 30.3332H29.1667C29.811 30.3332 30.3333 29.8108 30.3333 29.1665V20.2847C33.16 21.1762 36.1743 19.6073 37.0656 16.7806C37.9571 13.9541 36.3883 10.94 33.5616 10.0485ZM32.8891 18.0495C32.276 18.2502 31.6149 18.2502 31.0018 18.0495L29.5353 17.5607C28.924 17.3571 28.2634 17.6875 28.0598 18.2989C28.0203 18.4174 28.0001 18.5417 28 18.6667V28H18.6667C18.0224 28.0004 17.5004 28.5232 17.5009 29.1675C17.501 29.2925 17.5211 29.4168 17.5607 29.5353L18.0495 31.0018C18.5707 32.594 17.7024 34.3071 16.1102 34.8282C14.518 35.3493 12.8049 34.4811 12.2838 32.8889C12.0832 32.2758 12.0832 31.6148 12.2838 31.0017L12.7727 29.5352C12.9763 28.9239 12.6458 28.2632 12.0345 28.0596C11.9159 28.0201 11.7916 28 11.6667 27.9999H2.33333V2.33333H28V11.6667C28.0004 12.311 28.5233 12.8329 29.1675 12.8325C29.2925 12.8323 29.4168 12.8122 29.5353 12.7727L31.0018 12.2838C32.594 11.7628 34.3071 12.6309 34.8282 14.2231C35.3494 15.8152 34.4811 17.5284 32.8891 18.0495Z"
      fill="#393939"/>
  </g>
  <defs>
    <clipPath id="clip0">
      <rect width="70" height="70" fill="#393939"/>
    </clipPath>
  </defs>
</svg>
