<svg width="95" height="101" viewBox="0 0 95 101" fill="none" xmlns="http://www.w3.org/2000/svg">
<path d="M57.6042 35.3255C57.6042 36.255 58.3568 37.0095 59.2881 37.0095H76.1281C77.0594 37.0095 77.812 36.255 77.812 35.3255C77.812 34.3961 77.0594 33.6416 76.1281 33.6416H59.2881C58.3568 33.6414 57.6042 34.3959 57.6042 35.3255Z" fill="url(#paint0_linear)"/>
<path d="M67.7082 45.43C67.7082 46.3595 68.4609 47.114 69.3921 47.114H79.4962C80.4275 47.114 81.1801 46.3595 81.1801 45.43C81.1801 44.5005 80.4275 43.7461 79.4962 43.7461H69.3921C68.4609 43.7459 67.7082 44.5003 67.7082 45.43Z" fill="url(#paint1_linear)"/>
<path d="M66.0241 26.905C66.9553 26.905 67.708 26.1506 67.708 25.2211C67.708 24.2916 66.9553 23.5371 66.0241 23.5371H62.656C61.7247 23.5371 60.972 24.2916 60.972 25.2211C60.972 26.1506 61.7247 26.905 62.656 26.905H66.0241Z" fill="url(#paint2_linear)"/>
<path d="M45.816 43.7451C44.8847 43.7451 44.132 44.4996 44.132 45.4291C44.132 46.3586 44.8847 47.113 45.816 47.113H62.656C63.5872 47.113 64.3399 46.3586 64.3399 45.4291C64.3399 44.4996 63.5872 43.7451 62.656 43.7451H45.816Z" fill="url(#paint3_linear)"/>
<path d="M54.2361 90.8977H22.24C19.4547 90.8977 17.188 88.631 17.188 85.8457V8.38121C17.188 7.45171 16.4353 6.69727 15.5041 6.69727C10.8613 6.69727 7.08395 10.4744 7.08395 15.1174C7.08395 16.0469 7.83663 16.8013 8.7679 16.8013C9.69917 16.8013 10.4518 16.0469 10.4518 15.1174C10.4518 12.9213 11.8597 11.0487 13.8199 10.3533V85.8457C13.8199 90.4884 17.5971 94.2658 22.24 94.2658H54.2361C55.1674 94.2658 55.92 93.5113 55.92 92.5818C55.92 91.6524 55.1674 90.8977 54.2361 90.8977Z" fill="url(#paint4_linear)"/>
<path d="M28.976 37.0095H52.5521C53.4834 37.0095 54.2361 36.255 54.2361 35.3255C54.2361 34.3961 53.4834 33.6416 52.5521 33.6416H28.976C28.0447 33.6416 27.292 34.3961 27.292 35.3255C27.292 36.255 28.0447 37.0095 28.976 37.0095Z" fill="url(#paint5_linear)"/>
<path d="M28.976 26.905H35.7119C36.6432 26.905 37.3959 26.1506 37.3959 25.2211C37.3959 24.2916 36.6432 23.5371 35.7119 23.5371H28.976C28.0447 23.5371 27.292 24.2916 27.292 25.2211C27.292 26.1506 28.0447 26.905 28.976 26.905Z" fill="url(#paint6_linear)"/>
<path d="M55.92 23.5381H42.4479C41.5166 23.5381 40.764 24.2925 40.764 25.222C40.764 26.1515 41.5166 26.906 42.4479 26.906H55.92C56.8513 26.906 57.604 26.1515 57.604 25.222C57.6042 24.2925 56.8513 23.5381 55.92 23.5381Z" fill="url(#paint7_linear)"/>
<path d="M79.4962 0H15.5038C7.16623 0 0.379748 6.76793 0.347778 15.0971V15.1172V15.1357V15.1561V15.1762C0.369684 20.5465 3.26789 25.5496 7.92404 28.2442C8.729 28.7089 9.75796 28.4344 10.2243 27.6312C10.6924 26.8262 10.4145 25.7957 9.61133 25.3308C5.98078 23.2275 3.72257 19.324 3.71586 15.1359C3.7277 8.64567 9.01042 3.36808 15.5038 3.36808H79.4962C85.9948 3.36808 91.2842 8.65593 91.2842 15.1561V85.8844C91.2842 86.7381 91.045 87.5954 90.5955 88.3599C90.1256 89.1615 90.3916 90.1938 91.1932 90.6653C91.4626 90.8235 91.7556 90.8977 92.0453 90.8977C92.623 90.8977 93.1854 90.6013 93.4986 90.0675C94.253 88.7859 94.6521 87.3394 94.6521 85.8844V15.1561C94.6523 6.79833 87.8539 0 79.4962 0Z" fill="url(#paint8_linear)"/>
<path d="M84.5482 77.4263C84.5482 71.8539 80.0166 67.3223 74.4442 67.3223C68.8718 67.3223 64.3401 71.8539 64.3401 77.4263C64.3401 82.9987 68.8718 87.5303 74.4442 87.5303C80.0166 87.5303 84.5482 82.9987 84.5482 77.4263ZM74.4442 84.1623C70.7292 84.1623 67.7082 81.1411 67.7082 77.4263C67.7082 73.7115 70.7294 70.6903 74.4442 70.6903C78.1592 70.6903 81.1802 73.7115 81.1802 77.4263C81.1802 81.1411 78.1592 84.1623 74.4442 84.1623Z" fill="url(#paint9_linear)"/>
<path d="M71.4045 89.2157C70.6013 88.7509 69.5706 89.027 69.104 89.832L65.4784 96.115L64.9026 95.2461C64.6113 94.8033 64.128 94.5236 63.5991 94.4934L62.5583 94.4311L66.2447 88.0488C66.7094 87.2438 66.4334 86.2133 65.6284 85.7483C64.8234 85.2818 63.7929 85.5581 63.3264 86.3646L58.2795 95.1064C57.9882 95.6116 57.9797 96.233 58.2558 96.7465C58.5319 97.26 59.0541 97.5953 59.6384 97.6289L62.5567 97.8039L64.1682 100.244C64.4799 100.717 65.0085 101 65.5727 101H65.625C66.206 100.982 66.7398 100.663 67.0329 100.158L72.0226 91.5157C72.4873 90.7111 72.2112 89.6804 71.4045 89.2157Z" fill="url(#paint10_linear)"/>
<path d="M85.6058 86.4437C85.1393 85.6372 84.107 85.3609 83.3053 85.8274C82.4988 86.2922 82.2225 87.3229 82.6873 88.1277L86.3299 94.4308L85.2891 94.4932C84.7604 94.5252 84.2771 94.8048 83.984 95.2459L83.4115 96.1148L79.8045 89.8637C79.3363 89.0587 78.3056 88.7826 77.5024 89.2474C76.6975 89.7121 76.4214 90.7429 76.8861 91.5478L81.8572 100.158C82.1503 100.663 82.6841 100.982 83.2651 101H83.3174C83.8798 101 84.4103 100.717 84.7235 100.244L86.3334 97.8058L89.2502 97.629C89.8345 97.5953 90.3565 97.2602 90.6328 96.7467C90.909 96.2332 90.8988 95.6117 90.6093 95.1065L85.6058 86.4437Z" fill="url(#paint11_linear)"/>
<path d="M28.976 47.114H39.08C40.0113 47.114 40.764 46.3595 40.764 45.43C40.764 44.5005 40.0113 43.7461 39.08 43.7461H28.976C28.0447 43.7461 27.292 44.5005 27.292 45.43C27.292 46.3595 28.0447 47.114 28.976 47.114Z" fill="url(#paint12_linear)"/>
<path d="M28.976 57.2175H49.184C50.1153 57.2175 50.868 56.463 50.868 55.5335C50.868 54.6041 50.1153 53.8496 49.184 53.8496H28.976C28.0447 53.8496 27.292 54.6041 27.292 55.5335C27.292 56.463 28.0447 57.2175 28.976 57.2175Z" fill="url(#paint13_linear)"/>
<path d="M29.1543 78.1777C29.5686 79.0095 30.5808 79.3464 31.4126 78.9322C32.2444 78.5162 32.583 77.5042 32.1652 76.6722C30.4981 73.3378 30.1243 70.3471 31.1615 68.6681C31.7139 67.7739 32.6771 67.3208 34.0278 67.3208C34.831 67.3208 35.1307 67.5969 35.3194 67.8665C36.5739 69.6751 35.3818 75.1834 34.1339 78.5177C33.8561 79.2604 34.1339 80.0957 34.8008 80.5251C35.4642 80.9512 36.3416 80.8587 36.9025 80.2996C37.6216 79.5822 38.4013 78.8665 39.08 78.2855V79.109C39.08 79.7892 39.4893 80.404 40.119 80.6633C40.7487 80.9259 41.4712 80.7811 41.9545 80.2996C42.7242 79.5317 43.6165 78.7788 44.3676 78.2367C44.3475 78.2788 44.3272 78.3192 44.3071 78.3579C44.0493 78.8799 44.0779 79.4997 44.3846 79.9947C44.6929 80.4898 45.2334 80.7929 45.816 80.7929H52.5519C53.4832 80.7929 54.2359 80.0385 54.2359 79.109C54.2359 78.1795 53.4832 77.4251 52.5519 77.4251H48.1685C48.3049 76.6234 48.2713 75.8084 47.8654 75.1516C47.436 74.4562 46.6882 74.057 45.816 74.057C44.7752 74.057 43.551 74.6901 42.4329 75.4749C42.347 74.7406 41.9125 74.1361 41.2524 73.8634C40.8028 73.6781 40.2234 73.4357 38.8173 74.2794C39.3713 71.3778 39.5331 68.0334 38.0881 65.9487C37.4566 65.0375 36.2408 63.9531 34.028 63.9531C31.5053 63.9531 29.4693 64.9989 28.2957 66.8985C26.6167 69.6163 26.9281 73.727 29.1543 78.1777Z" fill="url(#paint14_linear)"/>
<path d="M74.4442 55.5335C74.4442 54.6041 73.6915 53.8496 72.7603 53.8496H55.9202C54.989 53.8496 54.2363 54.6041 54.2363 55.5335C54.2363 56.463 54.989 57.2175 55.9202 57.2175H72.7603C73.6915 57.2175 74.4442 56.463 74.4442 55.5335Z" fill="url(#paint15_linear)"/>
<defs>
<linearGradient id="paint0_linear" x1="67.7081" y1="33.6416" x2="67.7081" y2="37.0095" gradientUnits="userSpaceOnUse">
<stop stop-color="#7F46C5"/>
<stop offset="1" stop-color="#1C5DA9"/>
</linearGradient>
<linearGradient id="paint1_linear" x1="74.4442" y1="43.7461" x2="74.4442" y2="47.114" gradientUnits="userSpaceOnUse">
<stop stop-color="#7F46C5"/>
<stop offset="1" stop-color="#1C5DA9"/>
</linearGradient>
<linearGradient id="paint2_linear" x1="64.34" y1="23.5371" x2="64.34" y2="26.905" gradientUnits="userSpaceOnUse">
<stop stop-color="#7F46C5"/>
<stop offset="1" stop-color="#1C5DA9"/>
</linearGradient>
<linearGradient id="paint3_linear" x1="54.236" y1="43.7451" x2="54.236" y2="47.113" gradientUnits="userSpaceOnUse">
<stop stop-color="#7F46C5"/>
<stop offset="1" stop-color="#1C5DA9"/>
</linearGradient>
<linearGradient id="paint4_linear" x1="31.502" y1="6.69727" x2="31.502" y2="94.2658" gradientUnits="userSpaceOnUse">
<stop stop-color="#7F46C5"/>
<stop offset="1" stop-color="#1C5DA9"/>
</linearGradient>
<linearGradient id="paint5_linear" x1="40.764" y1="33.6416" x2="40.764" y2="37.0095" gradientUnits="userSpaceOnUse">
<stop stop-color="#7F46C5"/>
<stop offset="1" stop-color="#1C5DA9"/>
</linearGradient>
<linearGradient id="paint6_linear" x1="32.3439" y1="23.5371" x2="32.3439" y2="26.905" gradientUnits="userSpaceOnUse">
<stop stop-color="#7F46C5"/>
<stop offset="1" stop-color="#1C5DA9"/>
</linearGradient>
<linearGradient id="paint7_linear" x1="49.184" y1="23.5381" x2="49.184" y2="26.906" gradientUnits="userSpaceOnUse">
<stop stop-color="#7F46C5"/>
<stop offset="1" stop-color="#1C5DA9"/>
</linearGradient>
<linearGradient id="paint8_linear" x1="47.4999" y1="0" x2="47.4999" y2="90.8977" gradientUnits="userSpaceOnUse">
<stop stop-color="#7F46C5"/>
<stop offset="1" stop-color="#1C5DA9"/>
</linearGradient>
<linearGradient id="paint9_linear" x1="74.4442" y1="67.3223" x2="74.4442" y2="87.5303" gradientUnits="userSpaceOnUse">
<stop stop-color="#7F46C5"/>
<stop offset="1" stop-color="#1C5DA9"/>
</linearGradient>
<linearGradient id="paint10_linear" x1="65.1514" y1="85.5215" x2="65.1514" y2="101" gradientUnits="userSpaceOnUse">
<stop stop-color="#7F46C5"/>
<stop offset="1" stop-color="#1C5DA9"/>
</linearGradient>
<linearGradient id="paint11_linear" x1="83.7469" y1="85.6006" x2="83.7469" y2="101" gradientUnits="userSpaceOnUse">
<stop stop-color="#7F46C5"/>
<stop offset="1" stop-color="#1C5DA9"/>
</linearGradient>
<linearGradient id="paint12_linear" x1="34.028" y1="43.7461" x2="34.028" y2="47.114" gradientUnits="userSpaceOnUse">
<stop stop-color="#7F46C5"/>
<stop offset="1" stop-color="#1C5DA9"/>
</linearGradient>
<linearGradient id="paint13_linear" x1="39.08" y1="53.8496" x2="39.08" y2="57.2175" gradientUnits="userSpaceOnUse">
<stop stop-color="#7F46C5"/>
<stop offset="1" stop-color="#1C5DA9"/>
</linearGradient>
<linearGradient id="paint14_linear" x1="40.7318" y1="63.9531" x2="40.7318" y2="80.7929" gradientUnits="userSpaceOnUse">
<stop stop-color="#7F46C5"/>
<stop offset="1" stop-color="#1C5DA9"/>
</linearGradient>
<linearGradient id="paint15_linear" x1="64.3402" y1="53.8496" x2="64.3402" y2="57.2175" gradientUnits="userSpaceOnUse">
<stop stop-color="#7F46C5"/>
<stop offset="1" stop-color="#1C5DA9"/>
</linearGradient>
</defs>
</svg>
