<svg width="101" height="81" viewBox="0 0 101 81" fill="none" xmlns="http://www.w3.org/2000/svg">
<path d="M19.1995 31.9097L32.9573 37.2184C31.2019 49.7786 43.951 59.3879 55.4996 54.2512C56.0004 54.0281 56.4867 53.7818 56.9567 53.5139L62.8231 59.8573C57.8598 67.5395 61.6187 77.9463 70.4833 80.5721C71.2708 80.8053 72.0976 80.3552 72.3304 79.5669C72.5631 78.7778 72.1131 77.9494 71.3263 77.7162C65.1949 75.8987 62.0748 69.2697 64.3056 63.466C66.4478 57.8947 72.7118 55.1283 78.2499 57.2654C87.845 60.9683 87.2625 74.8047 77.4192 77.7177C76.6325 77.9501 76.1824 78.7786 76.4152 79.5676C76.6479 80.3567 77.4755 80.806 78.2614 80.5737C82.4017 79.3484 85.6643 76.335 87.2132 72.3063C91.7002 60.6325 79.5051 49.4674 68.298 54.9901L62.3237 48.5309C64.9999 44.5516 65.799 39.6281 64.4567 34.9825L74.4024 29.4182C81.6781 38.531 96.2042 36.3607 100.432 25.3632C100.63 24.8475 100.804 24.3024 100.951 23.7426C101.16 22.9474 100.684 22.1328 99.8906 21.9244C99.0969 21.7159 98.2847 22.1915 98.0759 22.9868C97.9572 23.44 97.8162 23.8793 97.6575 24.2931C94.0242 33.7456 81.1942 34.8891 75.8912 26.387C73.9239 23.2307 73.4061 19.219 74.8401 15.4868C77.2635 9.18434 84.3528 6.03195 90.6437 8.45936C94.3001 9.87072 97.078 12.986 98.0751 16.7939C98.2832 17.5892 99.0961 18.0648 99.8898 17.8563C100.683 17.6478 101.158 16.8333 100.95 16.0381C99.711 11.3068 96.2573 7.43481 91.7117 5.67988C80.6163 1.39795 69.0801 11.0412 71.3271 22.742L60.892 28.5805C57.7388 25.0945 53.3165 23.2516 48.8526 23.2771L47.2206 16.4264C52.6115 12.3352 51.431 3.82227 45.0845 1.37324C37.8851 -1.40547 30.8929 5.96401 34.0215 13.0277C35.1457 15.5648 37.3657 17.3815 40.0712 17.9922L41.7372 24.9849C39.2259 26.2364 37.1245 28.0894 35.5826 30.3755L21.8287 25.0683C22.0406 17.1012 13.8525 11.516 6.48897 14.7919C0.977084 17.2433 -1.50492 23.6963 0.942408 29.2205C4.2104 36.5962 14.0198 37.9627 19.1995 31.9097ZM72.1909 25.6697C72.365 26.0951 72.5584 26.5121 72.7711 26.9205L63.3686 32.1814C63.1629 31.7707 62.9402 31.37 62.7005 30.9793L72.1909 25.6697ZM65.7451 56.6115C65.4754 56.8277 64.9152 57.3303 64.7179 57.5248L59.4148 51.7906C59.7639 51.4934 60.0983 51.1807 60.4204 50.8549L65.7451 56.6115ZM44.5336 23.8963L43.1573 18.1196C43.5881 18.0586 44.0435 17.9621 44.4974 17.8231L45.8682 23.5766C45.4205 23.6646 44.9751 23.7696 44.5336 23.8963ZM36.6291 7.4379C37.5021 5.16568 39.6728 3.76977 41.9683 3.76977C48.5683 3.76977 49.8405 13.1289 43.565 14.9927C39.0849 16.3083 34.9176 11.8889 36.6291 7.4379ZM53.6841 27.1413C60.4643 29.7579 63.8556 37.4138 61.2442 44.2073C58.6312 51.0039 50.9894 54.3987 44.2115 51.7829C37.6069 49.2343 34.228 41.9134 36.4557 35.2659C38.8529 28.1118 46.7189 24.4537 53.6841 27.1413ZM21.3248 28.0647L34.1378 33.0099C33.9976 33.3341 33.7695 33.9217 33.6446 34.2931L20.8316 29.3479C21.0343 28.9063 21.1976 28.4693 21.3248 28.0647ZM10.9128 16.8256C13.8718 16.8256 16.8254 18.5164 18.1724 21.5569C21.0528 28.0593 14.5977 34.73 8.06248 32.2077C6.08365 31.4441 4.5194 29.954 3.65944 28.0122C1.32307 22.7374 5.19904 16.8256 10.9128 16.8256Z" fill="url(#paint0_linear)"/>
<defs>
<linearGradient id="paint0_linear" x1="50.4999" y1="0.772461" x2="50.4999" y2="80.6349" gradientUnits="userSpaceOnUse">
<stop stop-color="#7F46C5"/>
<stop offset="1" stop-color="#1C5DA9"/>
</linearGradient>
</defs>
</svg>
