<svg width="101" height="101" viewBox="0 0 101 101" fill="none" xmlns="http://www.w3.org/2000/svg">
<g clip-path="url(#clip0)">
<path d="M64.0466 85.7374H56.4773L52.5281 81.967C51.9309 81.3976 50.9855 81.4192 50.4152 82.0163C49.8458 82.6135 49.8674 83.559 50.4646 84.1285L52.1498 85.7374H13.411L26.5777 73.2642C28.2568 71.673 30.4567 70.7969 32.77 70.7969C35.084 70.7969 37.2832 71.673 38.963 73.2642L45.3888 79.3517C45.9875 79.9196 46.9338 79.8942 47.5009 79.2947C48.0689 78.696 48.0427 77.7505 47.4439 77.1826L41.0182 71.0951C38.7812 68.976 35.8515 67.8086 32.77 67.8086C29.6885 67.8086 26.7595 68.976 24.5226 71.0951L9.06651 85.7374H1.49413C0.668854 85.7374 0 86.4063 0 87.2316C0 88.0568 0.668854 88.7257 1.49413 88.7257H64.0466C64.8719 88.7257 65.5407 88.0568 65.5407 87.2316C65.5407 86.4063 64.8719 85.7374 64.0466 85.7374Z" fill="white"/>
<path d="M34.7631 60.1389C34.7631 60.9087 34.1382 61.5328 33.3684 61.5328C32.5978 61.5328 31.9736 60.9087 31.9736 60.1389C31.9736 59.3683 32.5978 58.7441 33.3684 58.7441C34.1382 58.7441 34.7631 59.3683 34.7631 60.1389Z" fill="white"/>
<path d="M34.1647 73.885C34.1647 74.6548 33.5405 75.2797 32.7699 75.2797C32.0001 75.2797 31.376 74.6548 31.376 73.885C31.376 73.1144 32.0001 72.4902 32.7699 72.4902C33.5405 72.4902 34.1647 73.1144 34.1647 73.885Z" fill="white"/>
<path d="M34.5631 81.8527C34.5631 82.6225 33.9389 83.2475 33.1684 83.2475C32.3986 83.2475 31.7744 82.6225 31.7744 81.8527C31.7744 81.0822 32.3986 80.458 33.1684 80.458C33.9389 80.458 34.5631 81.0822 34.5631 81.8527Z" fill="white"/>
<path d="M41.3365 79.2629C41.3365 80.0327 40.7124 80.6576 39.9418 80.6576C39.172 80.6576 38.5479 80.0327 38.5479 79.2629C38.5479 78.4931 39.172 77.8682 39.9418 77.8682C40.7124 77.8682 41.3365 78.4931 41.3365 79.2629Z" fill="white"/>
<path d="M27.3912 78.6645C27.3912 79.435 26.7671 80.0592 25.9965 80.0592C25.2267 80.0592 24.6025 79.435 24.6025 78.6645C24.6025 77.8947 25.2267 77.2705 25.9965 77.2705C26.7671 77.2705 27.3912 77.8947 27.3912 78.6645Z" fill="white"/>
<path d="M33.4051 49.3623C33.983 49.2675 34.4492 48.8013 34.544 48.2234C34.7004 47.2694 33.8874 46.4557 32.9327 46.6121C32.3548 46.7069 31.8886 47.1731 31.7938 47.751C31.6374 48.7058 32.4503 49.5187 33.4051 49.3623Z" fill="white"/>
<path d="M36.3933 41.1953C36.9713 41.1005 37.4375 40.6344 37.5322 40.0564C37.6887 39.1017 36.8749 38.2887 35.921 38.4452C35.3431 38.54 34.8769 39.0061 34.7821 39.5841C34.6257 40.538 35.4386 41.3518 36.3933 41.1953Z" fill="white"/>
<path d="M38.784 54.1436C39.3619 54.0488 39.8281 53.5826 39.9229 53.0047C40.0793 52.0499 39.2663 51.237 38.3116 51.3934C37.7337 51.4882 37.2675 51.9544 37.1727 52.5323C37.0163 53.4863 37.83 54.3 38.784 54.1436Z" fill="white"/>
<path d="M26.5577 56.7324C27.5124 56.8889 28.3254 56.0751 28.169 55.1212C28.0742 54.5433 27.608 54.0771 27.0301 53.9823C26.0753 53.8259 25.2624 54.6388 25.4188 55.5935C25.5136 56.1715 25.9798 56.6377 26.5577 56.7324Z" fill="white"/>
<path d="M68.8269 48.2854H60.4601C59.0869 48.2854 57.9704 47.1688 57.9704 45.7957C57.9704 42.775 55.5122 40.3169 52.4916 40.3169H51.9938V23.3845H52.4916C55.5122 23.3845 57.9704 20.9263 57.9704 17.9057C57.9704 16.5326 59.0869 15.416 60.4601 15.416H99.5056C100.331 15.416 101 14.7471 101 13.9219C101 13.0966 100.331 12.4277 99.5056 12.4277H60.4601C57.4394 12.4277 54.9821 14.8851 54.9821 17.9057C54.9821 19.2789 53.8648 20.3962 52.4916 20.3962H51.9938V19.8984C51.9938 19.0731 51.325 18.4043 50.4997 18.4043H42.5312C41.706 18.4043 41.0371 19.0731 41.0371 19.8984V43.8038C41.0371 44.629 41.706 45.2979 42.5312 45.2979H50.4997C51.325 45.2979 51.9938 44.629 51.9938 43.8038V43.3052H52.4916C53.8648 43.3052 54.9821 44.4225 54.9821 45.7957C54.9821 48.8163 57.4394 51.2737 60.4601 51.2737H68.8269C69.6522 51.2737 70.321 50.6048 70.321 49.7795C70.321 48.9542 69.6522 48.2854 68.8269 48.2854ZM49.0056 42.3096H44.0254V21.3925H49.0056V42.3096Z" fill="white"/>
<path d="M99.5056 48.2852H75.7998C74.9745 48.2852 74.3057 48.954 74.3057 49.7793C74.3057 50.6046 74.9745 51.2734 75.7998 51.2734H99.5056C100.331 51.2734 101 50.6046 101 49.7793C101 48.954 100.331 48.2852 99.5056 48.2852Z" fill="white"/>
<path d="M88.6486 31.8502C88.6486 26.1934 84.0468 21.5908 78.3892 21.5908C72.7325 21.5908 68.1299 26.1934 68.1299 31.8502C68.1299 37.5069 72.7325 42.1095 78.3892 42.1095C84.0468 42.1095 88.6486 37.5069 88.6486 31.8502ZM71.1181 31.8502C71.1181 27.8409 74.38 24.5791 78.3892 24.5791C82.3993 24.5791 85.6611 27.8409 85.6611 31.8502C85.6611 35.8594 82.3993 39.1213 78.3892 39.1213C74.38 39.1213 71.1181 35.8594 71.1181 31.8502Z" fill="white"/>
</g>
<defs>
<clipPath id="clip0">
<rect width="101" height="101" fill="white"/>
</clipPath>
</defs>
</svg>
