<svg width="101" height="101" viewBox="0 0 101 101" fill="none" xmlns="http://www.w3.org/2000/svg">
<g clip-path="url(#clip0)">
<path d="M99.0937 22.3794H77.7399C80.9779 15.0575 85.0735 10.4584 85.1182 10.4081C85.8269 9.62896 85.7705 8.41793 84.9914 7.71165C84.2153 7.00108 83.0073 7.05928 82.2986 7.83478C82.086 8.06755 77.1512 13.5377 73.5782 22.3794H37.0421C35.9885 22.3794 35.1321 23.2339 35.1321 24.2893V48.7599C35.1321 49.8135 35.9879 50.6698 37.0421 50.6698H71.3246C72.5852 55.7443 74.7304 60.7311 77.803 65.506C78.4786 66.5467 79.2695 67.8154 80.0897 69.1722C70.8125 72.91 60.3653 74.9204 49.7404 74.9204C49.7367 74.9204 49.7331 74.9204 49.7294 74.9204C38.7033 74.9204 27.9278 72.7569 18.3958 68.7507C19.1174 67.5618 19.8279 66.4457 20.4233 65.506C40.1171 34.9258 16.1765 8.10185 15.9284 7.83539C15.2178 7.0556 14.0135 7.00537 13.2319 7.70859C12.4527 8.41916 12.3945 9.6259 13.1051 10.4088C14.019 11.414 35.2932 35.3663 17.2117 63.4398C13.51 69.1838 6.62422 79.8809 7.78073 92.0598C7.872 93.0479 8.70569 93.7866 9.67966 93.7866C9.74153 93.7866 9.80279 93.7866 9.8622 93.7787C10.914 93.6819 11.6876 92.7453 11.5817 91.6978C10.8858 84.3796 13.5755 77.5011 16.4625 72.1308C26.5649 76.4426 38.0271 78.7361 49.7227 78.7361C49.7263 78.7361 49.73 78.7361 49.7343 78.7361C61.0299 78.7361 72.1454 76.5768 81.9849 72.5413C84.7788 77.8521 87.3191 84.5627 86.6404 91.6947C86.5436 92.7428 87.3117 93.6788 88.3562 93.7756C88.4229 93.7836 88.4793 93.7836 88.543 93.7836C89.52 93.7836 90.3519 93.0448 90.4376 92.0562C91.6052 79.8779 84.7084 69.1808 81.0085 63.4325C78.3451 59.2996 76.4505 55.0141 75.2566 50.6631H99.0906C100.143 50.6631 101.001 49.8073 101.001 48.7531V24.2802C101.004 23.2266 100.15 22.3794 99.0937 22.3794ZM97.1844 46.8468H93.1966V39.0392C93.1966 37.9856 92.339 37.1298 91.2873 37.1298C90.2312 37.1298 89.3779 37.9856 89.3779 39.0392V46.8462H84.0437V39.0392C84.0437 37.9856 83.1892 37.1298 82.1344 37.1298C81.082 37.1298 80.2244 37.9856 80.2244 39.0392V46.8462H74.8946V39.0392C74.8946 37.9856 74.0333 37.1298 72.9846 37.1298C71.9292 37.1298 71.0752 37.9856 71.0752 39.0392V46.8462H65.7374V39.0392C65.7374 37.9856 64.8829 37.1298 63.8281 37.1298C62.7757 37.1298 61.9181 37.9856 61.9181 39.0392V46.8462H56.5962V39.0392C56.5962 37.9856 55.7362 37.1298 54.6862 37.1298C53.6308 37.1298 52.7763 37.9856 52.7763 39.0392V46.8462H47.4439V39.0392C47.4439 37.9856 46.5882 37.1298 45.5346 37.1298C44.4828 37.1298 43.6246 37.9856 43.6246 39.0392V46.8462H38.9453V26.1956H97.1813V46.8468H97.1844ZM49.1126 66.6245C46.8859 66.6245 45.0788 64.8157 45.0788 62.5927C45.0788 60.366 46.8859 58.5608 49.1126 58.5608C51.3392 58.5608 53.1407 60.366 53.1407 62.5927C53.1371 64.8157 51.3392 66.6245 49.1126 66.6245ZM6.47108 41.667V37.5886H0V27.4471H6.47108V23.3687L15.6227 32.5197L6.47108 41.667Z" fill="white"/>
</g>
<defs>
<clipPath id="clip0">
<rect width="101" height="101.001" fill="white"/>
</clipPath>
</defs>
</svg>
