<svg width="101" height="101" viewBox="0 0 101 101" fill="none" xmlns="http://www.w3.org/2000/svg">
<path d="M99.3167 30.3001H94.2667V27.7751C94.2667 24.5212 91.6289 21.8835 88.375 21.8835C87.4997 21.8883 86.6367 22.0903 85.85 22.4743V20.2001C85.85 16.4814 82.8354 13.4668 79.1167 13.4668C75.398 13.4668 72.3833 16.4814 72.3833 20.2001V30.3001H65.65V28.6168C65.6622 25.8399 63.4211 23.5788 60.6442 23.5664C59.3827 23.5607 58.1653 24.0295 57.2333 24.8798C55.3303 23.1291 52.403 23.1291 50.5 24.8798C48.597 23.1291 45.6697 23.1291 43.7667 24.8798C41.7151 23.0084 38.5349 23.1544 36.6634 25.2059C35.8133 26.1379 35.3445 27.3553 35.35 28.6168V30.3001H28.6167V20.2001C28.6167 16.4814 25.602 13.4668 21.8833 13.4668C18.1646 13.4668 15.15 16.4814 15.15 20.2001V22.4743C14.3633 22.0903 13.5003 21.8883 12.625 21.8835C9.37112 21.8835 6.73333 24.5212 6.73333 27.7751V30.3001H1.68333C0.753712 30.3001 0 31.0538 0 31.9835V42.0835C0 43.0131 0.753712 43.7668 1.68333 43.7668H6.73333V46.2918C6.73333 49.5457 9.37112 52.1835 12.625 52.1835C13.5003 52.1786 14.3633 51.9766 15.15 51.5926V53.8668C15.15 57.5855 18.1646 60.6001 21.8833 60.6001C25.602 60.6001 28.6167 57.5855 28.6167 53.8668V43.7668H31.9833V49.3942C31.9779 51.6273 32.8658 53.77 34.4494 55.3448L38.7167 59.6137V87.5335H42.0833V58.9168C42.0833 58.4703 41.9057 58.0423 41.5901 57.7267L36.8296 52.9645C35.8851 52.016 35.3534 50.7328 35.35 49.3942V38.7168H45.2093C45.8466 38.7082 46.4505 39.0009 46.8387 39.5063C46.8505 39.5231 46.864 39.5399 46.8758 39.5585C46.948 39.6733 47.0046 39.7973 47.0441 39.9271C47.0759 40.0308 47.0974 40.1373 47.1081 40.2453C47.1199 40.3509 47.1199 40.4578 47.1081 40.5634C47.1043 40.62 47.0969 40.6762 47.0862 40.7317C47.0481 40.9091 46.9827 41.0794 46.8926 41.2367C46.5991 41.7579 46.0482 42.0811 45.45 42.0835H40.4C39.4704 42.0835 38.7167 42.8372 38.7167 43.7668V47.1335C38.7165 47.8583 39.1804 48.5018 39.8681 48.7309L43.5714 49.9682C46.5778 50.9664 48.8167 55.5165 48.8167 58.9168H52.1833C52.1833 54.2859 49.3015 48.3253 44.6437 46.7732L42.0833 45.9198V45.4501H45.45C46.8667 45.4365 48.2117 44.8252 49.1533 43.7668H63.9667V49.9396C63.9646 51.0319 63.6104 52.0945 62.9567 52.9696L59.2533 57.9068C59.0347 58.1982 58.9167 58.5526 58.9167 58.9168V87.5335H62.2833V59.4773L65.65 54.9896C66.7395 53.5312 67.33 51.7601 67.3333 49.9396V43.7668H72.3833V53.8668C72.3833 57.5855 75.398 60.6001 79.1167 60.6001C82.8354 60.6001 85.85 57.5855 85.85 53.8668V51.5926C86.6367 51.9766 87.4997 52.1786 88.375 52.1835C91.6289 52.1835 94.2667 49.5457 94.2667 46.2918V43.7668H99.3167C100.246 43.7668 101 43.0131 101 42.0835V31.9835C101 31.0538 100.246 30.3001 99.3167 30.3001ZM6.73333 40.4001H3.36667V33.6668H6.73333V40.4001ZM15.15 46.2918C15.15 47.6862 14.0194 48.8168 12.625 48.8168C11.2306 48.8168 10.1 47.6862 10.1 46.2918V27.7751C10.1 26.3807 11.2306 25.2501 12.625 25.2501C14.0194 25.2501 15.15 26.3807 15.15 27.7751V46.2918ZM25.25 53.8668C25.25 55.7262 23.7428 57.2335 21.8833 57.2335C20.0239 57.2335 18.5167 55.7262 18.5167 53.8668V20.2001C18.5167 18.3407 20.0239 16.8335 21.8833 16.8335C23.7428 16.8335 25.25 18.3407 25.25 20.2001V53.8668ZM33.6667 35.3501C32.737 35.3501 31.9833 36.1038 31.9833 37.0335V40.4001H28.6167V33.6668H35.35C35.3519 33.9849 35.3839 34.3025 35.4459 34.6145C35.4645 34.7138 35.4964 34.8047 35.52 34.9007C35.5587 35.0505 35.5873 35.2054 35.6378 35.3501H33.6667ZM42.0833 33.6668C42.0833 34.5964 41.3296 35.3501 40.4 35.3501C39.4704 35.3501 38.7167 34.5964 38.7167 33.6668V28.6168C38.7167 27.6872 39.4704 26.9335 40.4 26.9335C41.3296 26.9335 42.0833 27.6872 42.0833 28.6168V33.6668ZM48.8167 33.6668C48.8167 34.5964 48.063 35.3501 47.1333 35.3501C46.2037 35.3501 45.45 34.5964 45.45 33.6668V28.6168C45.45 27.6872 46.2037 26.9335 47.1333 26.9335C48.063 26.9335 48.8167 27.6872 48.8167 28.6168V33.6668ZM58.9167 28.6168C58.9167 27.6872 59.6704 26.9335 60.6 26.9335C61.5296 26.9335 62.2833 27.6872 62.2833 28.6168V33.6668C62.2833 34.5964 61.5296 35.3501 60.6 35.3501C59.6704 35.3501 58.9167 34.5964 58.9167 33.6668V28.6168ZM52.1833 28.6168C52.1833 27.6872 52.937 26.9335 53.8667 26.9335C54.7963 26.9335 55.55 27.6872 55.55 28.6168V33.6668C55.55 34.5964 54.7963 35.3501 53.8667 35.3501C52.937 35.3501 52.1833 34.5964 52.1833 33.6668V28.6168ZM72.3833 40.4001H50.5C50.5 40.3833 50.5 40.3698 50.5 40.353C50.4985 40.0182 50.4636 39.6843 50.3956 39.3565C50.3855 39.311 50.3636 39.2689 50.3535 39.2218C50.3232 39.0989 50.2795 38.9844 50.2408 38.8649C50.1696 38.6493 50.0836 38.439 49.9832 38.2354C49.9344 38.1344 49.9108 38.0199 49.8553 37.9223C49.8744 37.9092 49.8929 37.8951 49.9108 37.8802C49.9883 37.8297 50.0556 37.7691 50.1297 37.7118C50.2559 37.6176 50.3889 37.53 50.5067 37.424C50.6044 37.5115 50.7171 37.5805 50.8215 37.6597C50.9259 37.7388 51.0286 37.828 51.1413 37.8987C51.3002 37.9967 51.4643 38.0862 51.6329 38.1663C51.7473 38.2219 51.8551 38.2875 51.9695 38.3347C52.1661 38.41 52.3674 38.4725 52.5722 38.5215C52.6782 38.5501 52.7775 38.5905 52.887 38.6124C53.5344 38.7448 54.2021 38.7448 54.8497 38.6124C54.9591 38.5905 55.0585 38.5501 55.1645 38.5215C55.3693 38.4725 55.5706 38.41 55.7672 38.3347C55.8867 38.2859 55.9944 38.2202 56.1038 38.1663C56.273 38.0862 56.4375 37.9967 56.597 37.8987C56.7081 37.8246 56.8091 37.7405 56.9152 37.6597C57.0212 37.5789 57.1323 37.5115 57.23 37.424C57.3276 37.5115 57.4404 37.5805 57.5448 37.6597C57.6491 37.7388 57.7518 37.828 57.8646 37.8987C58.0234 37.9967 58.1876 38.0862 58.3561 38.1663C58.4706 38.2219 58.5783 38.2875 58.6928 38.3347C58.8893 38.41 59.0907 38.4725 59.2954 38.5215C59.4015 38.5501 59.5008 38.5905 59.6102 38.6124C62.3361 39.1665 64.995 37.4059 65.549 34.6802C65.6168 34.3467 65.6506 34.0072 65.65 33.6668H72.3833V40.4001ZM82.4833 53.8668C82.4833 55.7262 80.9761 57.2335 79.1167 57.2335C77.2572 57.2335 75.75 55.7262 75.75 53.8668V20.2001C75.75 18.3407 77.2572 16.8335 79.1167 16.8335C80.9761 16.8335 82.4833 18.3407 82.4833 20.2001V53.8668ZM90.9 46.2918C90.9 47.6862 89.7694 48.8168 88.375 48.8168C86.9806 48.8168 85.85 47.6862 85.85 46.2918V27.7751C85.85 26.3807 86.9806 25.2501 88.375 25.2501C89.7694 25.2501 90.9 26.3807 90.9 27.7751V46.2918ZM97.6333 40.4001H94.2667V33.6668H97.6333V40.4001Z" fill="#ffffff"/>
</svg>
