<svg width="101" height="101" viewBox="0 0 101 101" fill="none" xmlns="http://www.w3.org/2000/svg">
  <path d="M83.7393 16.1436C82.6504 16.1436 81.7666 17.0273 81.7666 18.1162C81.7666 19.2051 82.6504 20.0889 83.7393 20.0889C84.8282 20.0889 85.7119 19.2051 85.7119 18.1162C85.7119 17.0271 84.8282 16.1436 83.7393 16.1436Z" fill="white"/>
  <path
    d="M93.9888 14.1557C89.281 8.8644 82.7512 5.95039 75.6021 5.95039C67.7846 5.95039 60.6511 8.98059 54.9732 14.7135C52.9988 16.7069 51.523 18.6985 50.5 20.279C49.477 18.6987 48.0012 16.7073 46.0268 14.7135C40.3489 8.98039 33.2156 5.9502 25.3979 5.9502C10.4342 5.9502 0 18.4689 0 33.3526C0 53.4575 21.3055 70.3858 49.2081 94.5672C49.5788 94.8886 50.0394 95.0492 50.5 95.0492C50.9606 95.0492 51.4212 94.8886 51.7919 94.5672C79.761 70.328 101 53.4295 101 33.3526C101 26.0547 98.5101 19.2372 93.9888 14.1557ZM50.5 90.4671C24.1514 67.6663 3.94531 51.2901 3.94531 33.3526C3.94531 19.9799 13.1679 9.8957 25.3979 9.8957C32.1886 9.8957 38.1533 12.4179 43.1264 17.392C46.9151 21.1815 48.6828 25.0489 48.7001 25.0875C49.0176 25.7951 49.7212 26.2496 50.497 26.2512C50.4982 26.2512 50.4996 26.2512 50.5008 26.2512C51.2764 26.2512 51.9811 25.7949 52.3 25.0875C52.3174 25.0489 54.0851 21.1817 57.8738 17.392C62.8467 12.4177 68.8114 9.8957 75.6022 9.8957C87.8323 9.8957 97.0549 19.9799 97.0549 33.3526C97.0547 51.6951 75.5153 68.8201 50.5 90.4671Z"
    fill="white"/>
  <path
    d="M90.6388 23.1711C90.1329 22.2061 88.9404 21.8345 87.9758 22.3403C87.0109 22.8462 86.6389 24.0385 87.1449 25.0033C88.447 27.4863 89.1641 30.4516 89.1641 33.353C89.1641 39.0532 86.4511 45.1031 80.626 52.3925C79.9459 53.2435 80.0845 54.4849 80.9355 55.1651C81.7921 55.8496 83.0323 55.7012 83.7081 54.8556C90.122 46.8292 93.1094 39.9965 93.1094 33.353C93.1094 29.7738 92.255 26.253 90.6388 23.1711Z"
    fill="white"/>
  <path
    d="M69.4375 43.7607H58.3906V32.7139C58.3906 31.6244 57.5075 30.7412 56.418 30.7412H44.582C43.4925 30.7412 42.6094 31.6244 42.6094 32.7139V43.7607H31.5625C30.473 43.7607 29.5898 44.6439 29.5898 45.7334V57.5693C29.5898 58.6588 30.473 59.542 31.5625 59.542H42.6094V70.5889C42.6094 71.6784 43.4925 72.5615 44.582 72.5615H56.418C57.5075 72.5615 58.3906 71.6784 58.3906 70.5889V59.542H69.4375C70.527 59.542 71.4102 58.6588 71.4102 57.5693V45.7334C71.4102 44.6439 70.527 43.7607 69.4375 43.7607ZM67.4648 55.5965H56.418C55.3285 55.5965 54.4453 56.4796 54.4453 57.5691V68.616H46.5547V57.5691C46.5547 56.4796 45.6715 55.5965 44.582 55.5965H33.5352V47.7059H44.582C45.6715 47.7059 46.5547 46.8227 46.5547 45.7332V34.6863H54.4453V45.7332C54.4453 46.8227 55.3285 47.7059 56.418 47.7059H67.4648V55.5965Z"
    fill="white"/>
</svg>
