<svg width="101" height="101" viewBox="0 0 101 101" fill="none" xmlns="http://www.w3.org/2000/svg">
<path d="M71.0156 0V3.15625H95.6123L66.1945 32.5741C59.1592 26.0738 49.763 22.0938 39.4531 22.0938C17.6987 22.0938 0 39.7924 0 61.5469C0 83.3013 17.6987 101 39.4531 101C61.2076 101 78.9062 83.3013 78.9062 61.5469C78.9062 51.237 74.9262 41.8408 68.4259 34.8055L97.8438 5.38772V29.9844H101V1.57812L99.4219 0H71.0156ZM39.4531 97.8438C19.4378 97.8438 3.15625 81.5622 3.15625 61.5469C3.15625 41.5315 19.4378 25.25 39.4531 25.25C59.4685 25.25 75.75 41.5315 75.75 61.5469C75.75 81.5622 59.4685 97.8438 39.4531 97.8438Z" fill="#ffffff"/>
</svg>
