<svg width="70" height="70" viewBox="0 0 70 70" fill="none" xmlns="http://www.w3.org/2000/svg">
<path d="M49.2612 9.08024L49.2611 9.07449L49.2611 5.69995C49.1515 5.69758 49.0392 5.69635 48.9242 5.69629L47.6195 5.72697L47.5628 5.79183L47.5622 5.79246C47.3038 6.08745 46.9523 6.34464 46.5483 6.57516L49.2612 9.08024ZM49.2612 9.08024V9.08032V9.08056L49.2612 9.0815L49.2612 9.08527L49.2613 9.10034L49.2618 9.16063L49.2636 9.40181L49.271 10.3666L49.3002 14.2263L49.3002 14.2281L49.3391 18.1303M49.2612 9.08024L49.3391 18.1303M49.3391 18.1303L49.3003 20.3902L49.3002 20.3902V20.403C49.3002 20.9881 49.2738 21.4665 49.2259 21.8463C48.634 22.0559 48.1058 22.2011 47.639 22.287C47.0881 21.2405 46.4843 19.7698 45.8312 17.855C45.6365 17.2717 45.4419 16.4921 45.2497 15.5048L45.2496 15.5044C45.0549 14.5073 44.9072 13.6649 44.8046 12.9751C44.7517 12.6185 44.7037 12.3315 44.6603 12.1216C44.639 12.0182 44.6158 11.919 44.5901 11.8338C44.5774 11.7918 44.5599 11.739 44.5361 11.6846C44.5221 11.6528 44.4783 11.5526 44.3895 11.4528C43.9901 10.994 43.5238 10.6422 42.9796 10.4858L42.9763 10.4849C42.7889 10.4319 42.5192 10.4114 42.2546 10.3989C41.9606 10.385 41.5774 10.3784 41.1092 10.3784C40.1765 10.3784 38.8222 10.3916 37.0473 10.4179L37.0472 10.4179C35.275 10.4445 33.8315 10.4568 32.7145 10.4568C31.7903 10.4568 30.8786 10.5249 29.9803 10.6608L29.406 10.7477L29.3464 11.3255C29.0871 13.842 28.9762 15.6623 29.0293 16.7459L29.0686 22.6726V22.675L29.0686 35.6622L29.0686 35.6685L29.1863 49.7119L29.1469 55.4538C29.1199 56.7219 29.2715 57.9098 29.6104 59.011L29.7038 59.3143L29.9864 59.4585C31.3098 60.1337 32.5431 60.5821 33.6805 60.7815L33.741 60.7921C33.761 60.7971 33.7885 60.8043 33.8247 60.8143C33.9308 60.8438 34.0852 60.8899 34.2913 60.954C34.7168 61.0869 35.2977 61.2587 36.0294 61.4684C36.7614 61.6781 37.3275 61.8361 37.7255 61.9421M49.3391 18.1303L9.1004 10.7726M37.7255 61.9421C37.7253 61.9421 37.725 61.942 37.7248 61.9419L37.9185 61.2174L37.7255 61.9421ZM37.7255 61.9421C38.2932 62.0939 38.7746 62.2559 39.1755 62.4257M39.1755 62.4257C39.2179 62.813 39.2511 63.1264 39.2753 63.3667C39.2914 63.528 39.3033 63.6539 39.311 63.7458C39.3178 63.8269 39.3199 63.8651 39.3204 63.8758C39.3206 63.8787 39.3206 63.8796 39.3206 63.8787C39.3206 63.9815 39.3123 64.1187 39.2938 64.2934M39.1755 62.4257C39.3051 62.4806 39.4263 62.5363 39.5392 62.5928L39.8745 61.9219M39.1755 62.4257C39.1611 62.2939 39.1456 62.1536 39.1291 62.0047L39.8745 61.9219M39.2938 64.2934C39.0894 64.299 38.8656 64.3018 38.6223 64.3018C35.7728 64.3018 33.3672 64.1725 31.4009 63.9173L31.4009 63.9172L31.3872 63.9157C29.4638 63.7019 26.3228 63.5982 21.9907 63.5982C19.6614 63.5982 16.5972 63.7834 12.8059 64.1496M39.2938 64.2934C39.2762 64.4592 39.2494 64.6589 39.2118 64.8951L39.9525 65.0129M39.2938 64.2934C39.5187 64.2872 39.7202 64.2777 39.8988 64.2648L39.9525 65.0129M12.8059 64.1496C11.9917 64.2179 11.3315 64.2625 10.821 64.2852M12.8059 64.1496C12.8074 64.1494 12.8089 64.1493 12.8103 64.1492L12.8731 64.8966M12.8059 64.1496C12.8042 64.1497 12.8026 64.1499 12.801 64.15L12.8731 64.8966M10.821 64.2852C10.8157 64.2147 10.8117 64.1578 10.8091 64.1136C10.8086 64.1056 10.8082 64.0982 10.8079 64.0914C10.8071 64.0771 10.8065 64.0652 10.8061 64.0555C10.8059 64.0501 10.8058 64.0458 10.8057 64.0427C10.8055 64.037 10.8055 64.0348 10.8055 64.0354V64.0209L10.8049 64.0064L10.7662 63.004M10.821 64.2852C10.8217 64.2935 10.8223 64.302 10.823 64.3106C10.8357 64.4753 10.855 64.6997 10.8808 64.9856L10.1339 65.0532M10.821 64.2852C10.55 64.2973 10.3212 64.3032 10.1339 64.3032V65.0532M10.7662 63.004V62.9024M10.7662 63.004V63.0185H10.6822C10.6708 63.0354 10.6597 63.0523 10.6489 63.0693L10.5691 63.0185H10.0162M10.7662 63.004L10.7656 62.9895L10.7004 62.992C10.7213 62.962 10.7433 62.9321 10.7662 62.9024M10.7662 62.9024C11.2051 62.3327 12.0052 61.8315 13.3061 61.4726M10.7662 62.9024V62.6667H10.0162M13.3061 61.4726C15.1227 60.9763 16.5581 60.5626 17.6082 60.2324C18.1329 60.0674 18.5677 59.9212 18.9089 59.7944C19.2362 59.6727 19.5205 59.5533 19.7152 59.4367L19.9236 59.3119L20.0193 59.0886C20.2978 58.4384 20.4649 57.6204 20.5468 56.6661L20.5482 56.6497L20.5489 56.6332C20.7584 51.6094 20.8364 45.9482 20.7842 39.6517L20.7842 39.6492L20.5889 22.9005L20.5888 22.8969C20.5623 21.2857 20.5563 19.7465 20.5691 18.2789M13.3061 61.4726C13.3059 61.4727 13.3057 61.4727 13.3055 61.4728L13.1079 60.7493M13.3061 61.4726C13.3065 61.4725 13.3069 61.4724 13.3073 61.4723L13.1079 60.7493M20.5691 18.2789C20.5822 16.8037 20.5889 15.4636 20.5889 14.2614C20.5889 13.0871 20.5652 12.2655 20.4987 11.897L20.4985 11.8957C20.4415 11.5829 20.3322 11.1879 20.0551 10.912L20.0311 10.888L20.005 10.8664C19.7392 10.6456 19.4266 10.5109 19.0836 10.4657M20.5691 18.2789L19.8192 18.2722M20.5691 18.2789C20.5691 18.2788 20.5691 18.2788 20.5691 18.2788L19.8192 18.2722M19.0836 10.4657C18.0227 10.3004 16.0386 10.224 13.1861 10.224C11.9901 10.224 10.6255 10.4108 9.1004 10.7726M19.0836 10.4657C19.0792 10.4651 19.0749 10.4646 19.0705 10.464L18.9777 11.2083M19.0836 10.4657C19.0872 10.4663 19.0908 10.4668 19.0943 10.4674L18.9777 11.2083M9.1004 10.7726L9.27314 11.5024C10.7603 11.1496 12.0647 10.974 13.1861 10.974C16.056 10.974 17.9864 11.0523 18.9777 11.2083M9.1004 10.7726L19.5259 11.4433M18.9777 11.2083C19.1866 11.2343 19.3691 11.3131 19.5259 11.4433M19.5259 11.4433C19.6304 11.5475 19.7084 11.7435 19.7607 12.0301C19.8125 12.3174 19.8389 13.0611 19.8389 14.2614C19.8389 15.4609 19.8322 16.7987 19.8192 18.2722M19.5259 11.4433L31.3044 64.6611M4.85381 13.489C5.11133 12.801 5.46863 12.2047 5.99057 11.8441L5.99125 11.8437C6.28954 11.6381 6.7143 11.4597 7.205 11.295C7.71072 11.1253 8.34457 10.9515 9.10001 10.7727L4.85381 13.489ZM4.85381 13.489C4.60428 14.1549 4.30899 15.1666 3.96874 16.5016L3.96872 16.5017C3.63213 17.8229 3.32381 18.8994 3.04459 19.7368L3.0445 19.7367L3.04093 19.748C2.91942 20.1325 2.72907 20.4395 2.47293 20.6861L2.4725 20.6866C2.38444 20.7715 2.30983 20.837 2.2481 20.8866C1.48228 20.3973 1.00395 20.0175 0.75 19.7465V8.39137V5.76667L2.99664 5.73714L4.94698 6.71237L5.02073 6.74925L5.10073 6.76922C5.31017 6.82151 5.65059 6.85204 6.0471 6.87572C6.46927 6.90093 7.02805 6.92157 7.71998 6.93797C9.10497 6.9708 11.0457 6.98715 13.5394 6.98715H18.6265H18.6852L18.7432 6.978L19.4319 6.86944L23.872 6.8305L32.2806 6.86996H32.2841M4.85381 13.489L32.2841 6.86996M30.3272 58.7904C31.6059 59.4428 32.7668 59.8599 33.81 60.0427C33.8618 60.0427 34.0969 60.108 34.5143 60.2379L30.3272 58.7904ZM30.3272 58.7904C30.0142 57.7734 29.8708 56.6646 29.8969 55.4643L30.3272 58.7904ZM31.3044 64.6611C29.4259 64.4523 26.3212 64.3482 21.9907 64.3482C19.695 64.3482 16.656 64.5311 12.8731 64.8966M31.3044 64.6611C33.3129 64.9218 35.7528 65.0518 38.6223 65.0518C39.144 65.0518 39.5876 65.0391 39.9525 65.0129M31.3044 64.6611L39.8745 61.9219M12.8731 64.8966C11.621 65.0017 10.7078 65.0532 10.1339 65.0532M10.1339 65.0532C10.0819 64.4791 10.0555 64.1405 10.0555 64.0354L10.0162 63.0185M10.0162 63.0185L10.5374 62.9984L10.0162 62.6667M10.0162 63.0185V62.6667M10.0162 62.6667C10.5641 61.8055 11.5944 61.1667 13.1079 60.7493M13.1079 60.7493C16.7343 59.7586 18.8082 59.1056 19.3299 58.7933C19.5648 58.2449 19.7212 57.5146 19.7996 56.6019C20.0085 51.5934 20.0863 45.945 20.0342 39.6579L19.8389 22.9092C19.8123 21.292 19.8063 19.7465 19.8192 18.2722M39.9525 65.0129C40.0313 64.5176 40.0706 64.1396 40.0706 63.8787C40.0706 63.7484 40.005 63.0964 39.8745 61.9219M32.2841 6.86996H43.7279L45.0322 6.94626M32.2841 6.86996L45.0322 6.94626M45.0322 6.94626C45.5656 6.98349 46.0758 6.84505 46.548 6.57537L45.0322 6.94626ZM50.0502 14.2207C50.0243 10.7896 50.0111 9.07449 50.0111 9.07449L50.0502 14.2207ZM44.0627 13.0852C44.1675 13.7897 44.3174 14.6439 44.5135 15.6482C44.7091 16.6528 44.9112 17.4681 45.1205 18.0945C45.8766 20.3119 46.5811 21.9814 47.2332 23.1034C47.9893 23.025 48.8767 22.7898 49.8945 22.3988C49.9987 21.903 50.0502 21.2379 50.0502 20.403L44.0627 13.0852Z" stroke="#ffffff" stroke-width="1.5"/>
<path d="M64.3657 55.0353V55.7853H65.1157H68.2467C69.0101 55.7853 69.1719 55.9975 69.2155 56.0874L69.2159 56.0883C69.262 56.183 69.3255 56.4449 68.8666 57.0426C68.8662 57.0431 68.8658 57.0436 68.8654 57.0441L63.937 63.38L63.9344 63.3833C63.534 63.904 63.1026 64.1074 62.6115 64.1074C62.1209 64.1074 61.6897 63.9041 61.289 63.3832L61.2865 63.38L56.3579 57.0439C56.3575 57.0434 56.3571 57.0429 56.3567 57.0424C55.8975 56.4448 55.9611 56.183 56.0072 56.0882L56.0076 56.0875C56.0511 55.9976 56.213 55.7854 56.9763 55.7854H60.1076H60.8576V55.0354V14.9637V14.2137H60.1076H56.9763C56.2117 14.2137 56.0504 14.0009 56.0079 13.9131L56.0078 13.913C55.9614 13.817 55.8988 13.5544 56.357 12.9565L61.2865 6.61952L61.2865 6.61953L61.2891 6.61616C61.6898 6.09499 62.121 5.8916 62.6115 5.8916C63.1021 5.8916 63.5337 6.09511 63.9345 6.61623L63.9345 6.61624L63.937 6.61952L68.8653 12.9549C68.8657 12.9555 68.8661 12.956 68.8666 12.9566C69.326 13.5551 69.2621 13.8163 69.2159 13.9111L69.2156 13.9119C69.1721 14.0013 69.0102 14.2135 68.2467 14.2135H65.1157H64.3657V14.9635V55.0353Z" stroke="#ffffff" stroke-width="1.5"/>
</svg>
