<svg width="29" height="29" viewBox="0 0 29 29" fill="none" xmlns="http://www.w3.org/2000/svg">
<path d="M19.2955 22.995C19.1471 22.995 18.9997 22.9511 18.8733 22.8653L14.0959 19.6247L11.5336 21.4684C11.3326 21.6129 11.0736 21.6493 10.8403 21.5659C10.6072 21.4823 10.4302 21.2892 10.3671 21.0499L9.0805 16.1742L4.48346 14.4164C4.19406 14.3057 4.00212 14.0288 4.00002 13.719C3.99791 13.4091 4.18603 13.1296 4.47403 13.015L21.9537 6.05973C22.033 6.02603 22.1169 6.00658 22.2016 6.00137C22.2319 5.99956 22.2622 5.99956 22.2924 6.00127C22.4677 6.0117 22.6399 6.08309 22.7743 6.21486C22.7882 6.2285 22.8014 6.24243 22.814 6.25698C22.9253 6.38413 22.9865 6.53916 22.998 6.6971C23.0008 6.73681 23.0006 6.77702 22.9971 6.81723C22.9947 6.84591 22.9906 6.87449 22.9847 6.90287L20.0343 22.3837C19.9868 22.6324 19.8176 22.8405 19.5837 22.9375C19.491 22.976 19.393 22.995 19.2955 22.995ZM14.5154 18.0917L18.7709 20.9782L21.0666 8.93239L12.7749 16.9111L14.4953 18.0781C14.5022 18.0825 14.5089 18.0871 14.5154 18.0917ZM10.9728 17.4498L11.5426 19.6088L12.7702 18.7254L11.1628 17.635C11.0881 17.5845 11.0241 17.5215 10.9728 17.4498ZM6.82144 13.6998L9.97799 14.9067C10.2041 14.9931 10.3748 15.1832 10.4366 15.4173L10.8369 16.9344C10.8552 16.7594 10.9345 16.5947 11.0634 16.4707L18.9642 8.86821L6.82144 13.6998Z" fill="white"/>
<path d="M4.24805 29H24.752C27.0944 29 29 27.0944 29 24.752V4.24805C29 1.90565 27.0944 0 24.752 0H4.24805C1.90565 0 0 1.90565 0 4.24805V24.752C0 27.0944 1.90565 29 4.24805 29ZM1.69922 4.24805C1.69922 2.84265 2.84265 1.69922 4.24805 1.69922H24.752C26.1573 1.69922 27.3008 2.84265 27.3008 4.24805V24.752C27.3008 26.1573 26.1573 27.3008 24.752 27.3008H4.24805C2.84265 27.3008 1.69922 26.1573 1.69922 24.752V4.24805Z" fill="white"/>
</svg>
