<svg width="101" height="101" viewBox="0 0 101 101" fill="none" xmlns="http://www.w3.org/2000/svg">
<g clip-path="url(#clip0)">
<path d="M17.3148 87.1914C17.3148 84.1213 19.8128 81.6234 22.8828 81.6234C25.9529 81.6234 28.4508 84.1213 28.4508 87.1914C28.4508 90.2615 25.9529 92.7594 22.8828 92.7594C19.8128 92.7594 17.3148 90.2615 17.3148 87.1914ZM20.5602 87.1914C20.5602 88.4727 21.6015 89.5141 22.8828 89.5141C24.1642 89.5141 25.2055 88.4727 25.2055 87.1914C25.2055 85.9101 24.1642 84.8688 22.8828 84.8688C21.6015 84.8688 20.5602 85.9101 20.5602 87.1914Z" fill="url(#paint0_linear)" stroke="#F1F1F1" stroke-width="0.7"/>
<path d="M88.3305 81.6234H87.9805H40.6367H40.2867V81.2734V40.6367V40.2867H40.6367H54.4453H54.7953V40.6367V61.5469C54.7953 62.1617 55.1426 62.7233 55.6923 62.9985C56.2416 63.2735 56.8995 63.214 57.3916 62.845L64.0986 57.8147L64.3086 57.6572L64.5186 57.8147L71.2256 62.845L71.2257 62.845C71.7181 63.2145 72.3759 63.2729 72.9249 62.9985L88.3305 81.6234ZM88.3305 81.6234V81.2734M88.3305 81.6234V81.2734M88.3305 81.2734V40.6367V40.2867H87.9805H74.1719H73.8219M88.3305 81.2734L73.8219 40.2867M73.8219 40.2867V40.6367M73.8219 40.2867V40.6367M73.8219 40.6367V61.5469C73.8219 62.1616 73.4746 62.7232 72.925 62.9984L73.8219 40.6367ZM91.5758 81.2734V81.6234H91.9258H95.082C98.1521 81.6234 100.65 84.1213 100.65 87.1914C100.65 90.2615 98.1521 92.7594 95.082 92.7594H35.3606H35.1394L35.0445 92.9593C32.8364 97.6097 28.1103 100.65 22.8828 100.65C15.4621 100.65 9.42422 94.6121 9.42422 87.1914C9.42422 81.9639 12.4645 77.2378 17.115 75.0298L17.3148 74.9349V74.7136V11.8359V11.4859H16.9648H5.91797C2.84791 11.4859 0.35 8.98803 0.35 5.91797C0.35 2.84791 2.84791 0.35 5.91797 0.35H22.8828C25.9529 0.35 28.4508 2.84791 28.4508 5.91797V74.7136V74.9353L28.6512 75.03C31.4661 76.3608 33.7142 78.609 35.0442 81.423L35.1389 81.6234H35.3606H36.6914H37.0414V81.2734V9.86328C37.0414 8.967 37.7678 8.24063 38.6641 8.24063H38.7094H38.7552H38.8013H38.8477H38.8945H38.9417H38.9892H39.0371H39.0853H39.1338H39.1827H39.232H39.2816H39.3315H39.3818H39.4324H39.4833H39.5346H39.5862H39.6382H39.6904H39.7431H39.796H39.8493H39.9029H39.9568H40.011H40.0656H40.1205H40.1757H40.2312H40.2871H40.3432H40.3997H40.4565H40.5136H40.571H40.6287H40.6868H40.7451H40.8037H40.8627H40.9219H40.9814H41.0413H41.1014H41.1619H41.2226H41.2836H41.3449H41.4065H41.4684H41.5306H41.5931H41.6558H41.7189H41.7822H41.8458H41.9097H41.9738H42.0383H42.103H42.168H42.2332H42.2988H42.3646H42.4306H42.497H42.5636H42.6304H42.6976H42.765H42.8326H42.9005H42.9687H43.0371H43.1058H43.1747H43.2439H43.3134H43.383H43.453H43.5232H43.5936H43.6643H43.7352H43.8063H43.8777H43.9493H44.0212H44.0933H44.1657H44.2382H44.311H44.3841H44.4573H44.5308H44.6045H44.6785H44.7526H44.827H44.9016H44.9765H45.0515H45.1268H45.2022H45.2779H45.3538H45.4299H45.5062H45.5828H45.6595H45.7365H45.8136H45.8909H45.9685H46.0462H46.1242H46.2023H46.2807H46.3592H46.4379H46.5168H46.5959H46.6752H46.7547H46.8344H46.9142H46.9943H47.0745H47.1549H47.2355H47.3162H47.3972H47.4783H47.5596H47.641H47.7226H47.8044H47.8864H47.9685H48.0508H48.1333H48.2159H48.2987H48.3816H48.4647H48.548H48.6314H48.7149H48.7987H48.8825H48.9666H49.0507H49.135H49.2195H49.3041H49.3889H49.4738H49.5588H49.644H49.7293H49.8147H49.9003H49.986H50.0719H50.1578H50.244H50.3302H50.4166H50.503H50.5897H50.6764H50.7632H50.8502H50.9373H51.0245H51.1119H51.1993H51.2869H51.3745H51.4623H51.5502H51.6382H51.7263H51.8145H51.9028H51.9912H52.0797H52.1683H52.257H52.3458H52.4347H52.5237H52.6128H52.702H52.7912H52.8806H52.97H53.0595H53.1492H53.2388H53.3286H53.4185H53.5084H53.5984H53.6885H53.7787H53.8689H53.9592H54.0496H54.14H54.2305H54.3211H54.4117H54.5024H54.5932H54.684H54.7749H54.8658H54.9568H55.0479H55.139H55.2302H55.3214H55.4126H55.504H55.5953H55.6867H55.7782H55.8696H55.9612H56.0527H56.1443H56.236H56.3277H56.4194H56.5111H56.6029H56.6947H56.7866H56.8784H56.9703H57.0622H57.1542H57.2461H57.3381H57.4301H57.5222H57.6142H57.7062H57.7983H57.8904H57.9825H58.0746H58.1667H58.2588H58.3509H58.443H58.5352H58.6273H58.7194H58.8115H58.9037H58.9958H59.0879H59.18H59.2721H59.3642H59.4563H59.5483H59.6404H59.7324H59.8244H59.9164H60.0084H60.1004H60.1923H60.2842H60.3761H60.468H60.5598H60.6516H60.7434H60.8352H60.9269H61.0185H61.1102H61.2018H61.2934H61.3849H61.4764H61.5678H61.6592H61.7506H61.8419H61.9331H62.0243H62.1155H62.2066H62.2976H62.3886H62.4796H62.5704H62.6613H62.752H62.8427H62.9334H63.0239H63.1144H63.2049H63.2952H63.3855H63.4758H63.5659H63.656H63.746H63.8359H63.9258H64.0155H64.1052H64.1948H64.2843H64.3738H64.4631H64.5524H64.6415H64.7306H64.8196H64.9085H64.9973H65.086H65.1746H65.2631H65.3515H65.4398H65.528H65.6161H65.704H65.7919H65.8797H65.9673H66.0549H66.1423H66.2296H66.3168H66.4039H66.4909H66.5777H66.6645H66.7511H66.8375H66.9239H67.0101H67.0962H67.1822H67.268H67.3537H67.4393H67.5247H67.61H67.6952H67.7802H67.8651H67.9499H68.0344H68.1189H68.2032H68.2874H68.3714H68.4552H68.5389H68.6225H68.7059H68.7891H68.8722H68.9551H69.0379H69.1205H69.203H69.2852H69.3674H69.4493H69.5311H69.6127H69.6941H69.7754H69.8565H69.9374H70.0182H70.0987H70.1791H70.2593H70.3393H70.4192H70.4988H70.5783H70.6576H70.7367H70.8156H70.8943H70.9728H71.0511H71.1292H71.2072H71.2849H71.3624H71.4398H71.5169H71.5938H71.6705H71.747H71.8233H71.8994H71.9753H72.051H72.1264H72.2017H72.2767H72.3515H72.4261H72.5005H72.5746H72.6485H72.7222H72.7957H72.8689H72.942H73.0147H73.0873H73.1596H73.2317H73.3036H73.3752H73.4465H73.5177H73.5886H73.6592H73.7296H73.7998H73.8697H73.9394H74.0088H74.0779H74.1469H74.2155H74.2839H74.3521H74.42H74.4876H74.555H74.6221H74.6889H74.7555H74.8218H74.8879H74.9536H75.0191H75.0844H75.1493H75.214H75.2785H75.3426H75.4064H75.47H75.5333H75.5963H75.6591H75.7215H75.7837H75.8455H75.9071H75.9684H76.0294H76.0901H76.1505H76.2106H76.2705H76.33H76.3892H76.4481H76.5067H76.565H76.623H76.6807H76.7381H76.7952H76.8519H76.9084H76.9645H77.0203H77.0758H77.131H77.1859H77.2404H77.2947H77.3485H77.4021H77.4554H77.5083H77.5609H77.6131H77.665H77.7166H77.7679H77.8188H77.8694H77.9196H77.9695H78.0191H78.0683H78.1172C79.0135 8.24063 79.7398 8.967 79.7398 9.86328V36.6914V37.0414H80.0898H89.9531C90.8494 37.0414 91.5758 37.7678 91.5758 38.6641V81.2734ZM58.3906 40.2867H58.0406V40.6367V57.6016V58.3016L58.6006 57.8816L63.3349 54.3309C63.6234 54.1146 63.9663 54.0062 64.3086 54.0062C64.6509 54.0062 64.9938 54.1146 65.2823 54.3309L70.0166 57.8816L70.5766 58.3016V57.6016V40.6367V40.2867H70.2266H58.3906ZM54.4453 11.4859H54.0953V11.8359V23.1417V23.7956L54.6394 23.433L57.4905 21.5327L57.4907 21.5326C57.7631 21.3508 58.0766 21.2602 58.3906 21.2602C58.7046 21.2602 59.0181 21.3508 59.2905 21.5326L59.2907 21.5327L62.1418 23.433L62.6859 23.7956V23.1417V11.8359V11.4859H62.3359H54.4453ZM50.85 11.8359V11.4859H50.5H40.6367H40.2867V11.8359V36.6914V37.0414H40.6367H40.6998H40.7629H40.8261H40.8893H40.9526H41.016H41.0795H41.143H41.2066H41.2703H41.334H41.3979H41.4617H41.5257H41.5897H41.6538H41.7179H41.7821H41.8464H41.9107H41.9752H42.0396H42.1042H42.1688H42.2334H42.2982H42.363H42.4278H42.4928H42.5578H42.6228H42.6879H42.7531H42.8183H42.8836H42.949H43.0144H43.0799H43.1455H43.2111H43.2767H43.3425H43.4083H43.4741H43.54H43.606H43.672H43.7381H43.8042H43.8704H43.9367H44.003H44.0694H44.1358H44.2023H44.2688H44.3354H44.4021H44.4688H44.5355H44.6024H44.6692H44.7362H44.8031H44.8702H44.9373H45.0044H45.0716H45.1388H45.2061H45.2735H45.3409H45.4083H45.4759H45.5434H45.611H45.6787H45.7464H45.8141H45.882H45.9498H46.0177H46.0857H46.1537H46.2217H46.2898H46.358H46.4262H46.4944H46.5627H46.6311H46.6994H46.7679H46.8363H46.9049H46.9734H47.042H47.1107H47.1794H47.2481H47.3169H47.3858H47.4546H47.5236H47.5925H47.6615H47.7306H47.7997H47.8688H47.938H48.0072H48.0764H48.1457H48.2151H48.2845H48.3539H48.4233H48.4928H48.5624H48.6319H48.7015H48.7712H48.8409H48.9106H48.9804H49.0502H49.12H49.1899H49.2598H49.3297H49.3997H49.4697H49.5398H49.6099H49.68H49.7502H49.8204H49.8906H49.9609H50.0311H50.1015H50.1718H50.2422H50.3126H50.3831H50.4536H50.5241H50.5947H50.6652H50.7359H50.8065H50.8772H50.9479H51.0186H51.0894H51.1602H51.231H51.3018H51.3727H51.4436H51.5145H51.5855H51.6565H51.7275H51.7985H51.8696H51.9407H52.0118H52.083H52.1541H52.2253H52.2965H52.3678H52.439H52.5103H52.5817H52.653H52.7244H52.7957H52.8671H52.9386H53.01H53.0815H53.153H53.2245H53.296H53.3676H53.4392H53.5108H53.5824H53.654H53.7257H53.7973H53.869H53.9408H54.0125H54.0842H54.156H54.2278H54.2996H54.3714H54.4432H54.5151H54.5869H54.6588H54.7307H54.8026H54.8745H54.9465H55.0184H55.0904H55.1624H55.2344H55.3064H55.3784H55.4505H55.5225H55.5946H55.6666H55.7387H55.8108H55.8829H55.955H56.0272H56.0993H56.1715H56.2436H56.3158H56.388H56.4601H56.5323H56.6045H56.6767H56.749H56.8212H56.8934H56.9657H57.0379H57.1102H57.1824H57.2547H57.327H57.3992H57.4715H57.5438H57.6161H57.6884H57.7607H57.833H57.9053H57.9776H58.0499H58.1222H58.1945H58.2669H58.3392H58.4115H58.4838H58.5562H58.6285H58.7008H58.7731H58.8455H58.9178H58.9901H59.0624H59.1348H59.2071H59.2794H59.3517H59.424H59.4964H59.5687H59.641H59.7133H59.7856H59.8579H59.9302H60.0025H60.0747H60.147H60.2193H60.2916H60.3638H60.4361H60.5083H60.5806H60.6528H60.725H60.7973H60.8695H60.9417H61.0139H61.0861H61.1583H61.2304H61.3026H61.3747H61.4469H61.519H61.5911H61.6633H61.7354H61.8074H61.8795H61.9516H62.0236H62.0957H62.1677H62.2397H62.3117H62.3837H62.4557H62.5277H62.5996H62.6716H62.7435H62.8154H62.8873H62.9591H63.031H63.1028H63.1747H63.2465H63.3183H63.39H63.4618H63.5335H63.6053H63.677H63.7486H63.8203H63.8919H63.9636H64.0352H64.1068H64.1783H64.2499H64.3214H64.3929H64.4644H64.5359H64.6073H64.6787H64.7501H64.8215H64.8928H64.9642H65.0355H65.1068H65.178H65.2492H65.3204H65.3916H65.4628H65.5339H65.605H65.6761H65.7472H65.8182H65.8892H65.9602H66.0311H66.102H66.1729H66.2438H66.3146H66.3854H66.4562H66.5269H66.5977H66.6684H66.739H66.8096H66.8802H66.9508H67.0213H67.0919H67.1623H67.2328H67.3032H67.3736H67.4439H67.5142H67.5845H67.6547H67.7249H67.7951H67.8653H67.9354H68.0054H68.0755H68.1455H68.2154H68.2854H68.3553H68.4251H68.495H68.5647H68.6345H68.7042H68.7739H68.8435H68.9131H68.9827H69.0522H69.1216H69.1911H69.2605H69.3298H69.3992H69.4684H69.5377H69.6069H69.676H69.7451H69.8142H69.8832H69.9522H70.0212H70.0901H70.1589H70.2277H70.2965H70.3652H70.4339H70.5025H70.5711H70.6397H70.7082H70.7766H70.845H70.9134H70.9817H71.05H71.1182H71.1864H71.2545H71.3226H71.3906H71.4586H71.5265H71.5944H71.6623H71.73H71.7978H71.8655H71.9331H72.0007H72.0682H72.1357H72.2031H72.2705H72.3378H72.4051H72.4723H72.5395H72.6066H72.6737H72.7407H72.8077H72.8746H72.9414H73.0082H73.0749H73.1416H73.2082H73.2748H73.3413H73.4078H73.4742H73.5405H73.6068H73.673H73.7392H73.8053H73.8714H73.9374H74.0033H74.0692H74.135H74.2008H74.2665H74.3321H74.3977H74.4632H74.5287H74.5941H74.6594H74.7247H74.7899H74.8551H74.9201H74.9852H75.0501H75.115H75.1799H75.2446H75.3093H75.374H75.4386H75.5031H75.5675H75.6319H75.6962H75.7605H75.8246H75.8887H75.9528H76.0168H76.0807H76.1445H76.4945V36.6914V11.8359V11.4859H76.1445H66.2812H65.9313V11.8359V26.8281C65.9313 27.4265 65.6016 27.9767 65.0744 28.2587L65.0742 28.2588C64.5476 28.5407 63.9067 28.5103 63.4085 28.1782L63.2144 28.4694L63.4085 28.1782L58.5848 24.9626L58.3906 24.8332L58.1965 24.9626L53.3728 28.1782C52.8751 28.5098 52.2349 28.5414 51.707 28.2587C51.1794 27.9759 50.85 27.4262 50.85 26.8281V11.8359ZM24.8058 73.8718L25.2055 73.9291V73.5254V5.91797C25.2055 4.63663 24.1642 3.59531 22.8828 3.59531H5.91797C4.63663 3.59531 3.59531 4.63663 3.59531 5.91797C3.59531 7.19931 4.63663 8.24063 5.91797 8.24063H18.9375C19.8338 8.24063 20.5602 8.967 20.5602 9.86328V73.5254V73.9291L20.9598 73.8718C21.5945 73.7808 22.2359 73.7328 22.8828 73.7328C23.5297 73.7328 24.1711 73.7808 24.8058 73.8718ZM36.2024 89.1144L36.1451 89.5141H36.5489H95.082C96.3634 89.5141 97.4047 88.4727 97.4047 87.1914C97.4047 85.9101 96.3634 84.8688 95.082 84.8688H36.5489H36.1456L36.2023 85.268C36.2926 85.9032 36.3414 86.5448 36.3414 87.1914C36.3414 87.8383 36.2934 88.4797 36.2024 89.1144ZM12.6695 87.1914C12.6695 92.8234 17.2508 97.4047 22.8828 97.4047C28.4532 97.4047 33.0961 92.8988 33.0961 87.1914C33.0961 81.6257 28.5888 76.9781 22.8828 76.9781C17.1754 76.9781 12.6695 81.621 12.6695 87.1914Z" fill="url(#paint1_linear)" stroke="#F1F1F1" stroke-width="0.7"/>
<path d="M83.6852 75.3555C83.6852 76.2518 82.9588 76.9781 82.0625 76.9781C81.1662 76.9781 80.4398 76.2518 80.4398 75.3555V71.4102C80.4398 70.5139 81.1662 69.7875 82.0625 69.7875C82.9588 69.7875 83.6852 70.5139 83.6852 71.4102V75.3555Z" fill="url(#paint2_linear)" stroke="#F1F1F1" stroke-width="0.7"/>
<path d="M82.0625 61.8969C82.958 61.8969 83.6852 62.624 83.6852 63.5195C83.6852 64.415 82.958 65.1422 82.0625 65.1422C81.167 65.1422 80.4398 64.415 80.4398 63.5195C80.4398 62.624 81.167 61.8969 82.0625 61.8969Z" fill="url(#paint3_linear)" stroke="#F1F1F1" stroke-width="0.7"/>
<path d="M72.5492 71.4102C72.5492 70.5139 73.2756 69.7875 74.1719 69.7875C75.0682 69.7875 75.7945 70.5139 75.7945 71.4102V75.3555C75.7945 76.2518 75.0682 76.9781 74.1719 76.9781C73.2756 76.9781 72.5492 76.2518 72.5492 75.3555V71.4102Z" fill="url(#paint4_linear)" stroke="#F1F1F1" stroke-width="0.7"/>
</g>
<defs>
<linearGradient id="paint0_linear" x1="22.8828" y1="81.2734" x2="22.8828" y2="93.1094" gradientUnits="userSpaceOnUse">
<stop stop-color="#7F46C5"/>
<stop offset="1" stop-color="#1C5DA9"/>
</linearGradient>
<linearGradient id="paint1_linear" x1="50.5" y1="0" x2="50.5" y2="101" gradientUnits="userSpaceOnUse">
<stop stop-color="#7F46C5"/>
<stop offset="1" stop-color="#1C5DA9"/>
</linearGradient>
<linearGradient id="paint2_linear" x1="82.0625" y1="69.4375" x2="82.0625" y2="77.3281" gradientUnits="userSpaceOnUse">
<stop stop-color="#7F46C5"/>
<stop offset="1" stop-color="#1C5DA9"/>
</linearGradient>
<linearGradient id="paint3_linear" x1="82.0625" y1="61.5469" x2="82.0625" y2="65.4922" gradientUnits="userSpaceOnUse">
<stop stop-color="#7F46C5"/>
<stop offset="1" stop-color="#1C5DA9"/>
</linearGradient>
<linearGradient id="paint4_linear" x1="74.1719" y1="69.4375" x2="74.1719" y2="77.3281" gradientUnits="userSpaceOnUse">
<stop stop-color="#7F46C5"/>
<stop offset="1" stop-color="#1C5DA9"/>
</linearGradient>
<clipPath id="clip0">
<rect width="101" height="101" fill="white"/>
</clipPath>
</defs>
</svg>
