<svg width="40" height="44" viewBox="0 0 40 44" fill="none" xmlns="http://www.w3.org/2000/svg">
<path d="M39.1545 24.3917C39.0115 24.049 38.6779 23.8253 38.3077 23.8253H28.2663V0.916389C28.2663 0.410558 27.8557 0 27.3499 0H12.6881C12.1823 0 11.7717 0.410558 11.7717 0.916389V23.8254H1.69177C1.32159 23.8254 0.988007 24.0491 0.845055 24.3899C0.703906 24.7326 0.78088 25.1267 1.04299 25.3888L19.3244 43.7307C19.4966 43.9029 19.7294 44.0001 19.9732 44.0001C20.2169 44.0001 20.4497 43.9029 20.622 43.7325L38.9565 25.3906C39.2186 25.1284 39.2974 24.7344 39.1545 24.3917Z" fill="url(#paint0_linear)"/>
<defs>
<linearGradient id="paint0_linear" x1="20.0002" y1="0" x2="20.0002" y2="44.0001" gradientUnits="userSpaceOnUse">
<stop stop-color="#3E1B7B"/>
<stop offset="1" stop-color="#6A0EB1"/>
</linearGradient>
</defs>
</svg>
